{
.appVersion = "3306";
.formatVersion = 3;
axes = (
{
name = weight;
tag = wght;
},
{
name = width;
tag = wdth;
},
{
name = slant;
tag = slnt;
}
);
classes = (
{
automatic = 1;

glyphs = (
{
glyphname = A;
lastChange = "2024-05-08 18:01:48 +0000";
layers = (
{
layerId = "BEB83068-430F-4F93-8275-D4D4FE2C02C8";
shapes = (
{
closed = 1;
nodes = (
(475,0,l),
(475,77,l),
(268,144,l),
(272,89,l),
(606,1309,l),
(617,1309,l),
(949,98,l),
(967,146,l),
(765,79,l),
(765,2,l),
(1199,2,l),
(1199,79,l),
(1037,166,l),
(1080,98,l),
(691,1460,l),
(553,1460,l),
(156,89,l),
(203,164,l),
(41,77,l),
(41,0,l)
);
},
{
closed = 1;
nodes = (
(909,449,l),
(909,552,l),
(326,552,l),
(326,449,l)
);
}
);
width = 1240;
},
{
layerId = "C612A24F-6EED-4FC1-9F18-2B0E93FAFD61";
shapes = (
{
closed = 1;
nodes = (
(457,0,l),
(457,149,l),
(300,227,l),
(358,104,l),
(570,1033,l),
(576,1033,l),
(785,112,l),
(864,227,l),
(706,148,l),
(706,0,l),
(1196,0,l),
(1196,148,l),
(1042,221,l),
(1125,112,l),
(785,1460,l),
(475,1460,l),
(115,104,l),
(198,222,l),
(44,149,l),
(44,0,l)
);
},
{
closed = 1;
nodes = (
(877,339,l),
(877,528,l),
(356,528,l),
(356,339,l)
);
}
);
width = 1240;
},
{
layerId = "FC265EF4-F21D-45B5-9DC3-EEC98E8078A4";
shapes = (
{
closed = 1;
nodes = (
(602,0,l),
(602,77,l),
(330,144,l),
(334,89,l),
(771,1314,l),
(782,1314,l),
(1216,98,l),
(1224,146,l),
(962,79,l),
(962,0,l),
(1516,0,l),
(1516,79,l),
(1294,166,l),
(1337,98,l),
(846,1460,l),
(708,1460,l),
(213,89,l),
(260,164,l),
(38,77,l),
(38,0,l)
);
},
{
closed = 1;
nodes = (
(1106,499,l),
(1106,602,l),
(443,602,l),
(443,499,l)
);
}
);
width = 1555;
},
{
layerId = "E1CD64A1-112A-4516-A7DF-4EBEDF7D0C85";
shapes = (
{
closed = 1;
nodes = (
(585,0,l),
(585,149,l),
(357,227,l),
(415,104,l),
(732,1038,l),
(738,1038,l),
(1046,112,l),
(1122,227,l),
(904,148,l),
(904,0,l),
(1514,0,l),
(1514,148,l),
(1300,221,l),
(1383,112,l),
(943,1460,l),
(633,1460,l),
(173,104,l),
(256,222,l),
(42,149,l),
(42,0,l)
);
},
{
closed = 1;
nodes = (
(1115,389,l),
(1115,578,l),
(434,578,l),
(434,389,l)
);
}
);
width = 1555;
},
{
layerId = "2935642B-2075-4830-97B8-D7DDAAAB1EBE";
shapes = (
{
closed = 1;
nodes = (
(378,0,l),
(393,77,l),
(199,144,l),
(202,89,l),
(773,1309,l),
(784,1309,l),
(881,98,l),
(898,146,l),
(683,79,l),
(668,2,l),
(1102,2,l),
(1117,79,l),
(972,166,l),
(1002,98,l),
(878,1460,l),
(740,1460,l),
(76,89,l),
(138,164,l),
(-41,77,l),
(-56,0,l)
);
},
{
closed = 1;
nodes = (
(899,449,l),
(919,552,l),
(336,552,l),
(316,449,l)
);
}
);
width = 1240;
},
{
layerId = "3A752AAD-7068-4A08-8CFD-4D7C5CAE8856";
shapes = (
{
closed = 1;
nodes = (
(370,0,l),
(399,149,l),
(257,227,l),
(291,104,l),
(684,1033,l),
(690,1033,l),
(720,112,l),
(821,227,l),
(648,148,l),
(619,0,l),
(1091,0,l),
(1120,148,l),
(980,221,l),
(1042,112,l),
(964,1460,l),
(654,1460,l),
(30,104,l),
(136,222,l),
(-32,149,l),
(-61,0,l)
);
},
{
closed = 1;
nodes = (
(838,339,l),
(875,528,l),
(354,528,l),
(317,339,l)
);
}
);
width = 1240;
},
{
layerId = "5F491846-7617-4B03-8CE4-FAFF8D3DA710";
shapes = (
{
closed = 1;
nodes = (
(505,0,l),
(520,77,l),
(261,144,l),
(258,89,l),
(933,1314,l),
(944,1314,l),
(1142,98,l),
(1155,146,l),
(880,79,l),
(865,0,l),
(1419,0,l),
(1434,79,l),
(1229,166,l),
(1259,98,l),
(1033,1460,l),
(895,1460,l),
(133,89,l),
(195,164,l),
(-44,77,l),
(-59,0,l)
);
},
{
closed = 1;
nodes = (
(1106,499,l),
(1126,602,l),
(463,602,l),
(443,499,l)
);
}
);
width = 1555;
},
{
layerId = "6B25F7AD-67F3-407A-A333-8CA62504B4E5";
shapes = (
{
closed = 1;
nodes = (
(496,0,l),
(525,149,l),
(312,227,l),
(346,104,l),
(845,1038,l),
(851,1038,l),
(979,112,l),
(1077,227,l),
(844,148,l),
(815,0,l),
(1409,0,l),
(1438,148,l),
(1238,221,l),
(1300,112,l),
(1122,1460,l),
(812,1460,l),
(88,104,l),
(194,222,l),
(-34,149,l),
(-63,0,l)
);
},
{
closed = 1;
nodes = (
(1086,389,l),
(1122,578,l),
(441,578,l),
(405,389,l)
);
}
);
width = 1555;
}
);
unicode = 65;
},
{
glyphname = Aacute;
lastChange = "2024-05-08 18:01:49 +0000";
layers = (
{
layerId = "C612A24F-6EED-4FC1-9F18-2B0E93FAFD61";
shapes = (
{
closed = 1;
nodes = (
(457,0,l),
(457,149,l),
(300,227,l),
(358,104,l),
(570,1033,l),
(576,1033,l),
(785,112,l),
(864,227,l),
(706,148,l),
(706,0,l),
(1196,0,l),
(1196,148,l),
(1042,221,l),
(1125,112,l),
(785,1460,l),
(475,1460,l),
(115,104,l),
(198,222,l),
(44,149,l),
(44,0,l)
);
},
{
closed = 1;
nodes = (
(877,339,l),
(877,528,l),
(356,528,l),
(356,339,l)
);
},
{
closed = 1;
nodes = (
(505,1619.05,l),
(668,1877.386,l),
(1013,1877.386,l),
(744,1619.05,l)
);
}
);
width = 1240;
},
{
layerId = "FC265EF4-F21D-45B5-9DC3-EEC98E8078A4";
shapes = (
{
closed = 1;
nodes = (
(602,0,l),
(602,77,l),
(330,144,l),
(334,89,l),
(771,1314,l),
(782,1314,l),
(1216,98,l),
(1224,146,l),
(962,79,l),
(962,0,l),
(1516,0,l),
(1516,79,l),
(1294,166,l),
(1337,98,l),
(846,1460,l),
(708,1460,l),
(213,89,l),
(260,164,l),
(38,77,l),
(38,0,l)
);
},
{
closed = 1;
nodes = (
(1106,499,l),
(1106,602,l),
(443,602,l),
(443,499,l)
);
},
{
closed = 1;
nodes = (
(718,1652.076,l),
(970,1883.57,l),
(1143,1883.57,l),
(817,1652.076,l)
);
}
);
width = 1555;
},
{
layerId = "E1CD64A1-112A-4516-A7DF-4EBEDF7D0C85";
shapes = (
{
closed = 1;
nodes = (
(585,0,l),
(585,149,l),
(357,227,l),
(415,104,l),
(732,1038,l),
(738,1038,l),
(1046,112,l),
(1122,227,l),
(904,148,l),
(904,0,l),
(1514,0,l),
(1514,148,l),
(1300,221,l),
(1383,112,l),
(943,1460,l),
(633,1460,l),
(173,104,l),
(256,222,l),
(42,149,l),
(42,0,l)
);
},
{
closed = 1;
nodes = (
(1115,389,l),
(1115,578,l),
(434,578,l),
(434,389,l)
);
},
{
closed = 1;
nodes = (
(647,1619,l),
(844,1918,l),
(1229,1918,l),
(928,1619,l)
);
}
);
width = 1555;
},
{
layerId = "BEB83068-430F-4F93-8275-D4D4FE2C02C8";
shapes = (
{
closed = 1;
nodes = (
(475,0,l),
(475,77,l),
(268,144,l),
(272,89,l),
(606,1309,l),
(617,1309,l),
(949,98,l),
(967,146,l),
(765,79,l),
(765,2,l),
(1199,2,l),
(1199,79,l),
(1037,166,l),
(1080,98,l),
(691,1460,l),
(553,1460,l),
(156,89,l),
(203,164,l),
(41,77,l),
(41,0,l)
);
},
{
closed = 1;
nodes = (
(909,449,l),
(909,552,l),
(326,552,l),
(326,449,l)
);
},
{
closed = 1;
nodes = (
(566,1650.191,l),
(768,1883.236,l),
(928,1883.236,l),
(655,1650.191,l)
);
}
);
width = 1240;
},
{
layerId = "3A752AAD-7068-4A08-8CFD-4D7C5CAE8856";
shapes = (
{
closed = 1;
nodes = (
(370,0,l),
(399,149,l),
(257,227,l),
(291,104,l),
(684,1033,l),
(690,1033,l),
(720,112,l),
(821,227,l),
(648,148,l),
(619,0,l),
(1091,0,l),
(1120,148,l),
(980,221,l),
(1042,112,l),
(964,1460,l),
(654,1460,l),
(30,104,l),
(136,222,l),
(-32,149,l),
(-61,0,l)
);
},
{
closed = 1;
nodes = (
(838,339,l),
(875,528,l),
(354,528,l),
(317,339,l)
);
},
{
closed = 1;
nodes = (
(715,1619,l),
(928,1877,l),
(1273,1877,l),
(954,1619,l)
);
}
);
width = 1240;
},
{
layerId = "5F491846-7617-4B03-8CE4-FAFF8D3DA710";
shapes = (
{
closed = 1;
nodes = (
(505,0,l),
(520,77,l),
(261,144,l),
(258,89,l),
(933,1314,l),
(944,1314,l),
(1142,98,l),
(1155,146,l),
(880,79,l),
(865,0,l),
(1419,0,l),
(1434,79,l),
(1229,166,l),
(1259,98,l),
(1033,1460,l),
(895,1460,l),
(133,89,l),
(195,164,l),
(-44,77,l),
(-59,0,l)
);
},
{
closed = 1;
nodes = (
(1106,499,l),
(1126,602,l),
(463,602,l),
(443,499,l)
);
},
{
closed = 1;
nodes = (
(942,1652,l),
(1239,1884,l),
(1412,1884,l),
(1041,1652,l)
);
}
);
width = 1555;
},
{
layerId = "6B25F7AD-67F3-407A-A333-8CA62504B4E5";
shapes = (
{
closed = 1;
nodes = (
(496,0,l),
(525,149,l),
(312,227,l),
(346,104,l),
(845,1038,l),
(851,1038,l),
(979,112,l),
(1077,227,l),
(844,148,l),
(815,0,l),
(1409,0,l),
(1438,148,l),
(1238,221,l),
(1300,112,l),
(1122,1460,l),
(812,1460,l),
(88,104,l),
(194,222,l),
(-34,149,l),
(-63,0,l)
);
},
{
closed = 1;
nodes = (
(1086,389,l),
(1122,578,l),
(441,578,l),
(405,389,l)
);
},
{
closed = 1;
nodes = (
(857,1619,l),
(1112,1918,l),
(1497,1918,l),
(1138,1619,l)
);
}
);
width = 1555;
},
{
layerId = "2935642B-2075-4830-97B8-D7DDAAAB1EBE";
shapes = (
{
closed = 1;
nodes = (
(378,0,l),
(393,77,l),
(199,144,l),
(202,89,l),
(773,1309,l),
(784,1309,l),
(881,98,l),
(898,146,l),
(683,79,l),
(668,2,l),
(1102,2,l),
(1117,79,l),
(972,166,l),
(1002,98,l),
(878,1460,l),
(740,1460,l),
(76,89,l),
(138,164,l),
(-41,77,l),
(-56,0,l)
);
},
{
closed = 1;
nodes = (
(899,449,l),
(919,552,l),
(336,552,l),
(316,449,l)
);
},
{
closed = 1;
nodes = (
(790,1650,l),
(1037,1883,l),
(1197,1883,l),
(879,1650,l)
);
}
);
width = 1240;
}
);
unicode = 193;
},
{
glyphname = Abreve;
lastChange = "2024-05-08 18:01:49 +0000";
layers = (
{
layerId = "C612A24F-6EED-4FC1-9F18-2B0E93FAFD61";
shapes = (
{
closed = 1;
nodes = (
(457,0,l),
(457,149,l),
(300,227,l),
(358,104,l),
(570,1033,l),
(576,1033,l),
(785,112,l),
(864,227,l),
(706,148,l),
(706,0,l),
(1196,0,l),
(1196,148,l),
(1042,221,l),
(1125,112,l),
(785,1460,l),
(475,1460,l),
(115,104,l),
(198,222,l),
(44,149,l),
(44,0,l)
);
},
{
closed = 1;
nodes = (
(877,339,l),
(877,528,l),
(356,528,l),
(356,339,l)
);
},
{
closed = 1;
nodes = (
(866,1600,o),
(968,1696,o),
(960,1878,c),
(812,1878,l),
(812,1812,o),
(734,1765,o),
(620,1765,cs),
(506,1765,o),
(428,1812,o),
(428,1878,c),
(280,1878,l),
(272,1696,o),
(374,1600,o),
(620,1600,cs)
);
}
);
width = 1240;
},
{
layerId = "FC265EF4-F21D-45B5-9DC3-EEC98E8078A4";
shapes = (
{
closed = 1;
nodes = (
(602,0,l),
(602,77,l),
(330,144,l),
(334,89,l),
(771,1314,l),
(782,1314,l),
(1216,98,l),
(1224,146,l),
(962,79,l),
(962,0,l),
(1516,0,l),
(1516,79,l),
(1294,166,l),
(1337,98,l),
(846,1460,l),
(708,1460,l),
(213,89,l),
(260,164,l),
(38,77,l),
(38,0,l)
);
},
{
closed = 1;
nodes = (
(1106,499,l),
(1106,602,l),
(443,602,l),
(443,499,l)
);
},
{
closed = 1;
nodes = (
(984,1643,o),
(1096,1722,o),
(1094,1883,c),
(1018,1883,l),
(1018,1800,o),
(940,1741,o),
(777,1741,cs),
(613,1741,o),
(537,1800,o),
(537,1883,c),
(461,1883,l),
(459,1722,o),
(570,1643,o),
(777,1643,cs)
);
}
);
width = 1555;
},
{
layerId = "E1CD64A1-112A-4516-A7DF-4EBEDF7D0C85";
shapes = (
{
closed = 1;
nodes = (
(585,0,l),
(585,149,l),
(357,227,l),
(415,104,l),
(732,1038,l),
(738,1038,l),
(1046,112,l),
(1122,227,l),
(904,148,l),
(904,0,l),
(1514,0,l),
(1514,148,l),
(1300,221,l),
(1383,112,l),
(943,1460,l),
(633,1460,l),
(173,104,l),
(256,222,l),
(42,149,l),
(42,0,l)
);
},
{
closed = 1;
nodes = (
(1115,389,l),
(1115,578,l),
(434,578,l),
(434,389,l)
);
},
{
closed = 1;
nodes = (
(1052,1598,o),
(1197,1682,o),
(1194,1908,c),
(1046,1908,l),
(1046,1809,o),
(923,1762,o),
(779,1762,cs),
(636,1762,o),
(511,1809,o),
(511,1908,c),
(363,1908,l),
(360,1682,o),
(506,1598,o),
(779,1598,cs)
);
}
);
width = 1555;
},
{
layerId = "BEB83068-430F-4F93-8275-D4D4FE2C02C8";
shapes = (
{
closed = 1;
nodes = (
(475,0,l),
(475,77,l),
(268,144,l),
(272,89,l),
(606,1309,l),
(617,1309,l),
(949,98,l),
(967,146,l),
(765,79,l),
(765,2,l),
(1199,2,l),
(1199,79,l),
(1037,166,l),
(1080,98,l),
(691,1460,l),
(553,1460,l),
(156,89,l),
(203,164,l),
(41,77,l),
(41,0,l)
);
},
{
closed = 1;
nodes = (
(909,449,l),
(909,552,l),
(326,552,l),
(326,449,l)
);
},
{
closed = 1;
nodes = (
(795,1643,o),
(886,1743,o),
(877,1883,c),
(807,1883,l),
(807,1816,o),
(748,1742,o),
(620,1742,cs),
(492,1742,o),
(433,1816,o),
(433,1883,c),
(363,1883,l),
(354,1743,o),
(445,1643,o),
(620,1643,cs)
);
}
);
width = 1240;
},
{
layerId = "3A752AAD-7068-4A08-8CFD-4D7C5CAE8856";
shapes = (
{
closed = 1;
nodes = (
(370,0,l),
(399,149,l),
(257,227,l),
(291,104,l),
(684,1033,l),
(690,1033,l),
(720,112,l),
(821,227,l),
(648,148,l),
(619,0,l),
(1091,0,l),
(1120,148,l),
(980,221,l),
(1042,112,l),
(964,1460,l),
(654,1460,l),
(30,104,l),
(136,222,l),
(-32,149,l),
(-61,0,l)
);
},
{
closed = 1;
nodes = (
(838,339,l),
(875,528,l),
(354,528,l),
(317,339,l)
);
},
{
closed = 1;
nodes = (
(1072,1600,o),
(1193,1696,o),
(1220,1878,c),
(1072,1878,l),
(1059,1812,o),
(972,1765,o),
(858,1765,cs),
(744,1765,o),
(675,1812,o),
(688,1878,c),
(540,1878,l),
(497,1696,o),
(580,1600,o),
(826,1600,cs)
);
}
);
width = 1240;
},
{
layerId = "5F491846-7617-4B03-8CE4-FAFF8D3DA710";
shapes = (
{
closed = 1;
nodes = (
(505,0,l),
(520,77,l),
(261,144,l),
(258,89,l),
(933,1314,l),
(944,1314,l),
(1142,98,l),
(1155,146,l),
(880,79,l),
(865,0,l),
(1419,0,l),
(1434,79,l),
(1229,166,l),
(1259,98,l),
(1033,1460,l),
(895,1460,l),
(133,89,l),
(195,164,l),
(-44,77,l),
(-59,0,l)
);
},
{
closed = 1;
nodes = (
(1106,499,l),
(1126,602,l),
(463,602,l),
(443,499,l)
);
},
{
closed = 1;
nodes = (
(1206,1643,o),
(1334,1722,o),
(1363,1883,c),
(1287,1883,l),
(1271,1800,o),
(1181,1741,o),
(1018,1741,cs),
(854,1741,o),
(790,1800,o),
(806,1883,c),
(730,1883,l),
(697,1722,o),
(792,1643,o),
(999,1643,cs)
);
}
);
width = 1555;
},
{
layerId = "6B25F7AD-67F3-407A-A333-8CA62504B4E5";
shapes = (
{
closed = 1;
nodes = (
(496,0,l),
(525,149,l),
(312,227,l),
(346,104,l),
(845,1038,l),
(851,1038,l),
(979,112,l),
(1077,227,l),
(844,148,l),
(815,0,l),
(1409,0,l),
(1438,148,l),
(1238,221,l),
(1300,112,l),
(1122,1460,l),
(812,1460,l),
(88,104,l),
(194,222,l),
(-34,149,l),
(-63,0,l)
);
},
{
closed = 1;
nodes = (
(1086,389,l),
(1122,578,l),
(441,578,l),
(405,389,l)
);
},
{
closed = 1;
nodes = (
(1258,1598,o),
(1419,1682,o),
(1460,1908,c),
(1312,1908,l),
(1293,1809,o),
(1160,1762,o),
(1016,1762,cs),
(873,1762,o),
(758,1809,o),
(777,1908,c),
(629,1908,l),
(582,1682,o),
(712,1598,o),
(985,1598,cs)
);
}
);
width = 1555;
},
{
layerId = "2935642B-2075-4830-97B8-D7DDAAAB1EBE";
shapes = (
{
closed = 1;
nodes = (
(378,0,l),
(393,77,l),
(199,144,l),
(202,89,l),
(773,1309,l),
(784,1309,l),
(881,98,l),
(898,146,l),
(683,79,l),
(668,2,l),
(1102,2,l),
(1117,79,l),
(972,166,l),
(1002,98,l),
(878,1460,l),
(740,1460,l),
(76,89,l),
(138,164,l),
(-41,77,l),
(-56,0,l)
);
},
{
closed = 1;
nodes = (
(899,449,l),
(919,552,l),
(336,552,l),
(316,449,l)
);
},
{
closed = 1;
nodes = (
(1017,1643,o),
(1128,1743,o),
(1146,1883,c),
(1076,1883,l),
(1063,1816,o),
(990,1742,o),
(862,1742,cs),
(734,1742,o),
(689,1816,o),
(702,1883,c),
(632,1883,l),
(596,1743,o),
(667,1643,o),
(842,1643,cs)
);
}
);
width = 1240;
}
);
unicode = 258;
},
{
glyphname = Acircumflex;
lastChange = "2024-05-08 18:01:49 +0000";
layers = (
{
layerId = "C612A24F-6EED-4FC1-9F18-2B0E93FAFD61";
shapes = (
{
closed = 1;
nodes = (
(457,0,l),
(457,149,l),
(300,227,l),
(358,104,l),
(570,1033,l),
(576,1033,l),
(785,112,l),
(864,227,l),
(706,148,l),
(706,0,l),
(1196,0,l),
(1196,148,l),
(1042,221,l),
(1125,112,l),
(785,1460,l),
(475,1460,l),
(115,104,l),
(198,222,l),
(44,149,l),
(44,0,l)
);
},
{
closed = 1;
nodes = (
(877,339,l),
(877,528,l),
(356,528,l),
(356,339,l)
);
},
{
closed = 1;
nodes = (
(453,1620,l),
(644,1764,l),
(596,1764,l),
(787,1620,l),
(1001,1620,l),
(813,1878,l),
(427,1878,l),
(239,1620,l)
);
}
);
width = 1240;
},
{
layerId = "FC265EF4-F21D-45B5-9DC3-EEC98E8078A4";
shapes = (
{
closed = 1;
nodes = (
(602,0,l),
(602,77,l),
(330,144,l),
(334,89,l),
(771,1314,l),
(782,1314,l),
(1216,98,l),
(1224,146,l),
(962,79,l),
(962,0,l),
(1516,0,l),
(1516,79,l),
(1294,166,l),
(1337,98,l),
(846,1460,l),
(708,1460,l),
(213,89,l),
(260,164,l),
(38,77,l),
(38,0,l)
);
},
{
closed = 1;
nodes = (
(1106,499,l),
(1106,602,l),
(443,602,l),
(443,499,l)
);
},
{
closed = 1;
nodes = (
(513,1650,l),
(808,1809,l),
(746,1809,l),
(1042,1650,l),
(1149,1650,l),
(855,1883,l),
(699,1883,l),
(406,1650,l)
);
}
);
width = 1555;
},
{
layerId = "E1CD64A1-112A-4516-A7DF-4EBEDF7D0C85";
shapes = (
{
closed = 1;
nodes = (
(585,0,l),
(585,149,l),
(357,227,l),
(415,104,l),
(732,1038,l),
(738,1038,l),
(1046,112,l),
(1122,227,l),
(904,148,l),
(904,0,l),
(1514,0,l),
(1514,148,l),
(1300,221,l),
(1383,112,l),
(943,1460,l),
(633,1460,l),
(173,104,l),
(256,222,l),
(42,149,l),
(42,0,l)
);
},
{
closed = 1;
nodes = (
(1115,389,l),
(1115,578,l),
(434,578,l),
(434,389,l)
);
},
{
closed = 1;
nodes = (
(562,1620,l),
(812,1766,l),
(744,1766,l),
(995,1620,l),
(1249,1620,l),
(971,1908,l),
(585,1908,l),
(308,1620,l)
);
}
);
width = 1555;
},
{
layerId = "BEB83068-430F-4F93-8275-D4D4FE2C02C8";
shapes = (
{
closed = 1;
nodes = (
(475,0,l),
(475,77,l),
(268,144,l),
(272,89,l),
(606,1309,l),
(617,1309,l),
(949,98,l),
(967,146,l),
(765,79,l),
(765,2,l),
(1199,2,l),
(1199,79,l),
(1037,166,l),
(1080,98,l),
(691,1460,l),
(553,1460,l),
(156,89,l),
(203,164,l),
(41,77,l),
(41,0,l)
);
},
{
closed = 1;
nodes = (
(909,449,l),
(909,552,l),
(326,552,l),
(326,449,l)
);
},
{
closed = 1;
nodes = (
(409,1650,l),
(648,1814,l),
(592,1814,l),
(831,1650,l),
(922,1650,l),
(678,1883,l),
(562,1883,l),
(318,1650,l)
);
}
);
width = 1240;
},
{
layerId = "3A752AAD-7068-4A08-8CFD-4D7C5CAE8856";
shapes = (
{
closed = 1;
nodes = (
(370,0,l),
(399,149,l),
(257,227,l),
(291,104,l),
(684,1033,l),
(690,1033,l),
(720,112,l),
(821,227,l),
(648,148,l),
(619,0,l),
(1091,0,l),
(1120,148,l),
(980,221,l),
(1042,112,l),
(964,1460,l),
(654,1460,l),
(30,104,l),
(136,222,l),
(-32,149,l),
(-61,0,l)
);
},
{
closed = 1;
nodes = (
(838,339,l),
(875,528,l),
(354,528,l),
(317,339,l)
);
},
{
closed = 1;
nodes = (
(663,1620,l),
(882,1764,l),
(834,1764,l),
(997,1620,l),
(1211,1620,l),
(1073,1878,l),
(687,1878,l),
(449,1620,l)
);
}
);
width = 1240;
},
{
layerId = "5F491846-7617-4B03-8CE4-FAFF8D3DA710";
shapes = (
{
closed = 1;
nodes = (
(505,0,l),
(520,77,l),
(261,144,l),
(258,89,l),
(933,1314,l),
(944,1314,l),
(1142,98,l),
(1155,146,l),
(880,79,l),
(865,0,l),
(1419,0,l),
(1434,79,l),
(1229,166,l),
(1259,98,l),
(1033,1460,l),
(895,1460,l),
(133,89,l),
(195,164,l),
(-44,77,l),
(-59,0,l)
);
},
{
closed = 1;
nodes = (
(1106,499,l),
(1126,602,l),
(463,602,l),
(443,499,l)
);
},
{
closed = 1;
nodes = (
(737,1650,l),
(1063,1809,l),
(1001,1809,l),
(1266,1650,l),
(1373,1650,l),
(1124,1883,l),
(968,1883,l),
(630,1650,l)
);
}
);
width = 1555;
},
{
layerId = "6B25F7AD-67F3-407A-A333-8CA62504B4E5";
shapes = (
{
closed = 1;
nodes = (
(496,0,l),
(525,149,l),
(312,227,l),
(346,104,l),
(845,1038,l),
(851,1038,l),
(979,112,l),
(1077,227,l),
(844,148,l),
(815,0,l),
(1409,0,l),
(1438,148,l),
(1238,221,l),
(1300,112,l),
(1122,1460,l),
(812,1460,l),
(88,104,l),
(194,222,l),
(-34,149,l),
(-63,0,l)
);
},
{
closed = 1;
nodes = (
(1086,389,l),
(1122,578,l),
(441,578,l),
(405,389,l)
);
},
{
closed = 1;
nodes = (
(772,1620,l),
(1050,1766,l),
(982,1766,l),
(1205,1620,l),
(1459,1620,l),
(1237,1908,l),
(851,1908,l),
(518,1620,l)
);
}
);
width = 1555;
},
{
layerId = "2935642B-2075-4830-97B8-D7DDAAAB1EBE";
shapes = (
{
closed = 1;
nodes = (
(378,0,l),
(393,77,l),
(199,144,l),
(202,89,l),
(773,1309,l),
(784,1309,l),
(881,98,l),
(898,146,l),
(683,79,l),
(668,2,l),
(1102,2,l),
(1117,79,l),
(972,166,l),
(1002,98,l),
(878,1460,l),
(740,1460,l),
(76,89,l),
(138,164,l),
(-41,77,l),
(-56,0,l)
);
},
{
closed = 1;
nodes = (
(899,449,l),
(919,552,l),
(336,552,l),
(316,449,l)
);
},
{
closed = 1;
nodes = (
(633,1650,l),
(904,1814,l),
(848,1814,l),
(1055,1650,l),
(1146,1650,l),
(947,1883,l),
(831,1883,l),
(542,1650,l)
);
}
);
width = 1240;
}
);
unicode = 194;
},
{
glyphname = Adieresis;
lastChange = "2024-05-08 18:01:49 +0000";
layers = (
{
layerId = "C612A24F-6EED-4FC1-9F18-2B0E93FAFD61";
shapes = (
{
closed = 1;
nodes = (
(457,0,l),
(457,149,l),
(300,227,l),
(358,104,l),
(570,1033,l),
(576,1033,l),
(785,112,l),
(864,227,l),
(706,148,l),
(706,0,l),
(1196,0,l),
(1196,148,l),
(1042,221,l),
(1125,112,l),
(785,1460,l),
(475,1460,l),
(115,104,l),
(198,222,l),
(44,149,l),
(44,0,l)
);
},
{
closed = 1;
nodes = (
(877,339,l),
(877,528,l),
(356,528,l),
(356,339,l)
);
},
{
closed = 1;
nodes = (
(436.112,1618.8,o),
(501.184,1678.8,o),
(501.184,1771.6,cs),
(501.184,1864.4,o),
(436.112,1922,o),
(339.68,1922,cs),
(243.248,1922,o),
(178.176,1864.4,o),
(178.176,1771.6,cs),
(178.176,1678.8,o),
(243.248,1618.8,o),
(339.68,1618.8,cs)
);
},
{
closed = 1;
nodes = (
(997.112,1618.8,o),
(1062.184,1678.8,o),
(1062.184,1771.6,cs),
(1062.184,1864.4,o),
(997.112,1922,o),
(900.68,1922,cs),
(804.248,1922,o),
(739.176,1864.4,o),
(739.176,1771.6,cs),
(739.176,1678.8,o),
(804.248,1618.8,o),
(900.68,1618.8,cs)
);
}
);
width = 1240;
},
{
layerId = "FC265EF4-F21D-45B5-9DC3-EEC98E8078A4";
shapes = (
{
closed = 1;
nodes = (
(602,0,l),
(602,77,l),
(330,144,l),
(334,89,l),
(771,1314,l),
(782,1314,l),
(1216,98,l),
(1224,146,l),
(962,79,l),
(962,0,l),
(1516,0,l),
(1516,79,l),
(1294,166,l),
(1337,98,l),
(846,1460,l),
(708,1460,l),
(213,89,l),
(260,164,l),
(38,77,l),
(38,0,l)
);
},
{
closed = 1;
nodes = (
(1106,499,l),
(1106,602,l),
(443,602,l),
(443,499,l)
);
},
{
closed = 1;
nodes = (
(534,1663,o),
(578,1699,o),
(578,1761,cs),
(578,1823,o),
(534,1859,o),
(472,1859,cs),
(410,1859,o),
(366,1823,o),
(366,1761,cs),
(366,1699,o),
(410,1663,o),
(472,1663,cs)
);
},
{
closed = 1;
nodes = (
(1146,1663,o),
(1190,1699,o),
(1190,1761,cs),
(1190,1823,o),
(1146,1859,o),
(1084,1859,cs),
(1022,1859,o),
(978,1823,o),
(978,1761,cs),
(978,1699,o),
(1022,1663,o),
(1084,1663,cs)
);
}
);
width = 1555;
},
{
layerId = "E1CD64A1-112A-4516-A7DF-4EBEDF7D0C85";
shapes = (
{
closed = 1;
nodes = (
(585,0,l),
(585,149,l),
(357,227,l),
(415,104,l),
(732,1038,l),
(738,1038,l),
(1046,112,l),
(1122,227,l),
(904,148,l),
(904,0,l),
(1514,0,l),
(1514,148,l),
(1300,221,l),
(1383,112,l),
(943,1460,l),
(633,1460,l),
(173,104,l),
(256,222,l),
(42,149,l),
(42,0,l)
);
},
{
closed = 1;
nodes = (
(1115,389,l),
(1115,578,l),
(434,578,l),
(434,389,l)
);
},
{
closed = 1;
nodes = (
(543,1645,o),
(608,1705,o),
(608,1798,cs),
(608,1890,o),
(543,1948,o),
(447,1948,cs),
(350,1948,o),
(285,1890,o),
(285,1798,cs),
(285,1705,o),
(350,1645,o),
(447,1645,cs)
);
},
{
closed = 1;
nodes = (
(1216,1645,o),
(1281,1705,o),
(1281,1798,cs),
(1281,1890,o),
(1216,1948,o),
(1120,1948,cs),
(1023,1948,o),
(958,1890,o),
(958,1798,cs),
(958,1705,o),
(1023,1645,o),
(1120,1645,cs)
);
}
);
width = 1555;
},
{
layerId = "BEB83068-430F-4F93-8275-D4D4FE2C02C8";
shapes = (
{
closed = 1;
nodes = (
(475,0,l),
(475,77,l),
(268,144,l),
(272,89,l),
(606,1309,l),
(617,1309,l),
(949,98,l),
(967,146,l),
(765,79,l),
(765,2,l),
(1199,2,l),
(1199,79,l),
(1037,166,l),
(1080,98,l),
(691,1460,l),
(553,1460,l),
(156,89,l),
(203,164,l),
(41,77,l),
(41,0,l)
);
},
{
closed = 1;
nodes = (
(909,449,l),
(909,552,l),
(326,552,l),
(326,449,l)
);
},
{
closed = 1;
nodes = (
(434.36,1663,o),
(477.48,1699,o),
(477.48,1761,cs),
(477.48,1823,o),
(434.36,1859,o),
(373.6,1859,cs),
(312.84,1859,o),
(269.72,1823,o),
(269.72,1761,cs),
(269.72,1699,o),
(312.84,1663,o),
(373.6,1663,cs)
);
},
{
closed = 1;
nodes = (
(927.36,1663,o),
(970.48,1699,o),
(970.48,1761,cs),
(970.48,1823,o),
(927.36,1859,o),
(866.6,1859,cs),
(805.84,1859,o),
(762.72,1823,o),
(762.72,1761,cs),
(762.72,1699,o),
(805.84,1663,o),
(866.6,1663,cs)
);
}
);
width = 1240;
},
{
layerId = "3A752AAD-7068-4A08-8CFD-4D7C5CAE8856";
shapes = (
{
closed = 1;
nodes = (
(370,0,l),
(399,149,l),
(257,227,l),
(291,104,l),
(684,1033,l),
(690,1033,l),
(720,112,l),
(821,227,l),
(648,148,l),
(619,0,l),
(1091,0,l),
(1120,148,l),
(980,221,l),
(1042,112,l),
(964,1460,l),
(654,1460,l),
(30,104,l),
(136,222,l),
(-32,149,l),
(-61,0,l)
);
},
{
closed = 1;
nodes = (
(838,339,l),
(875,528,l),
(354,528,l),
(317,339,l)
);
},
{
closed = 1;
nodes = (
(646,1619,o),
(723,1679,o),
(741,1772,cs),
(759,1864,o),
(705,1922,o),
(608,1922,cs),
(512,1922,o),
(436,1864,o),
(418,1772,cs),
(400,1679,o),
(453,1619,o),
(549,1619,cs)
);
},
{
closed = 1;
nodes = (
(1207,1619,o),
(1284,1679,o),
(1302,1772,cs),
(1320,1864,o),
(1266,1922,o),
(1169,1922,cs),
(1073,1922,o),
(997,1864,o),
(979,1772,cs),
(961,1679,o),
(1014,1619,o),
(1110,1619,cs)
);
}
);
width = 1240;
},
{
layerId = "5F491846-7617-4B03-8CE4-FAFF8D3DA710";
shapes = (
{
closed = 1;
nodes = (
(505,0,l),
(520,77,l),
(261,144,l),
(258,89,l),
(933,1314,l),
(944,1314,l),
(1142,98,l),
(1155,146,l),
(880,79,l),
(865,0,l),
(1419,0,l),
(1434,79,l),
(1229,166,l),
(1259,98,l),
(1033,1460,l),
(895,1460,l),
(133,89,l),
(195,164,l),
(-44,77,l),
(-59,0,l)
);
},
{
closed = 1;
nodes = (
(1106,499,l),
(1126,602,l),
(463,602,l),
(443,499,l)
);
},
{
closed = 1;
nodes = (
(760,1663,o),
(811,1699,o),
(823,1761,cs),
(835,1823,o),
(798,1859,o),
(736,1859,cs),
(674,1859,o),
(623,1823,o),
(611,1761,cs),
(599,1699,o),
(636,1663,o),
(698,1663,cs)
);
},
{
closed = 1;
nodes = (
(1372,1663,o),
(1423,1699,o),
(1435,1761,cs),
(1447,1823,o),
(1410,1859,o),
(1348,1859,cs),
(1286,1859,o),
(1235,1823,o),
(1223,1761,cs),
(1211,1699,o),
(1248,1663,o),
(1310,1663,cs)
);
}
);
width = 1555;
},
{
layerId = "6B25F7AD-67F3-407A-A333-8CA62504B4E5";
shapes = (
{
closed = 1;
nodes = (
(496,0,l),
(525,149,l),
(312,227,l),
(346,104,l),
(845,1038,l),
(851,1038,l),
(979,112,l),
(1077,227,l),
(844,148,l),
(815,0,l),
(1409,0,l),
(1438,148,l),
(1238,221,l),
(1300,112,l),
(1122,1460,l),
(812,1460,l),
(88,104,l),
(194,222,l),
(-34,149,l),
(-63,0,l)
);
},
{
closed = 1;
nodes = (
(1086,389,l),
(1122,578,l),
(441,578,l),
(405,389,l)
);
},
{
closed = 1;
nodes = (
(758,1645,o),
(835,1705,o),
(853,1798,cs),
(871,1890,o),
(817,1948,o),
(721,1948,cs),
(624,1948,o),
(548,1890,o),
(530,1798,cs),
(512,1705,o),
(565,1645,o),
(662,1645,cs)
);
},
{
closed = 1;
nodes = (
(1431,1645,o),
(1508,1705,o),
(1526,1798,cs),
(1544,1890,o),
(1490,1948,o),
(1394,1948,cs),
(1297,1948,o),
(1221,1890,o),
(1203,1798,cs),
(1185,1705,o),
(1238,1645,o),
(1335,1645,cs)
);
}
);
width = 1555;
},
{
layerId = "2935642B-2075-4830-97B8-D7DDAAAB1EBE";
shapes = (
{
closed = 1;
nodes = (
(378,0,l),
(393,77,l),
(199,144,l),
(202,89,l),
(773,1309,l),
(784,1309,l),
(881,98,l),
(898,146,l),
(683,79,l),
(668,2,l),
(1102,2,l),
(1117,79,l),
(972,166,l),
(1002,98,l),
(878,1460,l),
(740,1460,l),
(76,89,l),
(138,164,l),
(-41,77,l),
(-56,0,l)
);
},
{
closed = 1;
nodes = (
(899,449,l),
(919,552,l),
(336,552,l),
(316,449,l)
);
},
{
closed = 1;
nodes = (
(661,1663,o),
(711,1699,o),
(723,1761,cs),
(735,1823,o),
(699,1859,o),
(638,1859,cs),
(577,1859,o),
(527,1823,o),
(515,1761,cs),
(503,1699,o),
(539,1663,o),
(600,1663,cs)
);
},
{
closed = 1;
nodes = (
(1154,1663,o),
(1204,1699,o),
(1216,1761,cs),
(1228,1823,o),
(1192,1859,o),
(1131,1859,cs),
(1070,1859,o),
(1020,1823,o),
(1008,1761,cs),
(996,1699,o),
(1032,1663,o),
(1093,1663,cs)
);
}
);
width = 1240;
}
);
unicode = 196;
},
{
glyphname = Adotbelow;
lastChange = "2024-05-08 18:01:49 +0000";
layers = (
{
layerId = "C612A24F-6EED-4FC1-9F18-2B0E93FAFD61";
shapes = (
{
closed = 1;
nodes = (
(457,0,l),
(457,149,l),
(300,227,l),
(358,104,l),
(570,1033,l),
(576,1033,l),
(785,112,l),
(864,227,l),
(706,148,l),
(706,0,l),
(1196,0,l),
(1196,148,l),
(1042,221,l),
(1125,112,l),
(785,1460,l),
(475,1460,l),
(115,104,l),
(198,222,l),
(44,149,l),
(44,0,l)
);
},
{
closed = 1;
nodes = (
(877,339,l),
(877,528,l),
(356,528,l),
(356,339,l)
);
},
{
closed = 1;
nodes = (
(743,-528,o),
(826,-453,o),
(826,-337,cs),
(826,-221,o),
(743,-149,o),
(620,-149,cs),
(497,-149,o),
(414,-221,o),
(414,-337,cs),
(414,-453,o),
(497,-528,o),
(620,-528,cs)
);
}
);
width = 1240;
},
{
layerId = "FC265EF4-F21D-45B5-9DC3-EEC98E8078A4";
shapes = (
{
closed = 1;
nodes = (
(602,0,l),
(602,77,l),
(330,144,l),
(334,89,l),
(771,1314,l),
(782,1314,l),
(1216,98,l),
(1224,146,l),
(962,79,l),
(962,0,l),
(1516,0,l),
(1516,79,l),
(1294,166,l),
(1337,98,l),
(846,1460,l),
(708,1460,l),
(213,89,l),
(260,164,l),
(38,77,l),
(38,0,l)
);
},
{
closed = 1;
nodes = (
(1106,499,l),
(1106,602,l),
(443,602,l),
(443,499,l)
);
},
{
closed = 1;
nodes = (
(840,-509,o),
(884,-473,o),
(884,-411,cs),
(884,-349,o),
(840,-313,o),
(778,-313,cs),
(716,-313,o),
(672,-349,o),
(672,-411,cs),
(672,-473,o),
(716,-509,o),
(778,-509,cs)
);
}
);
width = 1555;
},
{
layerId = "E1CD64A1-112A-4516-A7DF-4EBEDF7D0C85";
shapes = (
{
closed = 1;
nodes = (
(585,0,l),
(585,149,l),
(357,227,l),
(415,104,l),
(732,1038,l),
(738,1038,l),
(1046,112,l),
(1122,227,l),
(904,148,l),
(904,0,l),
(1514,0,l),
(1514,148,l),
(1300,221,l),
(1383,112,l),
(943,1460,l),
(633,1460,l),
(173,104,l),
(256,222,l),
(42,149,l),
(42,0,l)
);
},
{
closed = 1;
nodes = (
(1115,389,l),
(1115,578,l),
(434,578,l),
(434,389,l)
);
},
{
closed = 1;
nodes = (
(902,-508,o),
(985,-433,o),
(985,-317,cs),
(985,-201,o),
(902,-129,o),
(779,-129,cs),
(656,-129,o),
(573,-201,o),
(573,-317,cs),
(573,-433,o),
(656,-508,o),
(779,-508,cs)
);
}
);
width = 1555;
},
{
layerId = "BEB83068-430F-4F93-8275-D4D4FE2C02C8";
shapes = (
{
closed = 1;
nodes = (
(475,0,l),
(475,77,l),
(268,144,l),
(272,89,l),
(606,1309,l),
(617,1309,l),
(949,98,l),
(967,146,l),
(765,79,l),
(765,2,l),
(1199,2,l),
(1199,79,l),
(1037,166,l),
(1080,98,l),
(691,1460,l),
(553,1460,l),
(156,89,l),
(203,164,l),
(41,77,l),
(41,0,l)
);
},
{
closed = 1;
nodes = (
(909,449,l),
(909,552,l),
(326,552,l),
(326,449,l)
);
},
{
closed = 1;
nodes = (
(682,-509,o),
(726,-473,o),
(726,-411,cs),
(726,-349,o),
(682,-313,o),
(620,-313,cs),
(558,-313,o),
(514,-349,o),
(514,-411,cs),
(514,-473,o),
(558,-509,o),
(620,-509,cs)
);
}
);
width = 1240;
},
{
layerId = "3A752AAD-7068-4A08-8CFD-4D7C5CAE8856";
shapes = (
{
closed = 1;
nodes = (
(370,0,l),
(399,149,l),
(257,227,l),
(291,104,l),
(684,1033,l),
(690,1033,l),
(720,112,l),
(821,227,l),
(648,148,l),
(619,0,l),
(1091,0,l),
(1120,148,l),
(980,221,l),
(1042,112,l),
(964,1460,l),
(654,1460,l),
(30,104,l),
(136,222,l),
(-32,149,l),
(-61,0,l)
);
},
{
closed = 1;
nodes = (
(838,339,l),
(875,528,l),
(354,528,l),
(317,339,l)
);
},
{
closed = 1;
nodes = (
(535,-528,o),
(633,-453,o),
(655,-337,cs),
(678,-221,o),
(609,-149,o),
(486,-149,cs),
(363,-149,o),
(266,-221,o),
(243,-337,cs),
(221,-453,o),
(289,-528,o),
(412,-528,cs)
);
}
);
width = 1240;
},
{
layerId = "5F491846-7617-4B03-8CE4-FAFF8D3DA710";
shapes = (
{
closed = 1;
nodes = (
(505,0,l),
(520,77,l),
(261,144,l),
(258,89,l),
(933,1314,l),
(944,1314,l),
(1142,98,l),
(1155,146,l),
(880,79,l),
(865,0,l),
(1419,0,l),
(1434,79,l),
(1229,166,l),
(1259,98,l),
(1033,1460,l),
(895,1460,l),
(133,89,l),
(195,164,l),
(-44,77,l),
(-59,0,l)
);
},
{
closed = 1;
nodes = (
(1106,499,l),
(1126,602,l),
(463,602,l),
(443,499,l)
);
},
{
closed = 1;
nodes = (
(644,-509,o),
(695,-473,o),
(707,-411,cs),
(719,-349,o),
(682,-313,o),
(620,-313,cs),
(558,-313,o),
(507,-349,o),
(495,-411,cs),
(483,-473,o),
(520,-509,o),
(582,-509,cs)
);
}
);
width = 1555;
},
{
layerId = "6B25F7AD-67F3-407A-A333-8CA62504B4E5";
shapes = (
{
closed = 1;
nodes = (
(496,0,l),
(525,149,l),
(312,227,l),
(346,104,l),
(845,1038,l),
(851,1038,l),
(979,112,l),
(1077,227,l),
(844,148,l),
(815,0,l),
(1409,0,l),
(1438,148,l),
(1238,221,l),
(1300,112,l),
(1122,1460,l),
(812,1460,l),
(88,104,l),
(194,222,l),
(-34,149,l),
(-63,0,l)
);
},
{
closed = 1;
nodes = (
(1086,389,l),
(1122,578,l),
(441,578,l),
(405,389,l)
);
},
{
closed = 1;
nodes = (
(698,-508,o),
(796,-433,o),
(818,-317,cs),
(841,-201,o),
(772,-129,o),
(649,-129,cs),
(526,-129,o),
(429,-201,o),
(406,-317,cs),
(384,-433,o),
(452,-508,o),
(575,-508,cs)
);
}
);
width = 1555;
},
{
layerId = "2935642B-2075-4830-97B8-D7DDAAAB1EBE";
shapes = (
{
closed = 1;
nodes = (
(378,0,l),
(393,77,l),
(199,144,l),
(202,89,l),
(773,1309,l),
(784,1309,l),
(881,98,l),
(898,146,l),
(683,79,l),
(668,2,l),
(1102,2,l),
(1117,79,l),
(972,166,l),
(1002,98,l),
(878,1460,l),
(740,1460,l),
(76,89,l),
(138,164,l),
(-41,77,l),
(-56,0,l)
);
},
{
closed = 1;
nodes = (
(899,449,l),
(919,552,l),
(336,552,l),
(316,449,l)
);
},
{
closed = 1;
nodes = (
(486,-509,o),
(537,-473,o),
(549,-411,cs),
(561,-349,o),
(524,-313,o),
(462,-313,cs),
(400,-313,o),
(349,-349,o),
(337,-411,cs),
(325,-473,o),
(362,-509,o),
(424,-509,cs)
);
}
);
width = 1240;
}
);
unicode = 7840;
},
{
glyphname = Agrave;
lastChange = "2024-05-08 18:01:49 +0000";
layers = (
{
layerId = "C612A24F-6EED-4FC1-9F18-2B0E93FAFD61";
shapes = (
{
closed = 1;
nodes = (
(457,0,l),
(457,149,l),
(300,227,l),
(358,104,l),
(570,1033,l),
(576,1033,l),
(785,112,l),
(864,227,l),
(706,148,l),
(706,0,l),
(1196,0,l),
(1196,148,l),
(1042,221,l),
(1125,112,l),
(785,1460,l),
(475,1460,l),
(115,104,l),
(198,222,l),
(44,149,l),
(44,0,l)
);
},
{
closed = 1;
nodes = (
(877,339,l),
(877,528,l),
(356,528,l),
(356,339,l)
);
},
{
closed = 1;
nodes = (
(735,1619.05,l),
(572,1877.386,l),
(227,1877.386,l),
(496,1619.05,l)
);
}
);
width = 1240;
},
{
layerId = "FC265EF4-F21D-45B5-9DC3-EEC98E8078A4";
shapes = (
{
closed = 1;
nodes = (
(602,0,l),
(602,77,l),
(330,144,l),
(334,89,l),
(771,1314,l),
(782,1314,l),
(1216,98,l),
(1224,146,l),
(962,79,l),
(962,0,l),
(1516,0,l),
(1516,79,l),
(1294,166,l),
(1337,98,l),
(846,1460,l),
(708,1460,l),
(213,89,l),
(260,164,l),
(38,77,l),
(38,0,l)
);
},
{
closed = 1;
nodes = (
(1106,499,l),
(1106,602,l),
(443,602,l),
(443,499,l)
);
},
{
closed = 1;
nodes = (
(837,1652.076,l),
(585,1883.57,l),
(412,1883.57,l),
(738,1652.076,l)
);
}
);
width = 1555;
},
{
layerId = "E1CD64A1-112A-4516-A7DF-4EBEDF7D0C85";
shapes = (
{
closed = 1;
nodes = (
(585,0,l),
(585,149,l),
(357,227,l),
(415,104,l),
(732,1038,l),
(738,1038,l),
(1046,112,l),
(1122,227,l),
(904,148,l),
(904,0,l),
(1514,0,l),
(1514,148,l),
(1300,221,l),
(1383,112,l),
(943,1460,l),
(633,1460,l),
(173,104,l),
(256,222,l),
(42,149,l),
(42,0,l)
);
},
{
closed = 1;
nodes = (
(1115,389,l),
(1115,578,l),
(434,578,l),
(434,389,l)
);
},
{
closed = 1;
nodes = (
(910,1619,l),
(713,1918,l),
(328,1918,l),
(629,1619,l)
);
}
);
width = 1555;
},
{
layerId = "BEB83068-430F-4F93-8275-D4D4FE2C02C8";
shapes = (
{
closed = 1;
nodes = (
(475,0,l),
(475,77,l),
(268,144,l),
(272,89,l),
(606,1309,l),
(617,1309,l),
(949,98,l),
(967,146,l),
(765,79,l),
(765,2,l),
(1199,2,l),
(1199,79,l),
(1037,166,l),
(1080,98,l),
(691,1460,l),
(553,1460,l),
(156,89,l),
(203,164,l),
(41,77,l),
(41,0,l)
);
},
{
closed = 1;
nodes = (
(909,449,l),
(909,552,l),
(326,552,l),
(326,449,l)
);
},
{
closed = 1;
nodes = (
(674,1650.191,l),
(472,1883.236,l),
(312,1883.236,l),
(585,1650.191,l)
);
}
);
width = 1240;
},
{
layerId = "3A752AAD-7068-4A08-8CFD-4D7C5CAE8856";
shapes = (
{
closed = 1;
nodes = (
(370,0,l),
(399,149,l),
(257,227,l),
(291,104,l),
(684,1033,l),
(690,1033,l),
(720,112,l),
(821,227,l),
(648,148,l),
(619,0,l),
(1091,0,l),
(1120,148,l),
(980,221,l),
(1042,112,l),
(964,1460,l),
(654,1460,l),
(30,104,l),
(136,222,l),
(-32,149,l),
(-61,0,l)
);
},
{
closed = 1;
nodes = (
(838,339,l),
(875,528,l),
(354,528,l),
(317,339,l)
);
},
{
closed = 1;
nodes = (
(945,1619,l),
(832,1877,l),
(487,1877,l),
(706,1619,l)
);
}
);
width = 1240;
},
{
layerId = "5F491846-7617-4B03-8CE4-FAFF8D3DA710";
shapes = (
{
closed = 1;
nodes = (
(505,0,l),
(520,77,l),
(261,144,l),
(258,89,l),
(933,1314,l),
(944,1314,l),
(1142,98,l),
(1155,146,l),
(880,79,l),
(865,0,l),
(1419,0,l),
(1434,79,l),
(1229,166,l),
(1259,98,l),
(1033,1460,l),
(895,1460,l),
(133,89,l),
(195,164,l),
(-44,77,l),
(-59,0,l)
);
},
{
closed = 1;
nodes = (
(1106,499,l),
(1126,602,l),
(463,602,l),
(443,499,l)
);
},
{
closed = 1;
nodes = (
(1061,1652,l),
(854,1884,l),
(681,1884,l),
(962,1652,l)
);
}
);
width = 1555;
},
{
layerId = "6B25F7AD-67F3-407A-A333-8CA62504B4E5";
shapes = (
{
closed = 1;
nodes = (
(496,0,l),
(525,149,l),
(312,227,l),
(346,104,l),
(845,1038,l),
(851,1038,l),
(979,112,l),
(1077,227,l),
(844,148,l),
(815,0,l),
(1409,0,l),
(1438,148,l),
(1238,221,l),
(1300,112,l),
(1122,1460,l),
(812,1460,l),
(88,104,l),
(194,222,l),
(-34,149,l),
(-63,0,l)
);
},
{
closed = 1;
nodes = (
(1086,389,l),
(1122,578,l),
(441,578,l),
(405,389,l)
);
},
{
closed = 1;
nodes = (
(1120,1619,l),
(981,1918,l),
(596,1918,l),
(839,1619,l)
);
}
);
width = 1555;
},
{
layerId = "2935642B-2075-4830-97B8-D7DDAAAB1EBE";
shapes = (
{
closed = 1;
nodes = (
(378,0,l),
(393,77,l),
(199,144,l),
(202,89,l),
(773,1309,l),
(784,1309,l),
(881,98,l),
(898,146,l),
(683,79,l),
(668,2,l),
(1102,2,l),
(1117,79,l),
(972,166,l),
(1002,98,l),
(878,1460,l),
(740,1460,l),
(76,89,l),
(138,164,l),
(-41,77,l),
(-56,0,l)
);
},
{
closed = 1;
nodes = (
(899,449,l),
(919,552,l),
(336,552,l),
(316,449,l)
);
},
{
closed = 1;
nodes = (
(898,1650,l),
(741,1883,l),
(581,1883,l),
(809,1650,l)
);
}
);
width = 1240;
}
);
unicode = 192;
},
{
glyphname = Amacron;
lastChange = "2024-05-08 18:01:49 +0000";
layers = (
{
layerId = "C612A24F-6EED-4FC1-9F18-2B0E93FAFD61";
shapes = (
{
closed = 1;
nodes = (
(457,0,l),
(457,149,l),
(300,227,l),
(358,104,l),
(570,1033,l),
(576,1033,l),
(785,112,l),
(864,227,l),
(706,148,l),
(706,0,l),
(1196,0,l),
(1196,148,l),
(1042,221,l),
(1125,112,l),
(785,1460,l),
(475,1460,l),
(115,104,l),
(198,222,l),
(44,149,l),
(44,0,l)
);
},
{
closed = 1;
nodes = (
(877,339,l),
(877,528,l),
(356,528,l),
(356,339,l)
);
},
{
closed = 1;
nodes = (
(969,1691,l),
(969,1884,l),
(271,1884,l),
(271,1691,l)
);
}
);
width = 1240;
},
{
layerId = "FC265EF4-F21D-45B5-9DC3-EEC98E8078A4";
shapes = (
{
closed = 1;
nodes = (
(602,0,l),
(602,77,l),
(330,144,l),
(334,89,l),
(771,1314,l),
(782,1314,l),
(1216,98,l),
(1224,146,l),
(962,79,l),
(962,0,l),
(1516,0,l),
(1516,79,l),
(1294,166,l),
(1337,98,l),
(846,1460,l),
(708,1460,l),
(213,89,l),
(260,164,l),
(38,77,l),
(38,0,l)
);
},
{
closed = 1;
nodes = (
(1106,499,l),
(1106,602,l),
(443,602,l),
(443,499,l)
);
},
{
closed = 1;
nodes = (
(1192,1731,l),
(1192,1831,l),
(363,1831,l),
(363,1731,l)
);
}
);
width = 1555;
},
{
layerId = "E1CD64A1-112A-4516-A7DF-4EBEDF7D0C85";
shapes = (
{
closed = 1;
nodes = (
(585,0,l),
(585,149,l),
(357,227,l),
(415,104,l),
(732,1038,l),
(738,1038,l),
(1046,112,l),
(1122,227,l),
(904,148,l),
(904,0,l),
(1514,0,l),
(1514,148,l),
(1300,221,l),
(1383,112,l),
(943,1460,l),
(633,1460,l),
(173,104,l),
(256,222,l),
(42,149,l),
(42,0,l)
);
},
{
closed = 1;
nodes = (
(1115,389,l),
(1115,578,l),
(434,578,l),
(434,389,l)
);
},
{
closed = 1;
nodes = (
(1209,1691,l),
(1209,1884,l),
(348,1884,l),
(348,1691,l)
);
}
);
width = 1555;
},
{
layerId = "BEB83068-430F-4F93-8275-D4D4FE2C02C8";
shapes = (
{
closed = 1;
nodes = (
(475,0,l),
(475,77,l),
(268,144,l),
(272,89,l),
(606,1309,l),
(617,1309,l),
(949,98,l),
(967,146,l),
(765,79,l),
(765,2,l),
(1199,2,l),
(1199,79,l),
(1037,166,l),
(1080,98,l),
(691,1460,l),
(553,1460,l),
(156,89,l),
(203,164,l),
(41,77,l),
(41,0,l)
);
},
{
closed = 1;
nodes = (
(909,449,l),
(909,552,l),
(326,552,l),
(326,449,l)
);
},
{
closed = 1;
nodes = (
(927,1731,l),
(927,1831,l),
(313,1831,l),
(313,1731,l)
);
}
);
width = 1240;
},
{
layerId = "3A752AAD-7068-4A08-8CFD-4D7C5CAE8856";
shapes = (
{
closed = 1;
nodes = (
(370,0,l),
(399,149,l),
(257,227,l),
(291,104,l),
(684,1033,l),
(690,1033,l),
(720,112,l),
(821,227,l),
(648,148,l),
(619,0,l),
(1091,0,l),
(1120,148,l),
(980,221,l),
(1042,112,l),
(964,1460,l),
(654,1460,l),
(30,104,l),
(136,222,l),
(-32,149,l),
(-61,0,l)
);
},
{
closed = 1;
nodes = (
(838,339,l),
(875,528,l),
(354,528,l),
(317,339,l)
);
},
{
closed = 1;
nodes = (
(1193,1691,l),
(1230,1884,l),
(532,1884,l),
(495,1691,l)
);
}
);
width = 1240;
},
{
layerId = "5F491846-7617-4B03-8CE4-FAFF8D3DA710";
shapes = (
{
closed = 1;
nodes = (
(505,0,l),
(520,77,l),
(261,144,l),
(258,89,l),
(933,1314,l),
(944,1314,l),
(1142,98,l),
(1155,146,l),
(880,79,l),
(865,0,l),
(1419,0,l),
(1434,79,l),
(1229,166,l),
(1259,98,l),
(1033,1460,l),
(895,1460,l),
(133,89,l),
(195,164,l),
(-44,77,l),
(-59,0,l)
);
},
{
closed = 1;
nodes = (
(1106,499,l),
(1126,602,l),
(463,602,l),
(443,499,l)
);
},
{
closed = 1;
nodes = (
(1431,1731,l),
(1451,1831,l),
(622,1831,l),
(602,1731,l)
);
}
);
width = 1555;
},
{
layerId = "6B25F7AD-67F3-407A-A333-8CA62504B4E5";
shapes = (
{
closed = 1;
nodes = (
(496,0,l),
(525,149,l),
(312,227,l),
(346,104,l),
(845,1038,l),
(851,1038,l),
(979,112,l),
(1077,227,l),
(844,148,l),
(815,0,l),
(1409,0,l),
(1438,148,l),
(1238,221,l),
(1300,112,l),
(1122,1460,l),
(812,1460,l),
(88,104,l),
(194,222,l),
(-34,149,l),
(-63,0,l)
);
},
{
closed = 1;
nodes = (
(1086,389,l),
(1122,578,l),
(441,578,l),
(405,389,l)
);
},
{
closed = 1;
nodes = (
(1433,1691,l),
(1470,1884,l),
(609,1884,l),
(572,1691,l)
);
}
);
width = 1555;
},
{
layerId = "2935642B-2075-4830-97B8-D7DDAAAB1EBE";
shapes = (
{
closed = 1;
nodes = (
(378,0,l),
(393,77,l),
(199,144,l),
(202,89,l),
(773,1309,l),
(784,1309,l),
(881,98,l),
(898,146,l),
(683,79,l),
(668,2,l),
(1102,2,l),
(1117,79,l),
(972,166,l),
(1002,98,l),
(878,1460,l),
(740,1460,l),
(76,89,l),
(138,164,l),
(-41,77,l),
(-56,0,l)
);
},
{
closed = 1;
nodes = (
(899,449,l),
(919,552,l),
(336,552,l),
(316,449,l)
);
},
{
closed = 1;
nodes = (
(1166,1731,l),
(1186,1831,l),
(572,1831,l),
(552,1731,l)
);
}
);
width = 1240;
}
);
unicode = 256;
},
{
glyphname = Aogonek;
lastChange = "2024-05-08 18:01:49 +0000";
layers = (
{
layerId = "C612A24F-6EED-4FC1-9F18-2B0E93FAFD61";
shapes = (
{
closed = 1;
nodes = (
(457,0,l),
(457,149,l),
(300,227,l),
(358,104,l),
(570,1033,l),
(576,1033,l),
(785,112,l),
(864,227,l),
(706,148,l),
(706,0,l),
(1196,0,l),
(1196,148,l),
(1042,221,l),
(1125,112,l),
(785,1460,l),
(475,1460,l),
(115,104,l),
(198,222,l),
(44,149,l),
(44,0,l)
);
},
{
closed = 1;
nodes = (
(877,339,l),
(877,528,l),
(356,528,l),
(356,339,l)
);
},
{
closed = 1;
nodes = (
(1196,-443,l),
(1196,-310,l),
(1167,-310,ls),
(1108,-310,o),
(1061,-267,o),
(1061,-199,cs),
(1061,-149,o),
(1086,-75,o),
(1196,0,c),
(1081,37,l),
(906,-31,o),
(785,-145,o),
(785,-262,cs),
(785,-345,o),
(846,-443,o),
(1086,-443,cs)
);
}
);
width = 1240;
},
{
layerId = "FC265EF4-F21D-45B5-9DC3-EEC98E8078A4";
shapes = (
{
closed = 1;
nodes = (
(602,0,l),
(602,77,l),
(330,144,l),
(334,89,l),
(771,1314,l),
(782,1314,l),
(1216,98,l),
(1224,146,l),
(962,79,l),
(962,0,l),
(1516,0,l),
(1516,79,l),
(1294,166,l),
(1337,98,l),
(846,1460,l),
(708,1460,l),
(213,89,l),
(260,164,l),
(38,77,l),
(38,0,l)
);
},
{
closed = 1;
nodes = (
(1106,499,l),
(1106,602,l),
(443,602,l),
(443,499,l)
);
},
{
closed = 1;
nodes = (
(1516,-400,l),
(1516,-333,l),
(1487,-333,ls),
(1395,-333,o),
(1358,-290,o),
(1358,-228,cs),
(1358,-159,o),
(1395,-85,o),
(1516,0,c),
(1458,37,l),
(1304,-70,o),
(1232,-146,o),
(1232,-248,cs),
(1232,-328,o),
(1277,-400,o),
(1462,-400,cs)
);
}
);
width = 1555;
},
{
layerId = "E1CD64A1-112A-4516-A7DF-4EBEDF7D0C85";
shapes = (
{
closed = 1;
nodes = (
(585,0,l),
(585,149,l),
(357,227,l),
(415,104,l),
(732,1038,l),
(738,1038,l),
(1046,112,l),
(1122,227,l),
(904,148,l),
(904,0,l),
(1514,0,l),
(1514,148,l),
(1300,221,l),
(1383,112,l),
(943,1460,l),
(633,1460,l),
(173,104,l),
(256,222,l),
(42,149,l),
(42,0,l)
);
},
{
closed = 1;
nodes = (
(1115,389,l),
(1115,578,l),
(434,578,l),
(434,389,l)
);
},
{
closed = 1;
nodes = (
(1514,-455,l),
(1514,-312,l),
(1488,-312,ls),
(1385,-312,o),
(1344,-269,o),
(1344,-208,cs),
(1344,-142,o),
(1394,-77,o),
(1514,0,c),
(1368,49,l),
(1125,-59,o),
(1042,-161,o),
(1042,-267,cs),
(1042,-354,o),
(1091,-455,o),
(1346,-455,cs)
);
}
);
width = 1555;
},
{
layerId = "BEB83068-430F-4F93-8275-D4D4FE2C02C8";
shapes = (
{
closed = 1;
nodes = (
(475,0,l),
(475,77,l),
(268,144,l),
(272,89,l),
(606,1309,l),
(617,1309,l),
(949,98,l),
(967,146,l),
(765,79,l),
(765,2,l),
(1199,2,l),
(1199,79,l),
(1037,166,l),
(1080,98,l),
(691,1460,l),
(553,1460,l),
(156,89,l),
(203,164,l),
(41,77,l),
(41,0,l)
);
},
{
closed = 1;
nodes = (
(909,449,l),
(909,552,l),
(326,552,l),
(326,449,l)
);
},
{
closed = 1;
nodes = (
(1199,-398,l),
(1199,-331,l),
(1170,-331,ls),
(1100,-331,o),
(1071,-283,o),
(1071,-226,cs),
(1071,-163,o),
(1098,-93,o),
(1199,2,c),
(1141,39,l),
(1017,-68,o),
(945,-150,o),
(945,-246,cs),
(945,-322,o),
(984,-398,o),
(1145,-398,cs)
);
}
);
width = 1240;
},
{
layerId = "3A752AAD-7068-4A08-8CFD-4D7C5CAE8856";
shapes = (
{
closed = 1;
nodes = (
(370,0,l),
(399,149,l),
(257,227,l),
(291,104,l),
(684,1033,l),
(690,1033,l),
(720,112,l),
(821,227,l),
(648,148,l),
(619,0,l),
(1091,0,l),
(1120,148,l),
(980,221,l),
(1042,112,l),
(964,1460,l),
(654,1460,l),
(30,104,l),
(136,222,l),
(-32,149,l),
(-61,0,l)
);
},
{
closed = 1;
nodes = (
(838,339,l),
(875,528,l),
(354,528,l),
(317,339,l)
);
},
{
closed = 1;
nodes = (
(1005,-443,l),
(1031,-310,l),
(1002,-310,ls),
(943,-310,o),
(904,-267,o),
(917,-199,cs),
(927,-149,o),
(966,-75,o),
(1091,0,c),
(983,37,l),
(795,-31,o),
(652,-145,o),
(629,-262,cs),
(613,-345,o),
(655,-443,o),
(895,-443,cs)
);
}
);
width = 1240;
},
{
layerId = "5F491846-7617-4B03-8CE4-FAFF8D3DA710";
shapes = (
{
closed = 1;
nodes = (
(505,0,l),
(520,77,l),
(261,144,l),
(258,89,l),
(933,1314,l),
(944,1314,l),
(1142,98,l),
(1155,146,l),
(880,79,l),
(865,0,l),
(1419,0,l),
(1434,79,l),
(1229,166,l),
(1259,98,l),
(1033,1460,l),
(895,1460,l),
(133,89,l),
(195,164,l),
(-44,77,l),
(-59,0,l)
);
},
{
closed = 1;
nodes = (
(1106,499,l),
(1126,602,l),
(463,602,l),
(443,499,l)
);
},
{
closed = 1;
nodes = (
(1341,-400,l),
(1354,-333,l),
(1325,-333,ls),
(1233,-333,o),
(1205,-290,o),
(1217,-228,cs),
(1230,-159,o),
(1281,-85,o),
(1419,0,c),
(1368,37,l),
(1193,-70,o),
(1107,-146,o),
(1087,-248,cs),
(1071,-328,o),
(1102,-400,o),
(1287,-400,cs)
);
}
);
width = 1555;
},
{
layerId = "6B25F7AD-67F3-407A-A333-8CA62504B4E5";
shapes = (
{
closed = 1;
nodes = (
(496,0,l),
(525,149,l),
(312,227,l),
(346,104,l),
(845,1038,l),
(851,1038,l),
(979,112,l),
(1077,227,l),
(844,148,l),
(815,0,l),
(1409,0,l),
(1438,148,l),
(1238,221,l),
(1300,112,l),
(1122,1460,l),
(812,1460,l),
(88,104,l),
(194,222,l),
(-34,149,l),
(-63,0,l)
);
},
{
closed = 1;
nodes = (
(1086,389,l),
(1122,578,l),
(441,578,l),
(405,389,l)
);
},
{
closed = 1;
nodes = (
(1321,-455,l),
(1348,-312,l),
(1322,-312,ls),
(1219,-312,o),
(1187,-269,o),
(1199,-208,cs),
(1211,-142,o),
(1274,-77,o),
(1409,0,c),
(1273,49,l),
(1009,-59,o),
(906,-161,o),
(885,-267,cs),
(868,-354,o),
(898,-455,o),
(1153,-455,cs)
);
}
);
width = 1555;
},
{
layerId = "2935642B-2075-4830-97B8-D7DDAAAB1EBE";
shapes = (
{
closed = 1;
nodes = (
(378,0,l),
(393,77,l),
(199,144,l),
(202,89,l),
(773,1309,l),
(784,1309,l),
(881,98,l),
(898,146,l),
(683,79,l),
(668,2,l),
(1102,2,l),
(1117,79,l),
(972,166,l),
(1002,98,l),
(878,1460,l),
(740,1460,l),
(76,89,l),
(138,164,l),
(-41,77,l),
(-56,0,l)
);
},
{
closed = 1;
nodes = (
(899,449,l),
(919,552,l),
(336,552,l),
(316,449,l)
);
},
{
closed = 1;
nodes = (
(1025,-398,l),
(1038,-331,l),
(1009,-331,ls),
(939,-331,o),
(919,-283,o),
(930,-226,cs),
(942,-163,o),
(983,-93,o),
(1102,2,c),
(1052,39,l),
(907,-68,o),
(819,-150,o),
(800,-246,cs),
(785,-322,o),
(810,-398,o),
(971,-398,cs)
);
}
);
width = 1240;
}
);
unicode = 260;
},
{
glyphname = Aring;
lastChange = "2024-05-08 18:01:49 +0000";
layers = (
{
layerId = "C612A24F-6EED-4FC1-9F18-2B0E93FAFD61";
shapes = (
{
closed = 1;
nodes = (
(457,0,l),
(457,149,l),
(300,227,l),
(358,104,l),
(570,1033,l),
(576,1033,l),
(785,112,l),
(864,227,l),
(706,148,l),
(706,0,l),
(1196,0,l),
(1196,148,l),
(1042,221,l),
(1125,112,l),
(785,1460,l),
(475,1460,l),
(115,104,l),
(198,222,l),
(44,149,l),
(44,0,l)
);
},
{
closed = 1;
nodes = (
(877,339,l),
(877,528,l),
(356,528,l),
(356,339,l)
);
},
{
closed = 1;
nodes = (
(774,1408,o),
(875,1515,o),
(875,1660,cs),
(875,1805,o),
(774,1911,o),
(630,1911,cs),
(486,1911,o),
(385,1805,o),
(385,1660,cs),
(385,1515,o),
(486,1408,o),
(630,1408,cs)
);
},
{
closed = 1;
nodes = (
(555,1534,o),
(507,1588,o),
(507,1660,cs),
(507,1732,o),
(555,1785,o),
(630,1785,cs),
(705,1785,o),
(752,1732,o),
(752,1660,cs),
(752,1588,o),
(705,1534,o),
(630,1534,cs)
);
}
);
width = 1240;
},
{
layerId = "FC265EF4-F21D-45B5-9DC3-EEC98E8078A4";
shapes = (
{
closed = 1;
nodes = (
(602,0,l),
(602,77,l),
(330,144,l),
(334,89,l),
(771,1314,l),
(782,1314,l),
(1216,98,l),
(1224,146,l),
(962,79,l),
(962,0,l),
(1516,0,l),
(1516,79,l),
(1294,166,l),
(1337,98,l),
(846,1460,l),
(708,1460,l),
(213,89,l),
(260,164,l),
(38,77,l),
(38,0,l)
);
},
{
closed = 1;
nodes = (
(1106,499,l),
(1106,602,l),
(443,602,l),
(443,499,l)
);
},
{
closed = 1;
nodes = (
(905,1443,o),
(995,1538,o),
(995,1667,cs),
(995,1796,o),
(905,1890,o),
(777,1890,cs),
(649,1890,o),
(559,1796,o),
(559,1667,cs),
(559,1538,o),
(649,1443,o),
(777,1443,cs)
);
},
{
closed = 1;
nodes = (
(693,1525,o),
(639,1586,o),
(639,1667,cs),
(639,1748,o),
(693,1808,o),
(777,1808,cs),
(861,1808,o),
(914,1748,o),
(914,1667,cs),
(914,1586,o),
(861,1525,o),
(777,1525,cs)
);
}
);
width = 1555;
},
{
layerId = "E1CD64A1-112A-4516-A7DF-4EBEDF7D0C85";
shapes = (
{
closed = 1;
nodes = (
(585,0,l),
(585,149,l),
(357,227,l),
(415,104,l),
(732,1038,l),
(738,1038,l),
(1046,112,l),
(1122,227,l),
(904,148,l),
(904,0,l),
(1514,0,l),
(1514,148,l),
(1300,221,l),
(1383,112,l),
(943,1460,l),
(633,1460,l),
(173,104,l),
(256,222,l),
(42,149,l),
(42,0,l)
);
},
{
closed = 1;
nodes = (
(1115,389,l),
(1115,578,l),
(434,578,l),
(434,389,l)
);
},
{
closed = 1;
nodes = (
(932,1408,o),
(1033,1515,o),
(1033,1660,cs),
(1033,1805,o),
(932,1911,o),
(788,1911,cs),
(644,1911,o),
(543,1805,o),
(543,1660,cs),
(543,1515,o),
(644,1408,o),
(788,1408,cs)
);
},
{
closed = 1;
nodes = (
(713,1534,o),
(665,1588,o),
(665,1660,cs),
(665,1732,o),
(713,1785,o),
(788,1785,cs),
(863,1785,o),
(910,1732,o),
(910,1660,cs),
(910,1588,o),
(863,1534,o),
(788,1534,cs)
);
}
);
width = 1555;
},
{
layerId = "BEB83068-430F-4F93-8275-D4D4FE2C02C8";
shapes = (
{
closed = 1;
nodes = (
(475,0,l),
(475,77,l),
(268,144,l),
(272,89,l),
(606,1309,l),
(617,1309,l),
(949,98,l),
(967,146,l),
(765,79,l),
(765,2,l),
(1199,2,l),
(1199,79,l),
(1037,166,l),
(1080,98,l),
(691,1460,l),
(553,1460,l),
(156,89,l),
(203,164,l),
(41,77,l),
(41,0,l)
);
},
{
closed = 1;
nodes = (
(909,449,l),
(909,552,l),
(326,552,l),
(326,449,l)
);
},
{
closed = 1;
nodes = (
(748,1443,o),
(838,1538,o),
(838,1667,cs),
(838,1796,o),
(748,1890,o),
(620,1890,cs),
(492,1890,o),
(402,1796,o),
(402,1667,cs),
(402,1538,o),
(492,1443,o),
(620,1443,cs)
);
},
{
closed = 1;
nodes = (
(536,1525,o),
(482,1586,o),
(482,1667,cs),
(482,1748,o),
(536,1808,o),
(620,1808,cs),
(704,1808,o),
(757,1748,o),
(757,1667,cs),
(757,1586,o),
(704,1525,o),
(620,1525,cs)
);
}
);
width = 1240;
},
{
layerId = "3A752AAD-7068-4A08-8CFD-4D7C5CAE8856";
shapes = (
{
closed = 1;
nodes = (
(370,0,l),
(399,149,l),
(257,227,l),
(291,104,l),
(684,1033,l),
(690,1033,l),
(720,112,l),
(821,227,l),
(648,148,l),
(619,0,l),
(1091,0,l),
(1120,148,l),
(980,221,l),
(1042,112,l),
(964,1460,l),
(654,1460,l),
(30,104,l),
(136,222,l),
(-32,149,l),
(-61,0,l)
);
},
{
closed = 1;
nodes = (
(838,339,l),
(875,528,l),
(354,528,l),
(317,339,l)
);
},
{
closed = 1;
nodes = (
(943,1408,o),
(1064,1515,o),
(1093,1660,cs),
(1121,1805,o),
(1040,1911,o),
(896,1911,cs),
(752,1911,o),
(631,1805,o),
(603,1660,cs),
(574,1515,o),
(655,1408,o),
(799,1408,cs)
);
},
{
closed = 1;
nodes = (
(748,1534,o),
(711,1588,o),
(725,1660,cs),
(739,1732,o),
(797,1785,o),
(872,1785,cs),
(947,1785,o),
(984,1732,o),
(970,1660,cs),
(956,1588,o),
(898,1534,o),
(823,1534,cs)
);
}
);
width = 1240;
},
{
layerId = "5F491846-7617-4B03-8CE4-FAFF8D3DA710";
shapes = (
{
closed = 1;
nodes = (
(505,0,l),
(520,77,l),
(261,144,l),
(258,89,l),
(933,1314,l),
(944,1314,l),
(1142,98,l),
(1155,146,l),
(880,79,l),
(865,0,l),
(1419,0,l),
(1434,79,l),
(1229,166,l),
(1259,98,l),
(1033,1460,l),
(895,1460,l),
(133,89,l),
(195,164,l),
(-44,77,l),
(-59,0,l)
);
},
{
closed = 1;
nodes = (
(1106,499,l),
(1126,602,l),
(463,602,l),
(443,499,l)
);
},
{
closed = 1;
nodes = (
(1088,1443,o),
(1197,1538,o),
(1222,1667,cs),
(1247,1796,o),
(1175,1890,o),
(1047,1890,cs),
(919,1890,o),
(811,1796,o),
(786,1667,cs),
(761,1538,o),
(832,1443,o),
(960,1443,cs)
);
},
{
closed = 1;
nodes = (
(892,1525,o),
(850,1586,o),
(866,1667,cs),
(882,1748,o),
(947,1808,o),
(1031,1808,cs),
(1115,1808,o),
(1157,1748,o),
(1141,1667,cs),
(1125,1586,o),
(1060,1525,o),
(976,1525,cs)
);
}
);
width = 1555;
},
{
layerId = "6B25F7AD-67F3-407A-A333-8CA62504B4E5";
shapes = (
{
closed = 1;
nodes = (
(496,0,l),
(525,149,l),
(312,227,l),
(346,104,l),
(845,1038,l),
(851,1038,l),
(979,112,l),
(1077,227,l),
(844,148,l),
(815,0,l),
(1409,0,l),
(1438,148,l),
(1238,221,l),
(1300,112,l),
(1122,1460,l),
(812,1460,l),
(88,104,l),
(194,222,l),
(-34,149,l),
(-63,0,l)
);
},
{
closed = 1;
nodes = (
(1086,389,l),
(1122,578,l),
(441,578,l),
(405,389,l)
);
},
{
closed = 1;
nodes = (
(1101,1408,o),
(1222,1515,o),
(1251,1660,cs),
(1279,1805,o),
(1198,1911,o),
(1054,1911,cs),
(910,1911,o),
(789,1805,o),
(761,1660,cs),
(732,1515,o),
(813,1408,o),
(957,1408,cs)
);
},
{
closed = 1;
nodes = (
(906,1534,o),
(869,1588,o),
(883,1660,cs),
(897,1732,o),
(955,1785,o),
(1030,1785,cs),
(1105,1785,o),
(1142,1732,o),
(1128,1660,cs),
(1114,1588,o),
(1056,1534,o),
(981,1534,cs)
);
}
);
width = 1555;
},
{
layerId = "2935642B-2075-4830-97B8-D7DDAAAB1EBE";
shapes = (
{
closed = 1;
nodes = (
(378,0,l),
(393,77,l),
(199,144,l),
(202,89,l),
(773,1309,l),
(784,1309,l),
(881,98,l),
(898,146,l),
(683,79,l),
(668,2,l),
(1102,2,l),
(1117,79,l),
(972,166,l),
(1002,98,l),
(878,1460,l),
(740,1460,l),
(76,89,l),
(138,164,l),
(-41,77,l),
(-56,0,l)
);
},
{
closed = 1;
nodes = (
(899,449,l),
(919,552,l),
(336,552,l),
(316,449,l)
);
},
{
closed = 1;
nodes = (
(931,1443,o),
(1040,1538,o),
(1065,1667,cs),
(1090,1796,o),
(1018,1890,o),
(890,1890,cs),
(762,1890,o),
(654,1796,o),
(629,1667,cs),
(604,1538,o),
(675,1443,o),
(803,1443,cs)
);
},
{
closed = 1;
nodes = (
(735,1525,o),
(693,1586,o),
(709,1667,cs),
(725,1748,o),
(790,1808,o),
(874,1808,cs),
(958,1808,o),
(1000,1748,o),
(984,1667,cs),
(968,1586,o),
(903,1525,o),
(819,1525,cs)
);
}
);
width = 1240;
}
);
unicode = 197;
},
{
glyphname = Atilde;
lastChange = "2024-05-08 18:01:49 +0000";
layers = (
{
layerId = "C612A24F-6EED-4FC1-9F18-2B0E93FAFD61";
shapes = (
{
closed = 1;
nodes = (
(457,0,l),
(457,149,l),
(300,227,l),
(358,104,l),
(570,1033,l),
(576,1033,l),
(785,112,l),
(864,227,l),
(706,148,l),
(706,0,l),
(1196,0,l),
(1196,148,l),
(1042,221,l),
(1125,112,l),
(785,1460,l),
(475,1460,l),
(115,104,l),
(198,222,l),
(44,149,l),
(44,0,l)
);
},
{
closed = 1;
nodes = (
(877,339,l),
(877,528,l),
(356,528,l),
(356,339,l)
);
},
{
closed = 1;
nodes = (
(948,1559,o),
(1023,1700,o),
(1042,1865,c),
(902,1899,l),
(890,1816,o),
(839,1779,o),
(784,1779,cs),
(674,1779,o),
(601,1943,o),
(447,1943,cs),
(291,1943,o),
(217,1802,o),
(198,1637,c),
(338,1603,l),
(350,1685,o),
(401,1723,o),
(456,1723,cs),
(565,1723,o),
(638,1559,o),
(792,1559,cs)
);
}
);
width = 1240;
},
{
layerId = "FC265EF4-F21D-45B5-9DC3-EEC98E8078A4";
shapes = (
{
closed = 1;
nodes = (
(602,0,l),
(602,77,l),
(330,144,l),
(334,89,l),
(771,1314,l),
(782,1314,l),
(1216,98,l),
(1224,146,l),
(962,79,l),
(962,0,l),
(1516,0,l),
(1516,79,l),
(1294,166,l),
(1337,98,l),
(846,1460,l),
(708,1460,l),
(213,89,l),
(260,164,l),
(38,77,l),
(38,0,l)
);
},
{
closed = 1;
nodes = (
(1106,499,l),
(1106,602,l),
(443,602,l),
(443,499,l)
);
},
{
closed = 1;
nodes = (
(1117,1633,o),
(1201,1716,o),
(1227,1850,c),
(1150,1875,l),
(1126,1783,o),
(1054,1745,o),
(974,1745,cs),
(829,1745,o),
(782,1904,o),
(576,1904,cs),
(437,1904,o),
(354,1821,o),
(328,1688,c),
(406,1662,l),
(429,1754,o),
(502,1792,o),
(582,1792,cs),
(727,1792,o),
(772,1633,o),
(978,1633,cs)
);
}
);
width = 1555;
},
{
layerId = "E1CD64A1-112A-4516-A7DF-4EBEDF7D0C85";
shapes = (
{
closed = 1;
nodes = (
(585,0,l),
(585,149,l),
(357,227,l),
(415,104,l),
(732,1038,l),
(738,1038,l),
(1046,112,l),
(1122,227,l),
(904,148,l),
(904,0,l),
(1514,0,l),
(1514,148,l),
(1300,221,l),
(1383,112,l),
(943,1460,l),
(633,1460,l),
(173,104,l),
(256,222,l),
(42,149,l),
(42,0,l)
);
},
{
closed = 1;
nodes = (
(1115,389,l),
(1115,578,l),
(434,578,l),
(434,389,l)
);
},
{
closed = 1;
nodes = (
(1153,1559,o),
(1248,1700,o),
(1267,1865,c),
(1127,1899,l),
(1115,1816,o),
(1054,1779,o),
(989,1779,cs),
(859,1779,o),
(743,1943,o),
(569,1943,cs),
(403,1943,o),
(309,1802,o),
(290,1637,c),
(430,1603,l),
(442,1685,o),
(503,1723,o),
(568,1723,cs),
(697,1723,o),
(813,1559,o),
(987,1559,cs)
);
}
);
width = 1555;
},
{
layerId = "BEB83068-430F-4F93-8275-D4D4FE2C02C8";
shapes = (
{
closed = 1;
nodes = (
(475,0,l),
(475,77,l),
(268,144,l),
(272,89,l),
(606,1309,l),
(617,1309,l),
(949,98,l),
(967,146,l),
(765,79,l),
(765,2,l),
(1199,2,l),
(1199,79,l),
(1037,166,l),
(1080,98,l),
(691,1460,l),
(553,1460,l),
(156,89,l),
(203,164,l),
(41,77,l),
(41,0,l)
);
},
{
closed = 1;
nodes = (
(909,449,l),
(909,552,l),
(326,552,l),
(326,449,l)
);
},
{
closed = 1;
nodes = (
(870,1639,o),
(942,1716,o),
(962,1849,c),
(892,1875,l),
(874,1791,o),
(824,1752,o),
(765,1752,cs),
(661,1752,o),
(635,1898,o),
(478,1898,cs),
(369,1898,o),
(298,1821,o),
(278,1688,c),
(348,1662,l),
(366,1746,o),
(417,1785,o),
(476,1785,cs),
(580,1785,o),
(604,1639,o),
(761,1639,cs)
);
}
);
width = 1240;
},
{
layerId = "3A752AAD-7068-4A08-8CFD-4D7C5CAE8856";
shapes = (
{
closed = 1;
nodes = (
(370,0,l),
(399,149,l),
(257,227,l),
(291,104,l),
(684,1033,l),
(690,1033,l),
(720,112,l),
(821,227,l),
(648,148,l),
(619,0,l),
(1091,0,l),
(1120,148,l),
(980,221,l),
(1042,112,l),
(964,1460,l),
(654,1460,l),
(30,104,l),
(136,222,l),
(-32,149,l),
(-61,0,l)
);
},
{
closed = 1;
nodes = (
(838,339,l),
(875,528,l),
(354,528,l),
(317,339,l)
);
},
{
closed = 1;
nodes = (
(1146,1559,o),
(1248,1700,o),
(1300,1865,c),
(1166,1899,l),
(1138,1816,o),
(1080,1779,o),
(1025,1779,cs),
(915,1779,o),
(874,1943,o),
(720,1943,cs),
(564,1943,o),
(462,1802,o),
(411,1637,c),
(545,1603,l),
(573,1685,o),
(631,1723,o),
(686,1723,cs),
(795,1723,o),
(836,1559,o),
(990,1559,cs)
);
}
);
width = 1240;
},
{
layerId = "5F491846-7617-4B03-8CE4-FAFF8D3DA710";
shapes = (
{
closed = 1;
nodes = (
(505,0,l),
(520,77,l),
(261,144,l),
(258,89,l),
(933,1314,l),
(944,1314,l),
(1142,98,l),
(1155,146,l),
(880,79,l),
(865,0,l),
(1419,0,l),
(1434,79,l),
(1229,166,l),
(1259,98,l),
(1033,1460,l),
(895,1460,l),
(133,89,l),
(195,164,l),
(-44,77,l),
(-59,0,l)
);
},
{
closed = 1;
nodes = (
(1106,499,l),
(1126,602,l),
(463,602,l),
(443,499,l)
);
},
{
closed = 1;
nodes = (
(1337,1633,o),
(1438,1716,o),
(1490,1850,c),
(1417,1875,l),
(1376,1783,o),
(1296,1745,o),
(1216,1745,cs),
(1071,1745,o),
(1055,1904,o),
(849,1904,cs),
(710,1904,o),
(611,1821,o),
(559,1688,c),
(632,1662,l),
(673,1754,o),
(753,1792,o),
(833,1792,cs),
(978,1792,o),
(992,1633,o),
(1198,1633,cs)
);
}
);
width = 1555;
},
{
layerId = "6B25F7AD-67F3-407A-A333-8CA62504B4E5";
shapes = (
{
closed = 1;
nodes = (
(496,0,l),
(525,149,l),
(312,227,l),
(346,104,l),
(845,1038,l),
(851,1038,l),
(979,112,l),
(1077,227,l),
(844,148,l),
(815,0,l),
(1409,0,l),
(1438,148,l),
(1238,221,l),
(1300,112,l),
(1122,1460,l),
(812,1460,l),
(88,104,l),
(194,222,l),
(-34,149,l),
(-63,0,l)
);
},
{
closed = 1;
nodes = (
(1086,389,l),
(1122,578,l),
(441,578,l),
(405,389,l)
);
},
{
closed = 1;
nodes = (
(1351,1559,o),
(1473,1700,o),
(1525,1865,c),
(1391,1899,l),
(1363,1816,o),
(1295,1779,o),
(1230,1779,cs),
(1100,1779,o),
(1016,1943,o),
(842,1943,cs),
(676,1943,o),
(554,1802,o),
(503,1637,c),
(637,1603,l),
(665,1685,o),
(733,1723,o),
(798,1723,cs),
(927,1723,o),
(1011,1559,o),
(1185,1559,cs)
);
}
);
width = 1555;
},
{
layerId = "2935642B-2075-4830-97B8-D7DDAAAB1EBE";
shapes = (
{
closed = 1;
nodes = (
(378,0,l),
(393,77,l),
(199,144,l),
(202,89,l),
(773,1309,l),
(784,1309,l),
(881,98,l),
(898,146,l),
(683,79,l),
(668,2,l),
(1102,2,l),
(1117,79,l),
(972,166,l),
(1002,98,l),
(878,1460,l),
(740,1460,l),
(76,89,l),
(138,164,l),
(-41,77,l),
(-56,0,l)
);
},
{
closed = 1;
nodes = (
(899,449,l),
(919,552,l),
(336,552,l),
(316,449,l)
);
},
{
closed = 1;
nodes = (
(1092,1639,o),
(1179,1716,o),
(1224,1849,c),
(1159,1875,l),
(1125,1791,o),
(1068,1752,o),
(1009,1752,cs),
(905,1752,o),
(907,1898,o),
(750,1898,cs),
(641,1898,o),
(555,1821,o),
(509,1688,c),
(574,1662,l),
(608,1746,o),
(667,1785,o),
(726,1785,cs),
(830,1785,o),
(826,1639,o),
(983,1639,cs)
);
}
);
width = 1240;
}
);
unicode = 195;
},
{
glyphname = AE;
lastChange = "2024-05-08 18:01:49 +0000";
layers = (
{
layerId = "C612A24F-6EED-4FC1-9F18-2B0E93FAFD61";
shapes = (
{
closed = 1;
nodes = (
(1189,1,l),
(1225,372,l),
(1063,372,l),
(991,157,l),
(1045,203,l),
(810,203,l),
(876,132,l),
(876,715,l),
(804,650,l),
(1066,650,l),
(1007,695,l),
(1100,516,l),
(1190,516,l),
(1190,961,l),
(1100,961,l),
(1007,782,l),
(1069,830,l),
(804,830,l),
(876,779,l),
(876,1291,l),
(844,1258,l),
(1048,1258,l),
(993,1301,l),
(1066,1086,l),
(1228,1086,l),
(1192,1460,l),
(602,1460,l),
(602,1,l)
);
},
{
closed = 1;
nodes = (
(763,339,l),
(763,528,l),
(278,528,l),
(278,339,l)
);
},
{
closed = 1;
nodes = (
(437,0,l),
(437,149,l),
(280,227,l),
(338,104,l),
(571,1258,l),
(683,1258,l),
(683,1460,l),
(375,1460,l),
(95,104,l),
(178,222,l),
(24,149,l),
(24,0,l)
);
}
);
width = 1240;
},
{
layerId = "FC265EF4-F21D-45B5-9DC3-EEC98E8078A4";
shapes = (
{
closed = 1;
nodes = (
(1441,0,l),
(1496,385,l),
(1399,385,l),
(1290,70,l),
(1364,104,l),
(886,104,l),
(938,79,l),
(938,721,l),
(889,701,l),
(1211,701,l),
(1147,732,l),
(1194,530,l),
(1271,530,l),
(1271,971,l),
(1194,971,l),
(1147,769,l),
(1201,792,l),
(889,792,l),
(938,777,l),
(938,1395,l),
(907,1356,l),
(1334,1356,l),
(1260,1400,l),
(1369,1085,l),
(1466,1085,l),
(1411,1460,l),
(814,1460,l),
(814,0,l)
);
},
{
closed = 1;
nodes = (
(880,447,l),
(880,552,l),
(357,552,l),
(357,447,l)
);
},
{
closed = 1;
nodes = (
(418,0,l),
(418,77,l),
(251,144,l),
(255,89,l),
(779,1356,l),
(867,1356,l),
(867,1460,l),
(707,1460,l),
(139,89,l),
(186,164,l),
(44,77,l),
(44,0,l)
);
}
);
width = 1555;
},
{
layerId = "E1CD64A1-112A-4516-A7DF-4EBEDF7D0C85";
shapes = (
{
closed = 1;
nodes = (
(1472,0,l),
(1508,372,l),
(1346,372,l),
(1274,157,l),
(1328,203,l),
(1013,203,l),
(1079,132,l),
(1079,715,l),
(1007,650,l),
(1349,650,l),
(1290,695,l),
(1383,516,l),
(1473,516,l),
(1473,961,l),
(1383,961,l),
(1290,782,l),
(1352,830,l),
(1007,830,l),
(1079,779,l),
(1079,1291,l),
(1047,1258,l),
(1331,1258,l),
(1276,1301,l),
(1349,1086,l),
(1511,1086,l),
(1475,1460,l),
(779,1460,l),
(779,0,l)
);
},
{
closed = 1;
nodes = (
(806,339,l),
(806,528,l),
(321,528,l),
(321,339,l)
);
},
{
closed = 1;
nodes = (
(500,0,l),
(500,149,l),
(343,227,l),
(401,104,l),
(736,1258,l),
(848,1258,l),
(848,1460,l),
(556,1460,l),
(158,104,l),
(241,222,l),
(87,149,l),
(87,0,l)
);
}
);
width = 1555;
},
{
layerId = "BEB83068-430F-4F93-8275-D4D4FE2C02C8";
shapes = (
{
closed = 1;
nodes = (
(1157,0,l),
(1212,385,l),
(1115,385,l),
(1006,70,l),
(1080,104,l),
(686,104,l),
(738,79,l),
(738,721,l),
(689,701,l),
(927,701,l),
(863,732,l),
(910,530,l),
(987,530,l),
(987,971,l),
(910,971,l),
(863,769,l),
(917,792,l),
(689,792,l),
(738,777,l),
(738,1395,l),
(707,1356,l),
(1050,1356,l),
(976,1400,l),
(1085,1085,l),
(1182,1085,l),
(1127,1460,l),
(614,1460,l),
(614,0,l)
);
},
{
closed = 1;
nodes = (
(679,447,l),
(679,552,l),
(276,552,l),
(276,447,l)
);
},
{
closed = 1;
nodes = (
(395,0,l),
(395,77,l),
(228,144,l),
(232,89,l),
(575,1356,l),
(661,1356,l),
(661,1460,l),
(500,1460,l),
(116,89,l),
(163,164,l),
(21,77,l),
(21,0,l)
);
}
);
width = 1240;
},
{
layerId = "3A752AAD-7068-4A08-8CFD-4D7C5CAE8856";
shapes = (
{
closed = 1;
nodes = (
(1084,1,l),
(1192,372,l),
(1030,372,l),
(917,157,l),
(979,203,l),
(744,203,l),
(797,132,l),
(910,715,l),
(825,650,l),
(1087,650,l),
(1037,695,l),
(1095,516,l),
(1185,516,l),
(1272,961,l),
(1182,961,l),
(1054,782,l),
(1125,830,l),
(860,830,l),
(922,779,l),
(1022,1291,l),
(984,1258,l),
(1188,1258,l),
(1141,1301,l),
(1172,1086,l),
(1334,1086,l),
(1371,1460,l),
(781,1460,l),
(497,1,l)
);
},
{
closed = 1;
nodes = (
(724,339,l),
(761,528,l),
(276,528,l),
(239,339,l)
);
},
{
closed = 1;
nodes = (
(332,0,l),
(361,149,l),
(219,227,l),
(253,104,l),
(711,1258,l),
(823,1258,l),
(862,1460,l),
(554,1460,l),
(10,104,l),
(116,222,l),
(-52,149,l),
(-81,0,l)
);
}
);
width = 1240;
},
{
layerId = "5F491846-7617-4B03-8CE4-FAFF8D3DA710";
shapes = (
{
closed = 1;
nodes = (
(1344,0,l),
(1474,385,l),
(1377,385,l),
(1207,70,l),
(1287,104,l),
(809,104,l),
(856,79,l),
(981,721,l),
(928,701,l),
(1250,701,l),
(1192,732,l),
(1200,530,l),
(1277,530,l),
(1363,971,l),
(1286,971,l),
(1199,769,l),
(1258,792,l),
(946,792,l),
(992,777,l),
(1112,1395,l),
(1074,1356,l),
(1501,1356,l),
(1435,1400,l),
(1483,1085,l),
(1580,1085,l),
(1598,1460,l),
(1001,1460,l),
(717,0,l)
);
},
{
closed = 1;
nodes = (
(870,447,l),
(890,552,l),
(367,552,l),
(347,447,l)
);
},
{
closed = 1;
nodes = (
(321,0,l),
(336,77,l),
(182,144,l),
(175,89,l),
(946,1356,l),
(1034,1356,l),
(1054,1460,l),
(894,1460,l),
(59,89,l),
(121,164,l),
(-38,77,l),
(-53,0,l)
);
}
);
width = 1555;
},
{
layerId = "6B25F7AD-67F3-407A-A333-8CA62504B4E5";
shapes = (
{
closed = 1;
nodes = (
(1367,0,l),
(1475,372,l),
(1313,372,l),
(1200,157,l),
(1262,203,l),
(947,203,l),
(1000,132,l),
(1113,715,l),
(1028,650,l),
(1370,650,l),
(1320,695,l),
(1378,516,l),
(1468,516,l),
(1555,961,l),
(1465,961,l),
(1337,782,l),
(1408,830,l),
(1063,830,l),
(1125,779,l),
(1225,1291,l),
(1187,1258,l),
(1471,1258,l),
(1424,1301,l),
(1455,1086,l),
(1617,1086,l),
(1654,1460,l),
(958,1460,l),
(674,0,l)
);
},
{
closed = 1;
nodes = (
(767,339,l),
(804,528,l),
(319,528,l),
(282,339,l)
);
},
{
closed = 1;
nodes = (
(395,0,l),
(424,149,l),
(282,227,l),
(316,104,l),
(876,1258,l),
(988,1258,l),
(1027,1460,l),
(735,1460,l),
(73,104,l),
(179,222,l),
(11,149,l),
(-18,0,l)
);
}
);
width = 1555;
},
{
layerId = "2935642B-2075-4830-97B8-D7DDAAAB1EBE";
shapes = (
{
closed = 1;
nodes = (
(1060,0,l),
(1190,385,l),
(1093,385,l),
(923,70,l),
(1003,104,l),
(609,104,l),
(656,79,l),
(781,721,l),
(728,701,l),
(966,701,l),
(908,732,l),
(916,530,l),
(993,530,l),
(1079,971,l),
(1002,971,l),
(915,769,l),
(974,792,l),
(746,792,l),
(792,777,l),
(912,1395,l),
(874,1356,l),
(1217,1356,l),
(1151,1400,l),
(1199,1085,l),
(1296,1085,l),
(1314,1460,l),
(801,1460,l),
(517,0,l)
);
},
{
closed = 1;
nodes = (
(669,447,l),
(689,552,l),
(286,552,l),
(266,447,l)
);
},
{
closed = 1;
nodes = (
(298,0,l),
(313,77,l),
(159,144,l),
(152,89,l),
(742,1356,l),
(828,1356,l),
(848,1460,l),
(687,1460,l),
(36,89,l),
(98,164,l),
(-61,77,l),
(-76,0,l)
);
}
);
width = 1240;
}
);
unicode = 198;
},
{
glyphname = AEacute;
lastChange = "2024-05-08 18:01:49 +0000";
layers = (
{
layerId = "C612A24F-6EED-4FC1-9F18-2B0E93FAFD61";
shapes = (
{
closed = 1;
nodes = (
(1189,1,l),
(1225,372,l),
(1063,372,l),
(991,157,l),
(1045,203,l),
(810,203,l),
(876,132,l),
(876,715,l),
(804,650,l),
(1066,650,l),
(1007,695,l),
(1100,516,l),
(1190,516,l),
(1190,961,l),
(1100,961,l),
(1007,782,l),
(1069,830,l),
(804,830,l),
(876,779,l),
(876,1291,l),
(844,1258,l),
(1048,1258,l),
(993,1301,l),
(1066,1086,l),
(1228,1086,l),
(1192,1460,l),
(602,1460,l),
(602,1,l)
);
},
{
closed = 1;
nodes = (
(763,339,l),
(763,528,l),
(278,528,l),
(278,339,l)
);
},
{
closed = 1;
nodes = (
(437,0,l),
(437,149,l),
(280,227,l),
(338,104,l),
(571,1258,l),
(683,1258,l),
(683,1460,l),
(375,1460,l),
(95,104,l),
(178,222,l),
(24,149,l),
(24,0,l)
);
},
{
closed = 1;
nodes = (
(621,1619.05,l),
(784,1877.386,l),
(1129,1877.386,l),
(860,1619.05,l)
);
}
);
width = 1240;
},
{
layerId = "FC265EF4-F21D-45B5-9DC3-EEC98E8078A4";
shapes = (
{
closed = 1;
nodes = (
(1441,0,l),
(1496,385,l),
(1399,385,l),
(1290,70,l),
(1364,104,l),
(886,104,l),
(938,79,l),
(938,721,l),
(889,701,l),
(1211,701,l),
(1147,732,l),
(1194,530,l),
(1271,530,l),
(1271,971,l),
(1194,971,l),
(1147,769,l),
(1201,792,l),
(889,792,l),
(938,777,l),
(938,1395,l),
(907,1356,l),
(1334,1356,l),
(1260,1400,l),
(1369,1085,l),
(1466,1085,l),
(1411,1460,l),
(814,1460,l),
(814,0,l)
);
},
{
closed = 1;
nodes = (
(880,447,l),
(880,552,l),
(357,552,l),
(357,447,l)
);
},
{
closed = 1;
nodes = (
(418,0,l),
(418,77,l),
(251,144,l),
(255,89,l),
(779,1356,l),
(867,1356,l),
(867,1460,l),
(707,1460,l),
(139,89,l),
(186,164,l),
(44,77,l),
(44,0,l)
);
},
{
closed = 1;
nodes = (
(961,1652,l),
(1213,1884,l),
(1386,1884,l),
(1060,1652,l)
);
}
);
width = 1555;
},
{
layerId = "E1CD64A1-112A-4516-A7DF-4EBEDF7D0C85";
shapes = (
{
closed = 1;
nodes = (
(1472,0,l),
(1508,372,l),
(1346,372,l),
(1274,157,l),
(1328,203,l),
(1013,203,l),
(1079,132,l),
(1079,715,l),
(1007,650,l),
(1349,650,l),
(1290,695,l),
(1383,516,l),
(1473,516,l),
(1473,961,l),
(1383,961,l),
(1290,782,l),
(1352,830,l),
(1007,830,l),
(1079,779,l),
(1079,1291,l),
(1047,1258,l),
(1331,1258,l),
(1276,1301,l),
(1349,1086,l),
(1511,1086,l),
(1475,1460,l),
(779,1460,l),
(779,0,l)
);
},
{
closed = 1;
nodes = (
(806,339,l),
(806,528,l),
(321,528,l),
(321,339,l)
);
},
{
closed = 1;
nodes = (
(500,0,l),
(500,149,l),
(343,227,l),
(401,104,l),
(736,1258,l),
(848,1258,l),
(848,1460,l),
(556,1460,l),
(158,104,l),
(241,222,l),
(87,149,l),
(87,0,l)
);
},
{
closed = 1;
nodes = (
(826,1619,l),
(1023,1918,l),
(1408,1918,l),
(1107,1619,l)
);
}
);
width = 1555;
},
{
layerId = "BEB83068-430F-4F93-8275-D4D4FE2C02C8";
shapes = (
{
closed = 1;
nodes = (
(1157,0,l),
(1212,385,l),
(1115,385,l),
(1006,70,l),
(1080,104,l),
(686,104,l),
(738,79,l),
(738,721,l),
(689,701,l),
(927,701,l),
(863,732,l),
(910,530,l),
(987,530,l),
(987,971,l),
(910,971,l),
(863,769,l),
(917,792,l),
(689,792,l),
(738,777,l),
(738,1395,l),
(707,1356,l),
(1050,1356,l),
(976,1400,l),
(1085,1085,l),
(1182,1085,l),
(1127,1460,l),
(614,1460,l),
(614,0,l)
);
},
{
closed = 1;
nodes = (
(679,447,l),
(679,552,l),
(276,552,l),
(276,447,l)
);
},
{
closed = 1;
nodes = (
(395,0,l),
(395,77,l),
(228,144,l),
(232,89,l),
(575,1356,l),
(661,1356,l),
(661,1460,l),
(500,1460,l),
(116,89,l),
(163,164,l),
(21,77,l),
(21,0,l)
);
},
{
closed = 1;
nodes = (
(726,1650.191,l),
(928,1883.236,l),
(1088,1883.236,l),
(815,1650.191,l)
);
}
);
width = 1240;
},
{
layerId = "3A752AAD-7068-4A08-8CFD-4D7C5CAE8856";
shapes = (
{
closed = 1;
nodes = (
(1084,1,l),
(1192,372,l),
(1030,372,l),
(917,157,l),
(979,203,l),
(744,203,l),
(797,132,l),
(910,715,l),
(825,650,l),
(1087,650,l),
(1037,695,l),
(1095,516,l),
(1185,516,l),
(1272,961,l),
(1182,961,l),
(1054,782,l),
(1125,830,l),
(860,830,l),
(922,779,l),
(1022,1291,l),
(984,1258,l),
(1188,1258,l),
(1141,1301,l),
(1172,1086,l),
(1334,1086,l),
(1371,1460,l),
(781,1460,l),
(497,1,l)
);
},
{
closed = 1;
nodes = (
(724,339,l),
(761,528,l),
(276,528,l),
(239,339,l)
);
},
{
closed = 1;
nodes = (
(332,0,l),
(361,149,l),
(219,227,l),
(253,104,l),
(711,1258,l),
(823,1258,l),
(862,1460,l),
(554,1460,l),
(10,104,l),
(116,222,l),
(-52,149,l),
(-81,0,l)
);
},
{
closed = 1;
nodes = (
(831,1619,l),
(1044,1877,l),
(1389,1877,l),
(1070,1619,l)
);
}
);
width = 1240;
},
{
layerId = "5F491846-7617-4B03-8CE4-FAFF8D3DA710";
shapes = (
{
closed = 1;
nodes = (
(1344,0,l),
(1474,385,l),
(1377,385,l),
(1207,70,l),
(1287,104,l),
(809,104,l),
(856,79,l),
(981,721,l),
(928,701,l),
(1250,701,l),
(1192,732,l),
(1200,530,l),
(1277,530,l),
(1363,971,l),
(1286,971,l),
(1199,769,l),
(1258,792,l),
(946,792,l),
(992,777,l),
(1112,1395,l),
(1074,1356,l),
(1501,1356,l),
(1435,1400,l),
(1483,1085,l),
(1580,1085,l),
(1598,1460,l),
(1001,1460,l),
(717,0,l)
);
},
{
closed = 1;
nodes = (
(870,447,l),
(890,552,l),
(367,552,l),
(347,447,l)
);
},
{
closed = 1;
nodes = (
(321,0,l),
(336,77,l),
(182,144,l),
(175,89,l),
(946,1356,l),
(1034,1356,l),
(1054,1460,l),
(894,1460,l),
(59,89,l),
(121,164,l),
(-38,77,l),
(-53,0,l)
);
},
{
closed = 1;
nodes = (
(1185,1652,l),
(1482,1884,l),
(1655,1884,l),
(1284,1652,l)
);
}
);
width = 1555;
},
{
layerId = "6B25F7AD-67F3-407A-A333-8CA62504B4E5";
shapes = (
{
closed = 1;
nodes = (
(1367,0,l),
(1475,372,l),
(1313,372,l),
(1200,157,l),
(1262,203,l),
(947,203,l),
(1000,132,l),
(1113,715,l),
(1028,650,l),
(1370,650,l),
(1320,695,l),
(1378,516,l),
(1468,516,l),
(1555,961,l),
(1465,961,l),
(1337,782,l),
(1408,830,l),
(1063,830,l),
(1125,779,l),
(1225,1291,l),
(1187,1258,l),
(1471,1258,l),
(1424,1301,l),
(1455,1086,l),
(1617,1086,l),
(1654,1460,l),
(958,1460,l),
(674,0,l)
);
},
{
closed = 1;
nodes = (
(767,339,l),
(804,528,l),
(319,528,l),
(282,339,l)
);
},
{
closed = 1;
nodes = (
(395,0,l),
(424,149,l),
(282,227,l),
(316,104,l),
(876,1258,l),
(988,1258,l),
(1027,1460,l),
(735,1460,l),
(73,104,l),
(179,222,l),
(11,149,l),
(-18,0,l)
);
},
{
closed = 1;
nodes = (
(1036,1619,l),
(1291,1918,l),
(1676,1918,l),
(1317,1619,l)
);
}
);
width = 1555;
},
{
layerId = "2935642B-2075-4830-97B8-D7DDAAAB1EBE";
shapes = (
{
closed = 1;
nodes = (
(1060,0,l),
(1190,385,l),
(1093,385,l),
(923,70,l),
(1003,104,l),
(609,104,l),
(656,79,l),
(781,721,l),
(728,701,l),
(966,701,l),
(908,732,l),
(916,530,l),
(993,530,l),
(1079,971,l),
(1002,971,l),
(915,769,l),
(974,792,l),
(746,792,l),
(792,777,l),
(912,1395,l),
(874,1356,l),
(1217,1356,l),
(1151,1400,l),
(1199,1085,l),
(1296,1085,l),
(1314,1460,l),
(801,1460,l),
(517,0,l)
);
},
{
closed = 1;
nodes = (
(669,447,l),
(689,552,l),
(286,552,l),
(266,447,l)
);
},
{
closed = 1;
nodes = (
(298,0,l),
(313,77,l),
(159,144,l),
(152,89,l),
(742,1356,l),
(828,1356,l),
(848,1460,l),
(687,1460,l),
(36,89,l),
(98,164,l),
(-61,77,l),
(-76,0,l)
);
},
{
closed = 1;
nodes = (
(950,1650,l),
(1197,1883,l),
(1357,1883,l),
(1039,1650,l)
);
}
);
width = 1240;
}
);
unicode = 508;
},
{
glyphname = B;
lastChange = "2024-05-08 18:01:48 +0000";
layers = (
{
layerId = "BEB83068-430F-4F93-8275-D4D4FE2C02C8";
shapes = (
{
closed = 1;
nodes = (
(581,0,ls),
(945,0,o),
(1126,171,o),
(1126,416,cs),
(1126,697,o),
(890,759,o),
(732,777,c),
(732,786,l),
(873,811,o),
(1030,919,o),
(1030,1128,cs),
(1030,1327,o),
(890,1460,o),
(627,1460,cs),
(76,1460,l),
(76,1383,l),
(277,1308,l),
(236,1372,l),
(236,90,l),
(259,144,l),
(76,77,l),
(76,0,l)
);
},
{
closed = 1;
nodes = (
(360,1417,l),
(298,1356,l),
(563,1356,ls),
(812,1356,o),
(894,1265,o),
(894,1119,cs),
(894,945,o),
(772,818,o),
(563,818,cs),
(325,818,l),
(325,726,l),
(563,726,ls),
(794,726,o),
(987,657,o),
(987,412,cs),
(987,201,o),
(835,104,o),
(563,104,cs),
(319,104,l),
(360,62,l)
);
}
);
width = 1240;
},
{
layerId = "3A752AAD-7068-4A08-8CFD-4D7C5CAE8856";
shapes = (
{
closed = 1;
nodes = (
(556,0,ls),
(828,0,o),
(1101,115,o),
(1157,401,cs),
(1202,632,o),
(1051,763,o),
(838,763,c),
(840,773,l),
(1021,788,o),
(1195,882,o),
(1240,1111,cs),
(1292,1378,o),
(1070,1460,o),
(806,1460,cs),
(225,1460,l),
(196,1311,l),
(339,1235,l),
(294,1357,l),
(50,103,l),
(148,227,l),
(-30,149,l),
(-59,0,l)
);
},
{
closed = 1;
nodes = (
(609,1313,l),
(537,1260,l),
(685,1260,ls),
(822,1260,o),
(899,1220,o),
(870,1070,cs),
(839,912,o),
(754,840,o),
(581,840,cs),
(371,840,l),
(333,644,l),
(565,644,ls),
(758,644,o),
(834,597,o),
(800,421,cs),
(763,234,o),
(637,203,o),
(479,203,cs),
(312,203,l),
(367,66,l)
);
}
);
width = 1240;
},
{
layerId = "5F491846-7617-4B03-8CE4-FAFF8D3DA710";
shapes = (
{
closed = 1;
nodes = (
(715,0,ls),
(1079,0,o),
(1338,162,o),
(1385,402,cs),
(1441,688,o),
(1190,751,o),
(997,777,c),
(999,786,l),
(1177,821,o),
(1391,911,o),
(1432,1120,cs),
(1470,1319,o),
(1318,1460,o),
(1045,1460,cs),
(287,1460,l),
(272,1383,l),
(498,1308,l),
(470,1372,l),
(220,90,l),
(254,144,l),
(18,77,l),
(3,0,l)
);
},
{
closed = 1;
nodes = (
(602,1417,l),
(529,1356,l),
(961,1356,ls),
(1210,1356,o),
(1324,1268,o),
(1295,1115,cs),
(1262,948,o),
(1065,818,o),
(856,818,cs),
(452,818,l),
(434,726,l),
(838,726,ls),
(1069,726,o),
(1299,661,o),
(1252,419,cs),
(1211,205,o),
(989,104,o),
(717,104,cs),
(306,104,l),
(339,62,l)
);
}
);
width = 1555;
},
{
layerId = "FC265EF4-F21D-45B5-9DC3-EEC98E8078A4";
shapes = (
{
closed = 1;
nodes = (
(812,0,ls),
(1176,0,o),
(1404,172,o),
(1404,412,cs),
(1404,698,o),
(1141,751,o),
(943,777,c),
(943,786,l),
(1114,821,o),
(1311,921,o),
(1311,1130,cs),
(1311,1329,o),
(1131,1460,o),
(858,1460,cs),
(100,1460,l),
(100,1383,l),
(341,1308,l),
(300,1372,l),
(300,90,l),
(323,144,l),
(100,77,l),
(100,0,l)
);
},
{
closed = 1;
nodes = (
(424,1417,l),
(362,1356,l),
(794,1356,ls),
(1043,1356,o),
(1175,1268,o),
(1175,1115,cs),
(1175,948,o),
(1003,818,o),
(794,818,cs),
(390,818,l),
(390,726,l),
(794,726,ls),
(1025,726,o),
(1268,661,o),
(1268,419,cs),
(1268,205,o),
(1066,104,o),
(794,104,cs),
(383,104,l),
(424,62,l)
);
}
);
width = 1555;
},
{
layerId = "E1CD64A1-112A-4516-A7DF-4EBEDF7D0C85";
shapes = (
{
closed = 1;
nodes = (
(894,0,ls),
(1166,0,o),
(1468,136,o),
(1468,417,cs),
(1468,653,o),
(1261,755,o),
(1008,763,c),
(1008,773,l),
(1216,798,o),
(1412,904,o),
(1412,1133,cs),
(1412,1400,o),
(1134,1460,o),
(860,1460,cs),
(72,1460,l),
(72,1311,l),
(270,1235,l),
(201,1357,l),
(201,103,l),
(275,227,l),
(72,149,l),
(72,0,l)
);
},
{
closed = 1;
nodes = (
(525,1313,l),
(463,1260,l),
(778,1260,ls),
(915,1260,o),
(1050,1223,o),
(1050,1066,cs),
(1050,915,o),
(929,840,o),
(756,840,cs),
(379,840,l),
(379,644,l),
(778,644,ls),
(971,644,o),
(1106,601,o),
(1106,428,cs),
(1106,238,o),
(936,203,o),
(778,203,cs),
(444,203,l),
(525,66,l)
);
}
);
width = 1555;
},
{
layerId = "6B25F7AD-67F3-407A-A333-8CA62504B4E5";
shapes = (
{
closed = 1;
nodes = (
(789,0,ls),
(1061,0,o),
(1387,126,o),
(1442,407,cs),
(1488,643,o),
(1303,755,o),
(1051,763,c),
(1053,773,l),
(1266,798,o),
(1481,894,o),
(1525,1123,cs),
(1577,1390,o),
(1313,1460,o),
(1039,1460,cs),
(251,1460,l),
(222,1311,l),
(405,1235,l),
(360,1357,l),
(116,103,l),
(214,227,l),
(-4,149,l),
(-33,0,l)
);
},
{
closed = 1;
nodes = (
(675,1313,l),
(603,1260,l),
(918,1260,ls),
(1055,1260,o),
(1183,1223,o),
(1152,1066,cs),
(1123,915,o),
(987,840,o),
(814,840,cs),
(437,840,l),
(399,644,l),
(798,644,ls),
(991,644,o),
(1118,601,o),
(1084,428,cs),
(1047,238,o),
(870,203,o),
(712,203,cs),
(378,203,l),
(433,66,l)
);
}
);
width = 1555;
},
{
layerId = "2935642B-2075-4830-97B8-D7DDAAAB1EBE";
shapes = (
{
closed = 1;
nodes = (
(484,0,ls),
(848,0,o),
(1060,161,o),
(1108,406,cs),
(1163,687,o),
(941,759,o),
(786,777,c),
(788,786,l),
(934,811,o),
(1110,909,o),
(1150,1118,cs),
(1189,1317,o),
(1077,1460,o),
(814,1460,cs),
(263,1460,l),
(248,1383,l),
(434,1308,l),
(406,1372,l),
(156,90,l),
(190,144,l),
(-6,77,l),
(-21,0,l)
);
},
{
closed = 1;
nodes = (
(538,1417,l),
(465,1356,l),
(730,1356,ls),
(979,1356,o),
(1043,1265,o),
(1015,1119,cs),
(981,945,o),
(834,818,o),
(625,818,cs),
(387,818,l),
(369,726,l),
(607,726,ls),
(838,726,o),
(1018,657,o),
(970,412,cs),
(929,201,o),
(758,104,o),
(486,104,cs),
(242,104,l),
(275,62,l)
);
}
);
width = 1240;
},
{
layerId = "C612A24F-6EED-4FC1-9F18-2B0E93FAFD61";
shapes = (
{
closed = 1;
nodes = (
(661,0,ls),
(933,0,o),
(1184,135,o),
(1184,421,cs),
(1184,652,o),
(1008,763,o),
(795,763,c),
(795,773,l),
(973,788,o),
(1129,902,o),
(1129,1131,cs),
(1129,1398,o),
(891,1460,o),
(627,1460,cs),
(46,1460,l),
(46,1311,l),
(204,1235,l),
(135,1357,l),
(135,103,l),
(209,227,l),
(46,149,l),
(46,0,l)
);
},
{
closed = 1;
nodes = (
(459,1313,l),
(397,1260,l),
(545,1260,ls),
(682,1260,o),
(767,1220,o),
(767,1070,cs),
(767,912,o),
(696,840,o),
(523,840,cs),
(313,840,l),
(313,644,l),
(545,644,ls),
(738,644,o),
(823,597,o),
(823,421,cs),
(823,234,o),
(703,203,o),
(545,203,cs),
(378,203,l),
(459,66,l)
);
}
);
width = 1240;
}
);
unicode = 66;
},
{
glyphname = C;
lastChange = "2024-05-08 18:01:48 +0000";
layers = (
{
layerId = "BEB83068-430F-4F93-8275-D4D4FE2C02C8";
shapes = (
{
closed = 1;
nodes = (
(822,-24,o),
(954,13,o),
(1035,53,c),
(1105,343,l),
(1023,366,l),
(1001,299,ls),
(955,160,o),
(854,75,o),
(687,73,cs),
(425,70,o),
(243,282,o),
(243,728,cs),
(243,1178,o),
(438,1390,o),
(701,1387,cs),
(867,1385,o),
(955,1300,o),
(1001,1161,cs),
(1023,1094,l),
(1105,1117,l),
(1035,1407,l),
(957,1447,o),
(852,1484,o),
(718,1484,cs),
(380,1484,o),
(103,1249,o),
(103,728,cs),
(103,211,o),
(350,-24,o),
(688,-24,cs)
);
}
);
width = 1240;
},
{
layerId = "3A752AAD-7068-4A08-8CFD-4D7C5CAE8856";
shapes = (
{
closed = 1;
nodes = (
(713,-23,o),
(843,1,o),
(983,44,c),
(1115,405,l),
(950,440,l),
(906,368,ls),
(822,231,o),
(724,170,o),
(611,171,cs),
(471,171,o),
(345,276,o),
(434,732,cs),
(524,1187,o),
(685,1291,o),
(816,1292,cs),
(927,1293,o),
(1019,1232,o),
(1049,1094,cs),
(1064,1022,l),
(1243,1058,l),
(1251,1419,l),
(1123,1470,o),
(995,1485,o),
(888,1485,cs),
(496,1485,o),
(197,1256,o),
(95,729,cs),
(-3,226,o),
(202,-23,o),
(585,-23,cs)
);
}
);
width = 1240;
},
{
layerId = "5F491846-7617-4B03-8CE4-FAFF8D3DA710";
shapes = (
{
closed = 1;
nodes = (
(960,-24,o),
(1114,13,o),
(1234,53,c),
(1379,343,l),
(1285,366,l),
(1237,299,ls),
(1139,162,o),
(995,73,o),
(786,73,cs),
(440,73,o),
(209,282,o),
(296,728,cs),
(383,1178,o),
(712,1390,o),
(1060,1387,cs),
(1261,1385,o),
(1365,1301,o),
(1407,1161,cs),
(1427,1094,l),
(1529,1117,l),
(1498,1407,l),
(1394,1447,o),
(1248,1484,o),
(1091,1484,cs),
(644,1484,o),
(259,1259,o),
(157,738,cs),
(57,221,o),
(344,-24,o),
(795,-24,cs)
);
}
);
width = 1555;
},
{
layerId = "FC265EF4-F21D-45B5-9DC3-EEC98E8078A4";
shapes = (
{
closed = 1;
nodes = (
(1052,-24,o),
(1208,13,o),
(1321,53,c),
(1409,343,l),
(1311,366,l),
(1276,299,ls),
(1205,162,o),
(1078,73,o),
(869,73,cs),
(523,73,o),
(251,282,o),
(251,728,cs),
(251,1178,o),
(539,1390,o),
(887,1387,cs),
(1089,1385,o),
(1209,1301,o),
(1278,1161,cs),
(1311,1094,l),
(1409,1117,l),
(1322,1407,l),
(1210,1447,o),
(1077,1484,o),
(920,1484,cs),
(473,1484,o),
(111,1249,o),
(111,728,cs),
(111,211,o),
(436,-24,o),
(887,-24,cs)
);
}
);
width = 1555;
},
{
layerId = "E1CD64A1-112A-4516-A7DF-4EBEDF7D0C85";
shapes = (
{
closed = 1;
nodes = (
(1051,-23,o),
(1201,1,o),
(1364,44,c),
(1444,405,l),
(1256,440,l),
(1213,368,ls),
(1132,233,o),
(1019,170,o),
(864,171,cs),
(640,171,o),
(407,276,o),
(407,732,cs),
(407,1187,o),
(639,1292,o),
(855,1292,cs),
(1002,1292,o),
(1140,1233,o),
(1217,1094,cs),
(1257,1022,l),
(1445,1058,l),
(1366,1419,l),
(1194,1470,o),
(1045,1485,o),
(915,1485,cs),
(414,1485,o),
(65,1246,o),
(65,719,cs),
(65,216,o),
(396,-23,o),
(892,-23,cs)
);
}
);
width = 1555;
},
{
layerId = "6B25F7AD-67F3-407A-A333-8CA62504B4E5";
shapes = (
{
closed = 1;
nodes = (
(952,-23,o),
(1096,1,o),
(1268,44,c),
(1418,405,l),
(1237,440,l),
(1180,368,ls),
(1072,233,o),
(947,170,o),
(792,171,cs),
(568,171,o),
(356,276,o),
(444,732,cs),
(533,1187,o),
(785,1292,o),
(1001,1292,cs),
(1148,1292,o),
(1275,1233,o),
(1325,1094,cs),
(1351,1022,l),
(1546,1058,l),
(1537,1419,l),
(1375,1470,o),
(1209,1485,o),
(1079,1485,cs),
(578,1485,o),
(204,1256,o),
(102,729,cs),
(4,226,o),
(297,-23,o),
(793,-23,cs)
);
}
);
width = 1555;
},
{
layerId = "2935642B-2075-4830-97B8-D7DDAAAB1EBE";
shapes = (
{
closed = 1;
nodes = (
(730,-24,o),
(860,13,o),
(948,53,c),
(1075,343,l),
(997,366,l),
(962,299,ls),
(889,160,o),
(772,75,o),
(604,73,cs),
(342,70,o),
(201,282,o),
(288,728,cs),
(375,1178,o),
(611,1390,o),
(874,1387,cs),
(1039,1385,o),
(1111,1300,o),
(1130,1161,cs),
(1139,1094,l),
(1225,1117,l),
(1211,1407,l),
(1141,1447,o),
(1033,1484,o),
(899,1484,cs),
(561,1484,o),
(251,1259,o),
(149,738,cs),
(49,221,o),
(258,-24,o),
(596,-24,cs)
);
}
);
width = 1240;
},
{
layerId = "C612A24F-6EED-4FC1-9F18-2B0E93FAFD61";
shapes = (
{
closed = 1;
nodes = (
(822,-23,o),
(948,1,o),
(1079,44,c),
(1141,405,l),
(969,440,l),
(939,368,ls),
(883,231,o),
(796,170,o),
(683,171,cs),
(543,171,o),
(396,276,o),
(397,732,cs),
(398,1187,o),
(539,1291,o),
(670,1292,cs),
(781,1293,o),
(884,1232,o),
(941,1094,cs),
(970,1022,l),
(1142,1058,l),
(1080,1419,l),
(942,1470,o),
(821,1485,o),
(714,1485,cs),
(322,1485,o),
(58,1246,o),
(58,719,cs),
(58,216,o),
(311,-23,o),
(694,-23,cs)
);
}
);
width = 1240;
}
);
unicode = 67;
},
{
glyphname = Cacute;
lastChange = "2024-05-08 18:01:49 +0000";
layers = (
{
layerId = "C612A24F-6EED-4FC1-9F18-2B0E93FAFD61";
shapes = (
{
closed = 1;
nodes = (
(822,-23,o),
(948,1,o),
(1079,44,c),
(1141,405,l),
(969,440,l),
(939,368,ls),
(883,231,o),
(796,170,o),
(683,171,cs),
(543,171,o),
(396,276,o),
(397,732,cs),
(398,1187,o),
(539,1291,o),
(670,1292,cs),
(781,1293,o),
(884,1232,o),
(941,1094,cs),
(970,1022,l),
(1142,1058,l),
(1080,1419,l),
(942,1470,o),
(821,1485,o),
(714,1485,cs),
(322,1485,o),
(58,1246,o),
(58,719,cs),
(58,216,o),
(311,-23,o),
(694,-23,cs)
);
},
{
closed = 1;
nodes = (
(505,1619.05,l),
(668,1877.386,l),
(1013,1877.386,l),
(744,1619.05,l)
);
}
);
width = 1240;
},
{
layerId = "FC265EF4-F21D-45B5-9DC3-EEC98E8078A4";
shapes = (
{
closed = 1;
nodes = (
(1052,-24,o),
(1208,13,o),
(1321,53,c),
(1409,343,l),
(1311,366,l),
(1276,299,ls),
(1205,162,o),
(1078,73,o),
(869,73,cs),
(523,73,o),
(251,282,o),
(251,728,cs),
(251,1178,o),
(539,1390,o),
(887,1387,cs),
(1089,1385,o),
(1209,1301,o),
(1278,1161,cs),
(1311,1094,l),
(1409,1117,l),
(1322,1407,l),
(1210,1447,o),
(1077,1484,o),
(920,1484,cs),
(473,1484,o),
(111,1249,o),
(111,728,cs),
(111,211,o),
(436,-24,o),
(887,-24,cs)
);
},
{
closed = 1;
nodes = (
(725,1652,l),
(977,1884,l),
(1150,1884,l),
(824,1652,l)
);
}
);
width = 1555;
},
{
layerId = "E1CD64A1-112A-4516-A7DF-4EBEDF7D0C85";
shapes = (
{
closed = 1;
nodes = (
(1051,-23,o),
(1201,1,o),
(1364,44,c),
(1444,405,l),
(1256,440,l),
(1213,368,ls),
(1132,233,o),
(1019,170,o),
(864,171,cs),
(640,171,o),
(407,276,o),
(407,732,cs),
(407,1187,o),
(639,1292,o),
(855,1292,cs),
(1002,1292,o),
(1140,1233,o),
(1217,1094,cs),
(1257,1022,l),
(1445,1058,l),
(1366,1419,l),
(1194,1470,o),
(1045,1485,o),
(915,1485,cs),
(414,1485,o),
(65,1246,o),
(65,719,cs),
(65,216,o),
(396,-23,o),
(892,-23,cs)
);
},
{
closed = 1;
nodes = (
(722,1619,l),
(919,1918,l),
(1304,1918,l),
(1003,1619,l)
);
}
);
width = 1555;
},
{
layerId = "BEB83068-430F-4F93-8275-D4D4FE2C02C8";
shapes = (
{
closed = 1;
nodes = (
(822,-24,o),
(954,13,o),
(1035,53,c),
(1105,343,l),
(1023,366,l),
(1001,299,ls),
(955,160,o),
(854,75,o),
(687,73,cs),
(425,70,o),
(243,282,o),
(243,728,cs),
(243,1178,o),
(438,1390,o),
(701,1387,cs),
(867,1385,o),
(955,1300,o),
(1001,1161,cs),
(1023,1094,l),
(1105,1117,l),
(1035,1407,l),
(957,1447,o),
(852,1484,o),
(718,1484,cs),
(380,1484,o),
(103,1249,o),
(103,728,cs),
(103,211,o),
(350,-24,o),
(688,-24,cs)
);
},
{
closed = 1;
nodes = (
(566,1650.191,l),
(768,1883.236,l),
(928,1883.236,l),
(655,1650.191,l)
);
}
);
width = 1240;
},
{
layerId = "3A752AAD-7068-4A08-8CFD-4D7C5CAE8856";
shapes = (
{
closed = 1;
nodes = (
(713,-23,o),
(843,1,o),
(983,44,c),
(1115,405,l),
(950,440,l),
(906,368,ls),
(822,231,o),
(724,170,o),
(611,171,cs),
(471,171,o),
(345,276,o),
(434,732,cs),
(524,1187,o),
(685,1291,o),
(816,1292,cs),
(927,1293,o),
(1019,1232,o),
(1049,1094,cs),
(1064,1022,l),
(1243,1058,l),
(1251,1419,l),
(1123,1470,o),
(995,1485,o),
(888,1485,cs),
(496,1485,o),
(197,1256,o),
(95,729,cs),
(-3,226,o),
(202,-23,o),
(585,-23,cs)
);
},
{
closed = 1;
nodes = (
(715,1619,l),
(928,1877,l),
(1273,1877,l),
(954,1619,l)
);
}
);
width = 1240;
},
{
layerId = "5F491846-7617-4B03-8CE4-FAFF8D3DA710";
shapes = (
{
closed = 1;
nodes = (
(960,-24,o),
(1114,13,o),
(1234,53,c),
(1379,343,l),
(1285,366,l),
(1237,299,ls),
(1139,162,o),
(995,73,o),
(786,73,cs),
(440,73,o),
(209,282,o),
(296,728,cs),
(383,1178,o),
(712,1390,o),
(1060,1387,cs),
(1261,1385,o),
(1365,1301,o),
(1407,1161,cs),
(1427,1094,l),
(1529,1117,l),
(1498,1407,l),
(1394,1447,o),
(1248,1484,o),
(1091,1484,cs),
(644,1484,o),
(259,1259,o),
(157,738,cs),
(57,221,o),
(344,-24,o),
(795,-24,cs)
);
},
{
closed = 1;
nodes = (
(949,1652,l),
(1246,1884,l),
(1419,1884,l),
(1048,1652,l)
);
}
);
width = 1555;
},
{
layerId = "6B25F7AD-67F3-407A-A333-8CA62504B4E5";
shapes = (
{
closed = 1;
nodes = (
(952,-23,o),
(1096,1,o),
(1268,44,c),
(1418,405,l),
(1237,440,l),
(1180,368,ls),
(1072,233,o),
(947,170,o),
(792,171,cs),
(568,171,o),
(356,276,o),
(444,732,cs),
(533,1187,o),
(785,1292,o),
(1001,1292,cs),
(1148,1292,o),
(1275,1233,o),
(1325,1094,cs),
(1351,1022,l),
(1546,1058,l),
(1537,1419,l),
(1375,1470,o),
(1209,1485,o),
(1079,1485,cs),
(578,1485,o),
(204,1256,o),
(102,729,cs),
(4,226,o),
(297,-23,o),
(793,-23,cs)
);
},
{
closed = 1;
nodes = (
(932,1619,l),
(1187,1918,l),
(1572,1918,l),
(1213,1619,l)
);
}
);
width = 1555;
},
{
layerId = "2935642B-2075-4830-97B8-D7DDAAAB1EBE";
shapes = (
{
closed = 1;
nodes = (
(730,-24,o),
(860,13,o),
(948,53,c),
(1075,343,l),
(997,366,l),
(962,299,ls),
(889,160,o),
(772,75,o),
(604,73,cs),
(342,70,o),
(201,282,o),
(288,728,cs),
(375,1178,o),
(611,1390,o),
(874,1387,cs),
(1039,1385,o),
(1111,1300,o),
(1130,1161,cs),
(1139,1094,l),
(1225,1117,l),
(1211,1407,l),
(1141,1447,o),
(1033,1484,o),
(899,1484,cs),
(561,1484,o),
(251,1259,o),
(149,738,cs),
(49,221,o),
(258,-24,o),
(596,-24,cs)
);
},
{
closed = 1;
nodes = (
(790,1650,l),
(1037,1883,l),
(1197,1883,l),
(879,1650,l)
);
}
);
width = 1240;
}
);
unicode = 262;
},
{
glyphname = Ccaron;
lastChange = "2024-05-08 18:01:49 +0000";
layers = (
{
layerId = "C612A24F-6EED-4FC1-9F18-2B0E93FAFD61";
shapes = (
{
closed = 1;
nodes = (
(822,-23,o),
(948,1,o),
(1079,44,c),
(1141,405,l),
(969,440,l),
(939,368,ls),
(883,231,o),
(796,170,o),
(683,171,cs),
(543,171,o),
(396,276,o),
(397,732,cs),
(398,1187,o),
(539,1291,o),
(670,1292,cs),
(781,1293,o),
(884,1232,o),
(941,1094,cs),
(970,1022,l),
(1142,1058,l),
(1080,1419,l),
(942,1470,o),
(821,1485,o),
(714,1485,cs),
(322,1485,o),
(58,1246,o),
(58,719,cs),
(58,216,o),
(311,-23,o),
(694,-23,cs)
);
},
{
closed = 1;
nodes = (
(453,1878,l),
(644,1734,l),
(596,1734,l),
(787,1878,l),
(1001,1878,l),
(813,1620,l),
(427,1620,l),
(239,1878,l)
);
}
);
width = 1240;
},
{
layerId = "FC265EF4-F21D-45B5-9DC3-EEC98E8078A4";
shapes = (
{
closed = 1;
nodes = (
(1052,-24,o),
(1208,13,o),
(1321,53,c),
(1409,343,l),
(1311,366,l),
(1276,299,ls),
(1205,162,o),
(1078,73,o),
(869,73,cs),
(523,73,o),
(251,282,o),
(251,728,cs),
(251,1178,o),
(539,1390,o),
(887,1387,cs),
(1089,1385,o),
(1209,1301,o),
(1278,1161,cs),
(1311,1094,l),
(1409,1117,l),
(1322,1407,l),
(1210,1447,o),
(1077,1484,o),
(920,1484,cs),
(473,1484,o),
(111,1249,o),
(111,728,cs),
(111,211,o),
(436,-24,o),
(887,-24,cs)
);
},
{
closed = 1;
nodes = (
(520,1883,l),
(815,1724,l),
(753,1724,l),
(1049,1883,l),
(1156,1883,l),
(862,1650,l),
(706,1650,l),
(413,1883,l)
);
}
);
width = 1555;
},
{
layerId = "E1CD64A1-112A-4516-A7DF-4EBEDF7D0C85";
shapes = (
{
closed = 1;
nodes = (
(1051,-23,o),
(1201,1,o),
(1364,44,c),
(1444,405,l),
(1256,440,l),
(1213,368,ls),
(1132,233,o),
(1019,170,o),
(864,171,cs),
(640,171,o),
(407,276,o),
(407,732,cs),
(407,1187,o),
(639,1292,o),
(855,1292,cs),
(1002,1292,o),
(1140,1233,o),
(1217,1094,cs),
(1257,1022,l),
(1445,1058,l),
(1366,1419,l),
(1194,1470,o),
(1045,1485,o),
(915,1485,cs),
(414,1485,o),
(65,1246,o),
(65,719,cs),
(65,216,o),
(396,-23,o),
(892,-23,cs)
);
},
{
closed = 1;
nodes = (
(637,1908,l),
(887,1762,l),
(819,1762,l),
(1070,1908,l),
(1324,1908,l),
(1046,1620,l),
(660,1620,l),
(383,1908,l)
);
}
);
width = 1555;
},
{
layerId = "BEB83068-430F-4F93-8275-D4D4FE2C02C8";
shapes = (
{
closed = 1;
nodes = (
(822,-24,o),
(954,13,o),
(1035,53,c),
(1105,343,l),
(1023,366,l),
(1001,299,ls),
(955,160,o),
(854,75,o),
(687,73,cs),
(425,70,o),
(243,282,o),
(243,728,cs),
(243,1178,o),
(438,1390,o),
(701,1387,cs),
(867,1385,o),
(955,1300,o),
(1001,1161,cs),
(1023,1094,l),
(1105,1117,l),
(1035,1407,l),
(957,1447,o),
(852,1484,o),
(718,1484,cs),
(380,1484,o),
(103,1249,o),
(103,728,cs),
(103,211,o),
(350,-24,o),
(688,-24,cs)
);
},
{
closed = 1;
nodes = (
(409,1883,l),
(648,1719,l),
(592,1719,l),
(831,1883,l),
(922,1883,l),
(678,1650,l),
(562,1650,l),
(318,1883,l)
);
}
);
width = 1240;
},
{
layerId = "3A752AAD-7068-4A08-8CFD-4D7C5CAE8856";
shapes = (
{
closed = 1;
nodes = (
(713,-23,o),
(843,1,o),
(983,44,c),
(1115,405,l),
(950,440,l),
(906,368,ls),
(822,231,o),
(724,170,o),
(611,171,cs),
(471,171,o),
(345,276,o),
(434,732,cs),
(524,1187,o),
(685,1291,o),
(816,1292,cs),
(927,1293,o),
(1019,1232,o),
(1049,1094,cs),
(1064,1022,l),
(1243,1058,l),
(1251,1419,l),
(1123,1470,o),
(995,1485,o),
(888,1485,cs),
(496,1485,o),
(197,1256,o),
(95,729,cs),
(-3,226,o),
(202,-23,o),
(585,-23,cs)
);
},
{
closed = 1;
nodes = (
(713,1878,l),
(876,1734,l),
(828,1734,l),
(1047,1878,l),
(1261,1878,l),
(1023,1620,l),
(637,1620,l),
(499,1878,l)
);
}
);
width = 1240;
},
{
layerId = "5F491846-7617-4B03-8CE4-FAFF8D3DA710";
shapes = (
{
closed = 1;
nodes = (
(960,-24,o),
(1114,13,o),
(1234,53,c),
(1379,343,l),
(1285,366,l),
(1237,299,ls),
(1139,162,o),
(995,73,o),
(786,73,cs),
(440,73,o),
(209,282,o),
(296,728,cs),
(383,1178,o),
(712,1390,o),
(1060,1387,cs),
(1261,1385,o),
(1365,1301,o),
(1407,1161,cs),
(1427,1094,l),
(1529,1117,l),
(1498,1407,l),
(1394,1447,o),
(1248,1484,o),
(1091,1484,cs),
(644,1484,o),
(259,1259,o),
(157,738,cs),
(57,221,o),
(344,-24,o),
(795,-24,cs)
);
},
{
closed = 1;
nodes = (
(789,1883,l),
(1053,1724,l),
(991,1724,l),
(1318,1883,l),
(1425,1883,l),
(1086,1650,l),
(930,1650,l),
(682,1883,l)
);
}
);
width = 1555;
},
{
layerId = "6B25F7AD-67F3-407A-A333-8CA62504B4E5";
shapes = (
{
closed = 1;
nodes = (
(952,-23,o),
(1096,1,o),
(1268,44,c),
(1418,405,l),
(1237,440,l),
(1180,368,ls),
(1072,233,o),
(947,170,o),
(792,171,cs),
(568,171,o),
(356,276,o),
(444,732,cs),
(533,1187,o),
(785,1292,o),
(1001,1292,cs),
(1148,1292,o),
(1275,1233,o),
(1325,1094,cs),
(1351,1022,l),
(1546,1058,l),
(1537,1419,l),
(1375,1470,o),
(1209,1485,o),
(1079,1485,cs),
(578,1485,o),
(204,1256,o),
(102,729,cs),
(4,226,o),
(297,-23,o),
(793,-23,cs)
);
},
{
closed = 1;
nodes = (
(903,1908,l),
(1124,1762,l),
(1056,1762,l),
(1336,1908,l),
(1590,1908,l),
(1256,1620,l),
(870,1620,l),
(649,1908,l)
);
}
);
width = 1555;
},
{
layerId = "2935642B-2075-4830-97B8-D7DDAAAB1EBE";
shapes = (
{
closed = 1;
nodes = (
(730,-24,o),
(860,13,o),
(948,53,c),
(1075,343,l),
(997,366,l),
(962,299,ls),
(889,160,o),
(772,75,o),
(604,73,cs),
(342,70,o),
(201,282,o),
(288,728,cs),
(375,1178,o),
(611,1390,o),
(874,1387,cs),
(1039,1385,o),
(1111,1300,o),
(1130,1161,cs),
(1139,1094,l),
(1225,1117,l),
(1211,1407,l),
(1141,1447,o),
(1033,1484,o),
(899,1484,cs),
(561,1484,o),
(251,1259,o),
(149,738,cs),
(49,221,o),
(258,-24,o),
(596,-24,cs)
);
},
{
closed = 1;
nodes = (
(678,1883,l),
(885,1719,l),
(829,1719,l),
(1100,1883,l),
(1191,1883,l),
(902,1650,l),
(786,1650,l),
(587,1883,l)
);
}
);
width = 1240;
}
);
unicode = 268;
},
{
glyphname = Ccedilla;
lastChange = "2024-05-08 18:01:49 +0000";
layers = (
{
layerId = "C612A24F-6EED-4FC1-9F18-2B0E93FAFD61";
shapes = (
{
closed = 1;
nodes = (
(822,-23,o),
(948,1,o),
(1079,44,c),
(1141,405,l),
(969,440,l),
(939,368,ls),
(883,231,o),
(796,170,o),
(683,171,cs),
(543,171,o),
(396,276,o),
(397,732,cs),
(398,1187,o),
(539,1291,o),
(670,1292,cs),
(781,1293,o),
(884,1232,o),
(941,1094,cs),
(970,1022,l),
(1142,1058,l),
(1080,1419,l),
(942,1470,o),
(821,1485,o),
(714,1485,cs),
(322,1485,o),
(58,1246,o),
(58,719,cs),
(58,216,o),
(311,-23,o),
(694,-23,cs)
);
},
{
closed = 1;
nodes = (
(552,-637,ls),
(822,-637,o),
(908,-531,o),
(908,-400,cs),
(908,-266,o),
(818,-193,o),
(681,-166,c),
(712,-224,l),
(712,48,l),
(528,48,l),
(528,-270,l),
(611,-278,o),
(668,-323,o),
(668,-404,cs),
(668,-471,o),
(628,-516,o),
(527,-516,cs),
(458,-516,l),
(458,-637,l)
);
}
);
width = 1240;
},
{
layerId = "FC265EF4-F21D-45B5-9DC3-EEC98E8078A4";
shapes = (
{
closed = 1;
nodes = (
(1052,-24,o),
(1208,13,o),
(1321,53,c),
(1409,343,l),
(1311,366,l),
(1276,299,ls),
(1205,162,o),
(1078,73,o),
(869,73,cs),
(523,73,o),
(251,282,o),
(251,728,cs),
(251,1178,o),
(539,1390,o),
(887,1387,cs),
(1089,1385,o),
(1209,1301,o),
(1278,1161,cs),
(1311,1094,l),
(1409,1117,l),
(1322,1407,l),
(1210,1447,o),
(1077,1484,o),
(920,1484,cs),
(473,1484,o),
(111,1249,o),
(111,728,cs),
(111,211,o),
(436,-24,o),
(887,-24,cs)
);
},
{
closed = 1;
nodes = (
(732,-582,ls),
(992,-582,o),
(1096,-511,o),
(1096,-391,cs),
(1096,-268,o),
(988,-202,o),
(801,-183,c),
(832,-235,l),
(832,48,l),
(738,48,l),
(738,-263,l),
(885,-274,o),
(966,-316,o),
(966,-387,cs),
(966,-455,o),
(891,-511,o),
(727,-511,cs),
(638,-511,l),
(638,-582,l)
);
}
);
width = 1555;
},
{
layerId = "E1CD64A1-112A-4516-A7DF-4EBEDF7D0C85";
shapes = (
{
closed = 1;
nodes = (
(1051,-23,o),
(1201,1,o),
(1364,44,c),
(1444,405,l),
(1256,440,l),
(1213,368,ls),
(1132,233,o),
(1019,170,o),
(864,171,cs),
(640,171,o),
(407,276,o),
(407,732,cs),
(407,1187,o),
(639,1292,o),
(855,1292,cs),
(1002,1292,o),
(1140,1233,o),
(1217,1094,cs),
(1257,1022,l),
(1445,1058,l),
(1366,1419,l),
(1194,1470,o),
(1045,1485,o),
(915,1485,cs),
(414,1485,o),
(65,1246,o),
(65,719,cs),
(65,216,o),
(396,-23,o),
(892,-23,cs)
);
},
{
closed = 1;
nodes = (
(711,-693,ls),
(1042,-693,o),
(1136,-584,o),
(1136,-434,cs),
(1136,-277,o),
(1035,-195,o),
(861,-167,c),
(875,-227,l),
(875,48,l),
(691,48,l),
(691,-297,l),
(810,-304,o),
(887,-354,o),
(887,-428,cs),
(887,-494,o),
(826,-551,o),
(684,-551,cs),
(595,-551,l),
(595,-693,l)
);
}
);
width = 1555;
},
{
layerId = "BEB83068-430F-4F93-8275-D4D4FE2C02C8";
shapes = (
{
closed = 1;
nodes = (
(822,-24,o),
(954,13,o),
(1035,53,c),
(1105,343,l),
(1023,366,l),
(1001,299,ls),
(955,160,o),
(854,75,o),
(687,73,cs),
(425,70,o),
(243,282,o),
(243,728,cs),
(243,1178,o),
(438,1390,o),
(701,1387,cs),
(867,1385,o),
(955,1300,o),
(1001,1161,cs),
(1023,1094,l),
(1105,1117,l),
(1035,1407,l),
(957,1447,o),
(852,1484,o),
(718,1484,cs),
(380,1484,o),
(103,1249,o),
(103,728,cs),
(103,211,o),
(350,-24,o),
(688,-24,cs)
);
},
{
closed = 1;
nodes = (
(578,-565,ls),
(758,-565,o),
(850,-498,o),
(850,-379,cs),
(850,-256,o),
(754,-198,o),
(637,-179,c),
(668,-228,l),
(668,48,l),
(574,48,l),
(574,-255,l),
(675,-265,o),
(721,-306,o),
(721,-378,cs),
(721,-443,o),
(683,-491,o),
(553,-491,cs),
(514,-491,l),
(514,-565,l)
);
}
);
width = 1240;
},
{
layerId = "3A752AAD-7068-4A08-8CFD-4D7C5CAE8856";
shapes = (
{
closed = 1;
nodes = (
(713,-23,o),
(843,1,o),
(983,44,c),
(1115,405,l),
(950,440,l),
(906,368,ls),
(822,231,o),
(724,170,o),
(611,171,cs),
(471,171,o),
(345,276,o),
(434,732,cs),
(524,1187,o),
(685,1291,o),
(816,1292,cs),
(927,1293,o),
(1019,1232,o),
(1049,1094,cs),
(1064,1022,l),
(1243,1058,l),
(1251,1419,l),
(1123,1470,o),
(995,1485,o),
(888,1485,cs),
(496,1485,o),
(197,1256,o),
(95,729,cs),
(-3,226,o),
(202,-23,o),
(585,-23,cs)
);
},
{
closed = 1;
nodes = (
(323,-637,ls),
(593,-637,o),
(700,-531,o),
(725,-400,cs),
(751,-266,o),
(675,-193,o),
(544,-166,c),
(563,-224,l),
(616,48,l),
(432,48,l),
(371,-270,l),
(452,-278,o),
(500,-323,o),
(484,-404,cs),
(471,-471,o),
(423,-516,o),
(322,-516,cs),
(253,-516,l),
(229,-637,l)
);
}
);
width = 1240;
},
{
layerId = "5F491846-7617-4B03-8CE4-FAFF8D3DA710";
shapes = (
{
closed = 1;
nodes = (
(960,-24,o),
(1114,13,o),
(1234,53,c),
(1379,343,l),
(1285,366,l),
(1237,299,ls),
(1139,162,o),
(995,73,o),
(786,73,cs),
(440,73,o),
(209,282,o),
(296,728,cs),
(383,1178,o),
(712,1390,o),
(1060,1387,cs),
(1261,1385,o),
(1365,1301,o),
(1407,1161,cs),
(1427,1094,l),
(1529,1117,l),
(1498,1407,l),
(1394,1447,o),
(1248,1484,o),
(1091,1484,cs),
(644,1484,o),
(259,1259,o),
(157,738,cs),
(57,221,o),
(344,-24,o),
(795,-24,cs)
);
},
{
closed = 1;
nodes = (
(522,-582,ls),
(782,-582,o),
(900,-511,o),
(923,-391,cs),
(947,-268,o),
(852,-202,o),
(668,-183,c),
(689,-235,l),
(744,48,l),
(650,48,l),
(590,-263,l),
(735,-274,o),
(808,-316,o),
(794,-387,cs),
(781,-455,o),
(695,-511,o),
(531,-511,cs),
(442,-511,l),
(428,-582,l)
);
}
);
width = 1555;
},
{
layerId = "6B25F7AD-67F3-407A-A333-8CA62504B4E5";
shapes = (
{
closed = 1;
nodes = (
(952,-23,o),
(1096,1,o),
(1268,44,c),
(1418,405,l),
(1237,440,l),
(1180,368,ls),
(1072,233,o),
(947,170,o),
(792,171,cs),
(568,171,o),
(356,276,o),
(444,732,cs),
(533,1187,o),
(785,1292,o),
(1001,1292,cs),
(1148,1292,o),
(1275,1233,o),
(1325,1094,cs),
(1351,1022,l),
(1546,1058,l),
(1537,1419,l),
(1375,1470,o),
(1209,1485,o),
(1079,1485,cs),
(578,1485,o),
(204,1256,o),
(102,729,cs),
(4,226,o),
(297,-23,o),
(793,-23,cs)
);
},
{
closed = 1;
nodes = (
(471,-693,ls),
(802,-693,o),
(917,-584,o),
(947,-434,cs),
(977,-277,o),
(892,-195,o),
(724,-167,c),
(726,-227,l),
(779,48,l),
(595,48,l),
(528,-297,l),
(646,-304,o),
(713,-354,o),
(699,-428,cs),
(686,-494,o),
(614,-551,o),
(472,-551,cs),
(383,-551,l),
(355,-693,l)
);
}
);
width = 1555;
},
{
layerId = "2935642B-2075-4830-97B8-D7DDAAAB1EBE";
shapes = (
{
closed = 1;
nodes = (
(730,-24,o),
(860,13,o),
(948,53,c),
(1075,343,l),
(997,366,l),
(962,299,ls),
(889,160,o),
(772,75,o),
(604,73,cs),
(342,70,o),
(201,282,o),
(288,728,cs),
(375,1178,o),
(611,1390,o),
(874,1387,cs),
(1039,1385,o),
(1111,1300,o),
(1130,1161,cs),
(1139,1094,l),
(1225,1117,l),
(1211,1407,l),
(1141,1447,o),
(1033,1484,o),
(899,1484,cs),
(561,1484,o),
(251,1259,o),
(149,738,cs),
(49,221,o),
(258,-24,o),
(596,-24,cs)
);
},
{
closed = 1;
nodes = (
(371,-565,ls),
(551,-565,o),
(656,-498,o),
(679,-379,cs),
(703,-256,o),
(619,-198,o),
(505,-179,c),
(527,-228,l),
(580,48,l),
(486,48,l),
(427,-255,l),
(526,-265,o),
(565,-306,o),
(551,-378,cs),
(538,-443,o),
(491,-491,o),
(361,-491,cs),
(322,-491,l),
(307,-565,l)
);
}
);
width = 1240;
}
);
unicode = 199;
},
{
glyphname = Ccircumflex;
lastChange = "2024-05-08 18:01:49 +0000";
layers = (
{
layerId = "C612A24F-6EED-4FC1-9F18-2B0E93FAFD61";
shapes = (
{
closed = 1;
nodes = (
(822,-23,o),
(948,1,o),
(1079,44,c),
(1141,405,l),
(969,440,l),
(939,368,ls),
(883,231,o),
(796,170,o),
(683,171,cs),
(543,171,o),
(396,276,o),
(397,732,cs),
(398,1187,o),
(539,1291,o),
(670,1292,cs),
(781,1293,o),
(884,1232,o),
(941,1094,cs),
(970,1022,l),
(1142,1058,l),
(1080,1419,l),
(942,1470,o),
(821,1485,o),
(714,1485,cs),
(322,1485,o),
(58,1246,o),
(58,719,cs),
(58,216,o),
(311,-23,o),
(694,-23,cs)
);
},
{
closed = 1;
nodes = (
(453,1620,l),
(644,1764,l),
(596,1764,l),
(787,1620,l),
(1001,1620,l),
(813,1878,l),
(427,1878,l),
(239,1620,l)
);
}
);
width = 1240;
},
{
layerId = "FC265EF4-F21D-45B5-9DC3-EEC98E8078A4";
shapes = (
{
closed = 1;
nodes = (
(1052,-24,o),
(1208,13,o),
(1321,53,c),
(1409,343,l),
(1311,366,l),
(1276,299,ls),
(1205,162,o),
(1078,73,o),
(869,73,cs),
(523,73,o),
(251,282,o),
(251,728,cs),
(251,1178,o),
(539,1390,o),
(887,1387,cs),
(1089,1385,o),
(1209,1301,o),
(1278,1161,cs),
(1311,1094,l),
(1409,1117,l),
(1322,1407,l),
(1210,1447,o),
(1077,1484,o),
(920,1484,cs),
(473,1484,o),
(111,1249,o),
(111,728,cs),
(111,211,o),
(436,-24,o),
(887,-24,cs)
);
},
{
closed = 1;
nodes = (
(520,1650,l),
(815,1809,l),
(753,1809,l),
(1049,1650,l),
(1156,1650,l),
(862,1883,l),
(706,1883,l),
(413,1650,l)
);
}
);
width = 1555;
},
{
layerId = "E1CD64A1-112A-4516-A7DF-4EBEDF7D0C85";
shapes = (
{
closed = 1;
nodes = (
(1051,-23,o),
(1201,1,o),
(1364,44,c),
(1444,405,l),
(1256,440,l),
(1213,368,ls),
(1132,233,o),
(1019,170,o),
(864,171,cs),
(640,171,o),
(407,276,o),
(407,732,cs),
(407,1187,o),
(639,1292,o),
(855,1292,cs),
(1002,1292,o),
(1140,1233,o),
(1217,1094,cs),
(1257,1022,l),
(1445,1058,l),
(1366,1419,l),
(1194,1470,o),
(1045,1485,o),
(915,1485,cs),
(414,1485,o),
(65,1246,o),
(65,719,cs),
(65,216,o),
(396,-23,o),
(892,-23,cs)
);
},
{
closed = 1;
nodes = (
(637,1620,l),
(887,1766,l),
(819,1766,l),
(1070,1620,l),
(1324,1620,l),
(1046,1908,l),
(660,1908,l),
(383,1620,l)
);
}
);
width = 1555;
},
{
layerId = "BEB83068-430F-4F93-8275-D4D4FE2C02C8";
shapes = (
{
closed = 1;
nodes = (
(822,-24,o),
(954,13,o),
(1035,53,c),
(1105,343,l),
(1023,366,l),
(1001,299,ls),
(955,160,o),
(854,75,o),
(687,73,cs),
(425,70,o),
(243,282,o),
(243,728,cs),
(243,1178,o),
(438,1390,o),
(701,1387,cs),
(867,1385,o),
(955,1300,o),
(1001,1161,cs),
(1023,1094,l),
(1105,1117,l),
(1035,1407,l),
(957,1447,o),
(852,1484,o),
(718,1484,cs),
(380,1484,o),
(103,1249,o),
(103,728,cs),
(103,211,o),
(350,-24,o),
(688,-24,cs)
);
},
{
closed = 1;
nodes = (
(409,1650,l),
(648,1814,l),
(592,1814,l),
(831,1650,l),
(922,1650,l),
(678,1883,l),
(562,1883,l),
(318,1650,l)
);
}
);
width = 1240;
},
{
layerId = "3A752AAD-7068-4A08-8CFD-4D7C5CAE8856";
shapes = (
{
closed = 1;
nodes = (
(713,-23,o),
(843,1,o),
(983,44,c),
(1115,405,l),
(950,440,l),
(906,368,ls),
(822,231,o),
(724,170,o),
(611,171,cs),
(471,171,o),
(345,276,o),
(434,732,cs),
(524,1187,o),
(685,1291,o),
(816,1292,cs),
(927,1293,o),
(1019,1232,o),
(1049,1094,cs),
(1064,1022,l),
(1243,1058,l),
(1251,1419,l),
(1123,1470,o),
(995,1485,o),
(888,1485,cs),
(496,1485,o),
(197,1256,o),
(95,729,cs),
(-3,226,o),
(202,-23,o),
(585,-23,cs)
);
},
{
closed = 1;
nodes = (
(663,1620,l),
(882,1764,l),
(834,1764,l),
(997,1620,l),
(1211,1620,l),
(1073,1878,l),
(687,1878,l),
(449,1620,l)
);
}
);
width = 1240;
},
{
layerId = "5F491846-7617-4B03-8CE4-FAFF8D3DA710";
shapes = (
{
closed = 1;
nodes = (
(960,-24,o),
(1114,13,o),
(1234,53,c),
(1379,343,l),
(1285,366,l),
(1237,299,ls),
(1139,162,o),
(995,73,o),
(786,73,cs),
(440,73,o),
(209,282,o),
(296,728,cs),
(383,1178,o),
(712,1390,o),
(1060,1387,cs),
(1261,1385,o),
(1365,1301,o),
(1407,1161,cs),
(1427,1094,l),
(1529,1117,l),
(1498,1407,l),
(1394,1447,o),
(1248,1484,o),
(1091,1484,cs),
(644,1484,o),
(259,1259,o),
(157,738,cs),
(57,221,o),
(344,-24,o),
(795,-24,cs)
);
},
{
closed = 1;
nodes = (
(744,1650,l),
(1070,1809,l),
(1008,1809,l),
(1273,1650,l),
(1380,1650,l),
(1131,1883,l),
(975,1883,l),
(637,1650,l)
);
}
);
width = 1555;
},
{
layerId = "6B25F7AD-67F3-407A-A333-8CA62504B4E5";
shapes = (
{
closed = 1;
nodes = (
(952,-23,o),
(1096,1,o),
(1268,44,c),
(1418,405,l),
(1237,440,l),
(1180,368,ls),
(1072,233,o),
(947,170,o),
(792,171,cs),
(568,171,o),
(356,276,o),
(444,732,cs),
(533,1187,o),
(785,1292,o),
(1001,1292,cs),
(1148,1292,o),
(1275,1233,o),
(1325,1094,cs),
(1351,1022,l),
(1546,1058,l),
(1537,1419,l),
(1375,1470,o),
(1209,1485,o),
(1079,1485,cs),
(578,1485,o),
(204,1256,o),
(102,729,cs),
(4,226,o),
(297,-23,o),
(793,-23,cs)
);
},
{
closed = 1;
nodes = (
(847,1620,l),
(1125,1766,l),
(1057,1766,l),
(1280,1620,l),
(1534,1620,l),
(1312,1908,l),
(926,1908,l),
(593,1620,l)
);
}
);
width = 1555;
},
{
layerId = "2935642B-2075-4830-97B8-D7DDAAAB1EBE";
shapes = (
{
closed = 1;
nodes = (
(730,-24,o),
(860,13,o),
(948,53,c),
(1075,343,l),
(997,366,l),
(962,299,ls),
(889,160,o),
(772,75,o),
(604,73,cs),
(342,70,o),
(201,282,o),
(288,728,cs),
(375,1178,o),
(611,1390,o),
(874,1387,cs),
(1039,1385,o),
(1111,1300,o),
(1130,1161,cs),
(1139,1094,l),
(1225,1117,l),
(1211,1407,l),
(1141,1447,o),
(1033,1484,o),
(899,1484,cs),
(561,1484,o),
(251,1259,o),
(149,738,cs),
(49,221,o),
(258,-24,o),
(596,-24,cs)
);
},
{
closed = 1;
nodes = (
(633,1650,l),
(904,1814,l),
(848,1814,l),
(1055,1650,l),
(1146,1650,l),
(947,1883,l),
(831,1883,l),
(542,1650,l)
);
}
);
width = 1240;
}
);
unicode = 264;
},
{
glyphname = Cdotaccent;
lastChange = "2024-05-08 18:01:49 +0000";
layers = (
{
layerId = "C612A24F-6EED-4FC1-9F18-2B0E93FAFD61";
shapes = (
{
closed = 1;
nodes = (
(822,-23,o),
(948,1,o),
(1079,44,c),
(1141,405,l),
(969,440,l),
(939,368,ls),
(883,231,o),
(796,170,o),
(683,171,cs),
(543,171,o),
(396,276,o),
(397,732,cs),
(398,1187,o),
(539,1291,o),
(670,1292,cs),
(781,1293,o),
(884,1232,o),
(941,1094,cs),
(970,1022,l),
(1142,1058,l),
(1080,1419,l),
(942,1470,o),
(821,1485,o),
(714,1485,cs),
(322,1485,o),
(58,1246,o),
(58,719,cs),
(58,216,o),
(311,-23,o),
(694,-23,cs)
);
},
{
closed = 1;
nodes = (
(714.4,1618.8,o),
(780.8,1678.8,o),
(780.8,1771.6,cs),
(780.8,1864.4,o),
(714.4,1922,o),
(616,1922,cs),
(517.6,1922,o),
(451.2,1864.4,o),
(451.2,1771.6,cs),
(451.2,1678.8,o),
(517.6,1618.8,o),
(616,1618.8,cs)
);
}
);
width = 1240;
},
{
layerId = "FC265EF4-F21D-45B5-9DC3-EEC98E8078A4";
shapes = (
{
closed = 1;
nodes = (
(1052,-24,o),
(1208,13,o),
(1321,53,c),
(1409,343,l),
(1311,366,l),
(1276,299,ls),
(1205,162,o),
(1078,73,o),
(869,73,cs),
(523,73,o),
(251,282,o),
(251,728,cs),
(251,1178,o),
(539,1390,o),
(887,1387,cs),
(1089,1385,o),
(1209,1301,o),
(1278,1161,cs),
(1311,1094,l),
(1409,1117,l),
(1322,1407,l),
(1210,1447,o),
(1077,1484,o),
(920,1484,cs),
(473,1484,o),
(111,1249,o),
(111,728,cs),
(111,211,o),
(436,-24,o),
(887,-24,cs)
);
},
{
closed = 1;
nodes = (
(847,1663,o),
(891,1699,o),
(891,1761,cs),
(891,1823,o),
(847,1859,o),
(785,1859,cs),
(723,1859,o),
(679,1823,o),
(679,1761,cs),
(679,1699,o),
(723,1663,o),
(785,1663,cs)
);
}
);
width = 1555;
},
{
layerId = "E1CD64A1-112A-4516-A7DF-4EBEDF7D0C85";
shapes = (
{
closed = 1;
nodes = (
(1051,-23,o),
(1201,1,o),
(1364,44,c),
(1444,405,l),
(1256,440,l),
(1213,368,ls),
(1132,233,o),
(1019,170,o),
(864,171,cs),
(640,171,o),
(407,276,o),
(407,732,cs),
(407,1187,o),
(639,1292,o),
(855,1292,cs),
(1002,1292,o),
(1140,1233,o),
(1217,1094,cs),
(1257,1022,l),
(1445,1058,l),
(1366,1419,l),
(1194,1470,o),
(1045,1485,o),
(915,1485,cs),
(414,1485,o),
(65,1246,o),
(65,719,cs),
(65,216,o),
(396,-23,o),
(892,-23,cs)
);
},
{
closed = 1;
nodes = (
(952,1645,o),
(1018,1705,o),
(1018,1798,cs),
(1018,1890,o),
(952,1948,o),
(853,1948,cs),
(755,1948,o),
(689,1890,o),
(689,1798,cs),
(689,1705,o),
(755,1645,o),
(853,1645,cs)
);
}
);
width = 1555;
},
{
layerId = "BEB83068-430F-4F93-8275-D4D4FE2C02C8";
shapes = (
{
closed = 1;
nodes = (
(822,-24,o),
(954,13,o),
(1035,53,c),
(1105,343,l),
(1023,366,l),
(1001,299,ls),
(955,160,o),
(854,75,o),
(687,73,cs),
(425,70,o),
(243,282,o),
(243,728,cs),
(243,1178,o),
(438,1390,o),
(701,1387,cs),
(867,1385,o),
(955,1300,o),
(1001,1161,cs),
(1023,1094,l),
(1105,1117,l),
(1035,1407,l),
(957,1447,o),
(852,1484,o),
(718,1484,cs),
(380,1484,o),
(103,1249,o),
(103,728,cs),
(103,211,o),
(350,-24,o),
(688,-24,cs)
);
},
{
closed = 1;
nodes = (
(682,1663,o),
(726,1699,o),
(726,1761,cs),
(726,1823,o),
(682,1859,o),
(620,1859,cs),
(558,1859,o),
(514,1823,o),
(514,1761,cs),
(514,1699,o),
(558,1663,o),
(620,1663,cs)
);
}
);
width = 1240;
},
{
layerId = "3A752AAD-7068-4A08-8CFD-4D7C5CAE8856";
shapes = (
{
closed = 1;
nodes = (
(713,-23,o),
(843,1,o),
(983,44,c),
(1115,405,l),
(950,440,l),
(906,368,ls),
(822,231,o),
(724,170,o),
(611,171,cs),
(471,171,o),
(345,276,o),
(434,732,cs),
(524,1187,o),
(685,1291,o),
(816,1292,cs),
(927,1293,o),
(1019,1232,o),
(1049,1094,cs),
(1064,1022,l),
(1243,1058,l),
(1251,1419,l),
(1123,1470,o),
(995,1485,o),
(888,1485,cs),
(496,1485,o),
(197,1256,o),
(95,729,cs),
(-3,226,o),
(202,-23,o),
(585,-23,cs)
);
},
{
closed = 1;
nodes = (
(924,1619,o),
(1002,1679,o),
(1020,1772,cs),
(1038,1864,o),
(983,1922,o),
(885,1922,cs),
(786,1922,o),
(709,1864,o),
(691,1772,cs),
(673,1679,o),
(727,1619,o),
(826,1619,cs)
);
}
);
width = 1240;
},
{
layerId = "5F491846-7617-4B03-8CE4-FAFF8D3DA710";
shapes = (
{
closed = 1;
nodes = (
(960,-24,o),
(1114,13,o),
(1234,53,c),
(1379,343,l),
(1285,366,l),
(1237,299,ls),
(1139,162,o),
(995,73,o),
(786,73,cs),
(440,73,o),
(209,282,o),
(296,728,cs),
(383,1178,o),
(712,1390,o),
(1060,1387,cs),
(1261,1385,o),
(1365,1301,o),
(1407,1161,cs),
(1427,1094,l),
(1529,1117,l),
(1498,1407,l),
(1394,1447,o),
(1248,1484,o),
(1091,1484,cs),
(644,1484,o),
(259,1259,o),
(157,738,cs),
(57,221,o),
(344,-24,o),
(795,-24,cs)
);
},
{
closed = 1;
nodes = (
(1073,1663,o),
(1124,1699,o),
(1136,1761,cs),
(1148,1823,o),
(1111,1859,o),
(1049,1859,cs),
(987,1859,o),
(936,1823,o),
(924,1761,cs),
(912,1699,o),
(949,1663,o),
(1011,1663,cs)
);
}
);
width = 1555;
},
{
layerId = "6B25F7AD-67F3-407A-A333-8CA62504B4E5";
shapes = (
{
closed = 1;
nodes = (
(952,-23,o),
(1096,1,o),
(1268,44,c),
(1418,405,l),
(1237,440,l),
(1180,368,ls),
(1072,233,o),
(947,170,o),
(792,171,cs),
(568,171,o),
(356,276,o),
(444,732,cs),
(533,1187,o),
(785,1292,o),
(1001,1292,cs),
(1148,1292,o),
(1275,1233,o),
(1325,1094,cs),
(1351,1022,l),
(1546,1058,l),
(1537,1419,l),
(1375,1470,o),
(1209,1485,o),
(1079,1485,cs),
(578,1485,o),
(204,1256,o),
(102,729,cs),
(4,226,o),
(297,-23,o),
(793,-23,cs)
);
},
{
closed = 1;
nodes = (
(1167,1645,o),
(1245,1705,o),
(1263,1798,cs),
(1281,1890,o),
(1225,1948,o),
(1127,1948,cs),
(1029,1948,o),
(951,1890,o),
(933,1798,cs),
(915,1705,o),
(970,1645,o),
(1068,1645,cs)
);
}
);
width = 1555;
},
{
layerId = "2935642B-2075-4830-97B8-D7DDAAAB1EBE";
shapes = (
{
closed = 1;
nodes = (
(730,-24,o),
(860,13,o),
(948,53,c),
(1075,343,l),
(997,366,l),
(962,299,ls),
(889,160,o),
(772,75,o),
(604,73,cs),
(342,70,o),
(201,282,o),
(288,728,cs),
(375,1178,o),
(611,1390,o),
(874,1387,cs),
(1039,1385,o),
(1111,1300,o),
(1130,1161,cs),
(1139,1094,l),
(1225,1117,l),
(1211,1407,l),
(1141,1447,o),
(1033,1484,o),
(899,1484,cs),
(561,1484,o),
(251,1259,o),
(149,738,cs),
(49,221,o),
(258,-24,o),
(596,-24,cs)
);
},
{
closed = 1;
nodes = (
(908,1663,o),
(959,1699,o),
(971,1761,cs),
(983,1823,o),
(946,1859,o),
(884,1859,cs),
(822,1859,o),
(771,1823,o),
(759,1761,cs),
(747,1699,o),
(784,1663,o),
(846,1663,cs)
);
}
);
width = 1240;
}
);
unicode = 266;
},
{
glyphname = D;
lastChange = "2024-05-08 18:01:48 +0000";
layers = (
{
layerId = "BEB83068-430F-4F93-8275-D4D4FE2C02C8";
shapes = (
{
closed = 1;
nodes = (
(513,0,ls),
(1000,0,o),
(1151,372,o),
(1151,743,cs),
(1151,1114,o),
(1000,1460,o),
(513,1460,cs),
(76,1460,l),
(76,1383,l),
(258,1316,l),
(235,1370,l),
(235,90,l),
(258,144,l),
(76,77,l),
(76,0,l)
);
},
{
closed = 1;
nodes = (
(359,1383,l),
(318,1356,l),
(485,1356,ls),
(858,1356,o),
(1011,1131,o),
(1011,733,cs),
(1011,335,o),
(858,104,o),
(485,104,cs),
(318,104,l),
(359,77,l)
);
}
);
width = 1240;
},
{
layerId = "3A752AAD-7068-4A08-8CFD-4D7C5CAE8856";
shapes = (
{
closed = 1;
nodes = (
(462,0,ls),
(863,0,o),
(1115,260,o),
(1209,744,cs),
(1303,1228,o),
(1127,1460,o),
(726,1460,cs),
(225,1460,l),
(196,1311,l),
(343,1233,l),
(293,1357,l),
(49,103,l),
(147,227,l),
(-30,149,l),
(-59,0,l)
);
},
{
closed = 1;
nodes = (
(612,1332,l),
(532,1258,l),
(669,1258,ls),
(868,1258,o),
(941,1110,o),
(874,766,cs),
(807,422,o),
(662,202,o),
(463,202,cs),
(326,202,l),
(382,151,l)
);
}
);
width = 1240;
},
{
layerId = "5F491846-7617-4B03-8CE4-FAFF8D3DA710";
shapes = (
{
closed = 1;
nodes = (
(596,0,ls),
(1163,0,o),
(1418,375,o),
(1488,736,cs),
(1558,1097,o),
(1427,1460,o),
(860,1460,cs),
(284,1460,l),
(269,1383,l),
(478,1316,l),
(465,1370,l),
(216,90,l),
(250,144,l),
(15,77,l),
(0,0,l)
);
},
{
closed = 1;
nodes = (
(592,1383,l),
(546,1356,l),
(832,1356,ls),
(1248,1356,o),
(1426,1144,o),
(1347,736,cs),
(1268,328,o),
(1004,104,o),
(588,104,cs),
(302,104,l),
(338,77,l)
);
}
);
width = 1555;
},
{
layerId = "FC265EF4-F21D-45B5-9DC3-EEC98E8078A4";
shapes = (
{
closed = 1;
nodes = (
(683,0,ls),
(1250,0,o),
(1442,385,o),
(1442,746,cs),
(1442,1107,o),
(1250,1460,o),
(683,1460,cs),
(97,1460,l),
(97,1383,l),
(319,1316,l),
(296,1370,l),
(296,90,l),
(319,144,l),
(97,77,l),
(97,0,l)
);
},
{
closed = 1;
nodes = (
(420,1383,l),
(379,1356,l),
(665,1356,ls),
(1081,1356,o),
(1301,1144,o),
(1301,736,cs),
(1301,328,o),
(1081,104,o),
(665,104,cs),
(379,104,l),
(420,77,l)
);
}
);
width = 1555;
},
{
layerId = "E1CD64A1-112A-4516-A7DF-4EBEDF7D0C85";
shapes = (
{
closed = 1;
nodes = (
(711,0,ls),
(1192,0,o),
(1457,289,o),
(1457,763,cs),
(1457,1237,o),
(1192,1460,o),
(711,1460,cs),
(64,1460,l),
(64,1311,l),
(266,1233,l),
(192,1357,l),
(192,103,l),
(266,227,l),
(64,149,l),
(64,0,l)
);
},
{
closed = 1;
nodes = (
(516,1332,l),
(450,1258,l),
(706,1258,ls),
(957,1258,o),
(1118,1120,o),
(1118,766,cs),
(1118,411,o),
(957,202,o),
(706,202,cs),
(450,202,l),
(516,151,l)
);
}
);
width = 1555;
},
{
layerId = "6B25F7AD-67F3-407A-A333-8CA62504B4E5";
shapes = (
{
closed = 1;
nodes = (
(616,0,ls),
(1097,0,o),
(1404,269,o),
(1496,743,cs),
(1589,1217,o),
(1361,1460,o),
(880,1460,cs),
(243,1460,l),
(214,1311,l),
(401,1233,l),
(351,1357,l),
(107,103,l),
(205,227,l),
(-12,149,l),
(-41,0,l)
);
},
{
closed = 1;
nodes = (
(670,1332,l),
(590,1258,l),
(846,1258,ls),
(1097,1258,o),
(1231,1120,o),
(1162,766,cs),
(1093,411,o),
(891,202,o),
(640,202,cs),
(384,202,l),
(440,151,l)
);
}
);
width = 1555;
},
{
layerId = "2935642B-2075-4830-97B8-D7DDAAAB1EBE";
shapes = (
{
closed = 1;
nodes = (
(426,0,ls),
(913,0,o),
(1124,362,o),
(1196,733,cs),
(1269,1104,o),
(1177,1460,o),
(690,1460,cs),
(263,1460,l),
(248,1383,l),
(417,1316,l),
(404,1370,l),
(155,90,l),
(189,144,l),
(-6,77,l),
(-21,0,l)
);
},
{
closed = 1;
nodes = (
(531,1383,l),
(485,1356,l),
(652,1356,ls),
(1025,1356,o),
(1134,1131,o),
(1056,733,cs),
(979,335,o),
(781,104,o),
(408,104,cs),
(241,104,l),
(277,77,l)
);
}
);
width = 1240;
},
{
layerId = "C612A24F-6EED-4FC1-9F18-2B0E93FAFD61";
shapes = (
{
closed = 1;
nodes = (
(557,0,ls),
(958,0,o),
(1169,280,o),
(1169,764,cs),
(1169,1248,o),
(958,1460,o),
(557,1460,cs),
(46,1460,l),
(46,1311,l),
(208,1233,l),
(134,1357,l),
(134,103,l),
(208,227,l),
(46,149,l),
(46,0,l)
);
},
{
closed = 1;
nodes = (
(458,1332,l),
(392,1258,l),
(529,1258,ls),
(728,1258,o),
(830,1110,o),
(830,766,cs),
(830,422,o),
(728,202,o),
(529,202,cs),
(392,202,l),
(458,151,l)
);
}
);
width = 1240;
}
);
unicode = 68;
},
{
glyphname = Eth;
lastChange = "2024-05-08 18:01:49 +0000";
layers = (
{
layerId = "C612A24F-6EED-4FC1-9F18-2B0E93FAFD61";
shapes = (
{
closed = 1;
nodes = (
(640,641,l),
(640,811,l),
(13,811,l),
(13,641,l)
);
},
{
closed = 1;
nodes = (
(557,0,ls),
(958,0,o),
(1169,280,o),
(1169,764,cs),
(1169,1248,o),
(958,1460,o),
(557,1460,cs),
(46,1460,l),
(46,1311,l),
(208,1233,l),
(134,1357,l),
(134,103,l),
(208,227,l),
(46,149,l),
(46,0,l)
);
},
{
closed = 1;
nodes = (
(458,1332,l),
(392,1258,l),
(529,1258,ls),
(728,1258,o),
(830,1110,o),
(830,766,cs),
(830,422,o),
(728,202,o),
(529,202,cs),
(392,202,l),
(458,151,l)
);
}
);
width = 1240;
},
{
layerId = "FC265EF4-F21D-45B5-9DC3-EEC98E8078A4";
shapes = (
{
closed = 1;
nodes = (
(856,715,l),
(856,805,l),
(30,805,l),
(30,715,l)
);
},
{
closed = 1;
nodes = (
(728,0,ls),
(1295,0,o),
(1487,385,o),
(1487,746,cs),
(1487,1107,o),
(1295,1460,o),
(728,1460,cs),
(142,1460,l),
(142,1383,l),
(364,1316,l),
(341,1370,l),
(341,90,l),
(364,144,l),
(142,77,l),
(142,0,l)
);
},
{
closed = 1;
nodes = (
(465,1383,l),
(424,1356,l),
(710,1356,ls),
(1126,1356,o),
(1346,1144,o),
(1346,736,cs),
(1346,328,o),
(1126,104,o),
(710,104,cs),
(424,104,l),
(465,77,l)
);
}
);
width = 1555;
},
{
layerId = "E1CD64A1-112A-4516-A7DF-4EBEDF7D0C85";
shapes = (
{
closed = 1;
nodes = (
(813,646,l),
(813,816,l),
(11,816,l),
(11,646,l)
);
},
{
closed = 1;
nodes = (
(750,0,ls),
(1231,0,o),
(1496,289,o),
(1496,763,cs),
(1496,1237,o),
(1231,1460,o),
(750,1460,cs),
(103,1460,l),
(103,1311,l),
(305,1233,l),
(231,1357,l),
(231,103,l),
(305,227,l),
(103,149,l),
(103,0,l)
);
},
{
closed = 1;
nodes = (
(555,1332,l),
(489,1258,l),
(745,1258,ls),
(996,1258,o),
(1157,1120,o),
(1157,766,cs),
(1157,411,o),
(996,202,o),
(745,202,cs),
(489,202,l),
(555,151,l)
);
}
);
width = 1555;
},
{
layerId = "BEB83068-430F-4F93-8275-D4D4FE2C02C8";
shapes = (
{
closed = 1;
nodes = (
(672,715,l),
(672,805,l),
(40,805,l),
(40,715,l)
);
},
{
closed = 1;
nodes = (
(513,0,ls),
(1000,0,o),
(1151,372,o),
(1151,743,cs),
(1151,1114,o),
(1000,1460,o),
(513,1460,cs),
(76,1460,l),
(76,1383,l),
(258,1316,l),
(235,1370,l),
(235,90,l),
(258,144,l),
(76,77,l),
(76,0,l)
);
},
{
closed = 1;
nodes = (
(359,1383,l),
(318,1356,l),
(485,1356,ls),
(858,1356,o),
(1011,1131,o),
(1011,733,cs),
(1011,335,o),
(858,104,o),
(485,104,cs),
(318,104,l),
(359,77,l)
);
}
);
width = 1240;
},
{
layerId = "3A752AAD-7068-4A08-8CFD-4D7C5CAE8856";
shapes = (
{
closed = 1;
nodes = (
(659,641,l),
(692,811,l),
(65,811,l),
(32,641,l)
);
},
{
closed = 1;
nodes = (
(461,0,ls),
(862,0,o),
(1114,260,o),
(1208,744,cs),
(1302,1228,o),
(1126,1460,o),
(725,1460,cs),
(224,1460,l),
(195,1311,l),
(342,1233,l),
(292,1357,l),
(48,103,l),
(146,227,l),
(-31,149,l),
(-60,0,l)
);
},
{
closed = 1;
nodes = (
(611,1332,l),
(531,1258,l),
(668,1258,ls),
(867,1258,o),
(940,1110,o),
(873,766,cs),
(806,422,o),
(661,202,o),
(462,202,cs),
(325,202,l),
(381,151,l)
);
}
);
width = 1240;
},
{
layerId = "5F491846-7617-4B03-8CE4-FAFF8D3DA710";
shapes = (
{
closed = 1;
nodes = (
(898,715,l),
(915,805,l),
(89,805,l),
(72,715,l)
);
},
{
closed = 1;
nodes = (
(641,0,ls),
(1208,0,o),
(1463,375,o),
(1533,736,cs),
(1603,1097,o),
(1472,1460,o),
(905,1460,cs),
(329,1460,l),
(314,1383,l),
(523,1316,l),
(510,1370,l),
(261,90,l),
(295,144,l),
(60,77,l),
(45,0,l)
);
},
{
closed = 1;
nodes = (
(637,1383,l),
(591,1356,l),
(877,1356,ls),
(1293,1356,o),
(1471,1144,o),
(1392,736,cs),
(1313,328,o),
(1049,104,o),
(633,104,cs),
(347,104,l),
(383,77,l)
);
}
);
width = 1555;
},
{
layerId = "6B25F7AD-67F3-407A-A333-8CA62504B4E5";
shapes = (
{
closed = 1;
nodes = (
(833,646,l),
(866,816,l),
(64,816,l),
(31,646,l)
);
},
{
closed = 1;
nodes = (
(654,0,ls),
(1135,0,o),
(1442,269,o),
(1534,743,cs),
(1627,1217,o),
(1399,1460,o),
(918,1460,cs),
(281,1460,l),
(252,1311,l),
(439,1233,l),
(389,1357,l),
(145,103,l),
(243,227,l),
(26,149,l),
(-3,0,l)
);
},
{
closed = 1;
nodes = (
(708,1332,l),
(628,1258,l),
(884,1258,ls),
(1135,1258,o),
(1269,1120,o),
(1200,766,cs),
(1131,411,o),
(929,202,o),
(678,202,cs),
(422,202,l),
(478,151,l)
);
}
);
width = 1555;
},
{
layerId = "2935642B-2075-4830-97B8-D7DDAAAB1EBE";
shapes = (
{
closed = 1;
nodes = (
(714,715,l),
(731,805,l),
(99,805,l),
(82,715,l)
);
},
{
closed = 1;
nodes = (
(426,0,ls),
(913,0,o),
(1124,362,o),
(1196,733,cs),
(1269,1104,o),
(1177,1460,o),
(690,1460,cs),
(263,1460,l),
(248,1383,l),
(417,1316,l),
(404,1370,l),
(155,90,l),
(189,144,l),
(-6,77,l),
(-21,0,l)
);
},
{
closed = 1;
nodes = (
(531,1383,l),
(485,1356,l),
(652,1356,ls),
(1025,1356,o),
(1134,1131,o),
(1056,733,cs),
(979,335,o),
(781,104,o),
(408,104,cs),
(241,104,l),
(277,77,l)
);
}
);
width = 1240;
}
);
unicode = 208;
},
{
glyphname = Dcaron;
lastChange = "2024-05-08 18:01:49 +0000";
layers = (
{
layerId = "C612A24F-6EED-4FC1-9F18-2B0E93FAFD61";
shapes = (
{
closed = 1;
nodes = (
(557,0,ls),
(958,0,o),
(1169,280,o),
(1169,764,cs),
(1169,1248,o),
(958,1460,o),
(557,1460,cs),
(46,1460,l),
(46,1311,l),
(208,1233,l),
(134,1357,l),
(134,103,l),
(208,227,l),
(46,149,l),
(46,0,l)
);
},
{
closed = 1;
nodes = (
(458,1332,l),
(392,1258,l),
(529,1258,ls),
(728,1258,o),
(830,1110,o),
(830,766,cs),
(830,422,o),
(728,202,o),
(529,202,cs),
(392,202,l),
(458,151,l)
);
},
{
closed = 1;
nodes = (
(453,1878,l),
(644,1734,l),
(596,1734,l),
(787,1878,l),
(1001,1878,l),
(813,1620,l),
(427,1620,l),
(239,1878,l)
);
}
);
width = 1240;
},
{
layerId = "FC265EF4-F21D-45B5-9DC3-EEC98E8078A4";
shapes = (
{
closed = 1;
nodes = (
(683,0,ls),
(1250,0,o),
(1442,385,o),
(1442,746,cs),
(1442,1107,o),
(1250,1460,o),
(683,1460,cs),
(97,1460,l),
(97,1383,l),
(319,1316,l),
(296,1370,l),
(296,90,l),
(319,144,l),
(97,77,l),
(97,0,l)
);
},
{
closed = 1;
nodes = (
(420,1383,l),
(379,1356,l),
(665,1356,ls),
(1081,1356,o),
(1301,1144,o),
(1301,736,cs),
(1301,328,o),
(1081,104,o),
(665,104,cs),
(379,104,l),
(420,77,l)
);
},
{
closed = 1;
nodes = (
(483,1883,l),
(778,1724,l),
(716,1724,l),
(1012,1883,l),
(1119,1883,l),
(825,1650,l),
(669,1650,l),
(376,1883,l)
);
}
);
width = 1555;
},
{
layerId = "E1CD64A1-112A-4516-A7DF-4EBEDF7D0C85";
shapes = (
{
closed = 1;
nodes = (
(711,0,ls),
(1192,0,o),
(1457,289,o),
(1457,763,cs),
(1457,1237,o),
(1192,1460,o),
(711,1460,cs),
(64,1460,l),
(64,1311,l),
(266,1233,l),
(192,1357,l),
(192,103,l),
(266,227,l),
(64,149,l),
(64,0,l)
);
},
{
closed = 1;
nodes = (
(516,1332,l),
(450,1258,l),
(706,1258,ls),
(957,1258,o),
(1118,1120,o),
(1118,766,cs),
(1118,411,o),
(957,202,o),
(706,202,cs),
(450,202,l),
(516,151,l)
);
},
{
closed = 1;
nodes = (
(528,1908,l),
(778,1762,l),
(710,1762,l),
(961,1908,l),
(1215,1908,l),
(937,1620,l),
(551,1620,l),
(274,1908,l)
);
}
);
width = 1555;
},
{
layerId = "BEB83068-430F-4F93-8275-D4D4FE2C02C8";
shapes = (
{
closed = 1;
nodes = (
(513,0,ls),
(1000,0,o),
(1151,372,o),
(1151,743,cs),
(1151,1114,o),
(1000,1460,o),
(513,1460,cs),
(76,1460,l),
(76,1383,l),
(258,1316,l),
(235,1370,l),
(235,90,l),
(258,144,l),
(76,77,l),
(76,0,l)
);
},
{
closed = 1;
nodes = (
(359,1383,l),
(318,1356,l),
(485,1356,ls),
(858,1356,o),
(1011,1131,o),
(1011,733,cs),
(1011,335,o),
(858,104,o),
(485,104,cs),
(318,104,l),
(359,77,l)
);
},
{
closed = 1;
nodes = (
(409,1883,l),
(648,1719,l),
(592,1719,l),
(831,1883,l),
(922,1883,l),
(678,1650,l),
(562,1650,l),
(318,1883,l)
);
}
);
width = 1240;
},
{
layerId = "3A752AAD-7068-4A08-8CFD-4D7C5CAE8856";
shapes = (
{
closed = 1;
nodes = (
(462,0,ls),
(863,0,o),
(1115,260,o),
(1209,744,cs),
(1303,1228,o),
(1127,1460,o),
(726,1460,cs),
(225,1460,l),
(196,1311,l),
(343,1233,l),
(293,1357,l),
(49,103,l),
(147,227,l),
(-30,149,l),
(-59,0,l)
);
},
{
closed = 1;
nodes = (
(612,1332,l),
(532,1258,l),
(669,1258,ls),
(868,1258,o),
(941,1110,o),
(874,766,cs),
(807,422,o),
(662,202,o),
(463,202,cs),
(326,202,l),
(382,151,l)
);
},
{
closed = 1;
nodes = (
(713,1878,l),
(876,1734,l),
(828,1734,l),
(1047,1878,l),
(1261,1878,l),
(1023,1620,l),
(637,1620,l),
(499,1878,l)
);
}
);
width = 1240;
},
{
layerId = "5F491846-7617-4B03-8CE4-FAFF8D3DA710";
shapes = (
{
closed = 1;
nodes = (
(596,0,ls),
(1163,0,o),
(1418,375,o),
(1488,736,cs),
(1558,1097,o),
(1427,1460,o),
(860,1460,cs),
(284,1460,l),
(269,1383,l),
(478,1316,l),
(465,1370,l),
(216,90,l),
(250,144,l),
(15,77,l),
(0,0,l)
);
},
{
closed = 1;
nodes = (
(592,1383,l),
(546,1356,l),
(832,1356,ls),
(1248,1356,o),
(1426,1144,o),
(1347,736,cs),
(1268,328,o),
(1004,104,o),
(588,104,cs),
(302,104,l),
(338,77,l)
);
},
{
closed = 1;
nodes = (
(752,1883,l),
(1016,1724,l),
(954,1724,l),
(1281,1883,l),
(1388,1883,l),
(1049,1650,l),
(893,1650,l),
(645,1883,l)
);
}
);
width = 1555;
},
{
layerId = "6B25F7AD-67F3-407A-A333-8CA62504B4E5";
shapes = (
{
closed = 1;
nodes = (
(616,0,ls),
(1097,0,o),
(1404,269,o),
(1496,743,cs),
(1589,1217,o),
(1361,1460,o),
(880,1460,cs),
(243,1460,l),
(214,1311,l),
(401,1233,l),
(351,1357,l),
(107,103,l),
(205,227,l),
(-12,149,l),
(-41,0,l)
);
},
{
closed = 1;
nodes = (
(670,1332,l),
(590,1258,l),
(846,1258,ls),
(1097,1258,o),
(1231,1120,o),
(1162,766,cs),
(1093,411,o),
(891,202,o),
(640,202,cs),
(384,202,l),
(440,151,l)
);
},
{
closed = 1;
nodes = (
(794,1908,l),
(1015,1762,l),
(947,1762,l),
(1227,1908,l),
(1481,1908,l),
(1147,1620,l),
(761,1620,l),
(540,1908,l)
);
}
);
width = 1555;
},
{
layerId = "2935642B-2075-4830-97B8-D7DDAAAB1EBE";
shapes = (
{
closed = 1;
nodes = (
(426,0,ls),
(913,0,o),
(1124,362,o),
(1196,733,cs),
(1269,1104,o),
(1177,1460,o),
(690,1460,cs),
(263,1460,l),
(248,1383,l),
(417,1316,l),
(404,1370,l),
(155,90,l),
(189,144,l),
(-6,77,l),
(-21,0,l)
);
},
{
closed = 1;
nodes = (
(531,1383,l),
(485,1356,l),
(652,1356,ls),
(1025,1356,o),
(1134,1131,o),
(1056,733,cs),
(979,335,o),
(781,104,o),
(408,104,cs),
(241,104,l),
(277,77,l)
);
},
{
closed = 1;
nodes = (
(678,1883,l),
(885,1719,l),
(829,1719,l),
(1100,1883,l),
(1191,1883,l),
(902,1650,l),
(786,1650,l),
(587,1883,l)
);
}
);
width = 1240;
}
);
unicode = 270;
},
{
glyphname = Dcroat;
lastChange = "2024-05-08 18:01:49 +0000";
layers = (
{
layerId = "C612A24F-6EED-4FC1-9F18-2B0E93FAFD61";
shapes = (
{
closed = 1;
nodes = (
(640,641,l),
(640,811,l),
(13,811,l),
(13,641,l)
);
},
{
closed = 1;
nodes = (
(557,0,ls),
(958,0,o),
(1169,280,o),
(1169,764,cs),
(1169,1248,o),
(958,1460,o),
(557,1460,cs),
(46,1460,l),
(46,1311,l),
(208,1233,l),
(134,1357,l),
(134,103,l),
(208,227,l),
(46,149,l),
(46,0,l)
);
},
{
closed = 1;
nodes = (
(458,1332,l),
(392,1258,l),
(529,1258,ls),
(728,1258,o),
(830,1110,o),
(830,766,cs),
(830,422,o),
(728,202,o),
(529,202,cs),
(392,202,l),
(458,151,l)
);
}
);
width = 1240;
},
{
layerId = "FC265EF4-F21D-45B5-9DC3-EEC98E8078A4";
shapes = (
{
closed = 1;
nodes = (
(856,715,l),
(856,805,l),
(30,805,l),
(30,715,l)
);
},
{
closed = 1;
nodes = (
(728,0,ls),
(1295,0,o),
(1487,385,o),
(1487,746,cs),
(1487,1107,o),
(1295,1460,o),
(728,1460,cs),
(142,1460,l),
(142,1383,l),
(364,1316,l),
(341,1370,l),
(341,90,l),
(364,144,l),
(142,77,l),
(142,0,l)
);
},
{
closed = 1;
nodes = (
(465,1383,l),
(424,1356,l),
(710,1356,ls),
(1126,1356,o),
(1346,1144,o),
(1346,736,cs),
(1346,328,o),
(1126,104,o),
(710,104,cs),
(424,104,l),
(465,77,l)
);
}
);
width = 1555;
},
{
layerId = "E1CD64A1-112A-4516-A7DF-4EBEDF7D0C85";
shapes = (
{
closed = 1;
nodes = (
(813,646,l),
(813,816,l),
(11,816,l),
(11,646,l)
);
},
{
closed = 1;
nodes = (
(750,0,ls),
(1231,0,o),
(1496,289,o),
(1496,763,cs),
(1496,1237,o),
(1231,1460,o),
(750,1460,cs),
(103,1460,l),
(103,1311,l),
(305,1233,l),
(231,1357,l),
(231,103,l),
(305,227,l),
(103,149,l),
(103,0,l)
);
},
{
closed = 1;
nodes = (
(555,1332,l),
(489,1258,l),
(745,1258,ls),
(996,1258,o),
(1157,1120,o),
(1157,766,cs),
(1157,411,o),
(996,202,o),
(745,202,cs),
(489,202,l),
(555,151,l)
);
}
);
width = 1555;
},
{
layerId = "BEB83068-430F-4F93-8275-D4D4FE2C02C8";
shapes = (
{
closed = 1;
nodes = (
(672,715,l),
(672,805,l),
(40,805,l),
(40,715,l)
);
},
{
closed = 1;
nodes = (
(513,0,ls),
(1000,0,o),
(1151,372,o),
(1151,743,cs),
(1151,1114,o),
(1000,1460,o),
(513,1460,cs),
(76,1460,l),
(76,1383,l),
(258,1316,l),
(235,1370,l),
(235,90,l),
(258,144,l),
(76,77,l),
(76,0,l)
);
},
{
closed = 1;
nodes = (
(359,1383,l),
(318,1356,l),
(485,1356,ls),
(858,1356,o),
(1011,1131,o),
(1011,733,cs),
(1011,335,o),
(858,104,o),
(485,104,cs),
(318,104,l),
(359,77,l)
);
}
);
width = 1240;
},
{
layerId = "3A752AAD-7068-4A08-8CFD-4D7C5CAE8856";
shapes = (
{
closed = 1;
nodes = (
(659,641,l),
(692,811,l),
(65,811,l),
(32,641,l)
);
},
{
closed = 1;
nodes = (
(461,0,ls),
(862,0,o),
(1114,260,o),
(1208,744,cs),
(1302,1228,o),
(1126,1460,o),
(725,1460,cs),
(224,1460,l),
(195,1311,l),
(342,1233,l),
(292,1357,l),
(48,103,l),
(146,227,l),
(-31,149,l),
(-60,0,l)
);
},
{
closed = 1;
nodes = (
(611,1332,l),
(531,1258,l),
(668,1258,ls),
(867,1258,o),
(940,1110,o),
(873,766,cs),
(806,422,o),
(661,202,o),
(462,202,cs),
(325,202,l),
(381,151,l)
);
}
);
width = 1240;
},
{
layerId = "5F491846-7617-4B03-8CE4-FAFF8D3DA710";
shapes = (
{
closed = 1;
nodes = (
(898,715,l),
(915,805,l),
(89,805,l),
(72,715,l)
);
},
{
closed = 1;
nodes = (
(641,0,ls),
(1208,0,o),
(1463,375,o),
(1533,736,cs),
(1603,1097,o),
(1472,1460,o),
(905,1460,cs),
(329,1460,l),
(314,1383,l),
(523,1316,l),
(510,1370,l),
(261,90,l),
(295,144,l),
(60,77,l),
(45,0,l)
);
},
{
closed = 1;
nodes = (
(637,1383,l),
(591,1356,l),
(877,1356,ls),
(1293,1356,o),
(1471,1144,o),
(1392,736,cs),
(1313,328,o),
(1049,104,o),
(633,104,cs),
(347,104,l),
(383,77,l)
);
}
);
width = 1555;
},
{
layerId = "6B25F7AD-67F3-407A-A333-8CA62504B4E5";
shapes = (
{
closed = 1;
nodes = (
(833,646,l),
(866,816,l),
(64,816,l),
(31,646,l)
);
},
{
closed = 1;
nodes = (
(654,0,ls),
(1135,0,o),
(1442,269,o),
(1534,743,cs),
(1627,1217,o),
(1399,1460,o),
(918,1460,cs),
(281,1460,l),
(252,1311,l),
(439,1233,l),
(389,1357,l),
(145,103,l),
(243,227,l),
(26,149,l),
(-3,0,l)
);
},
{
closed = 1;
nodes = (
(708,1332,l),
(628,1258,l),
(884,1258,ls),
(1135,1258,o),
(1269,1120,o),
(1200,766,cs),
(1131,411,o),
(929,202,o),
(678,202,cs),
(422,202,l),
(478,151,l)
);
}
);
width = 1555;
},
{
layerId = "2935642B-2075-4830-97B8-D7DDAAAB1EBE";
shapes = (
{
closed = 1;
nodes = (
(714,715,l),
(731,805,l),
(99,805,l),
(82,715,l)
);
},
{
closed = 1;
nodes = (
(426,0,ls),
(913,0,o),
(1124,362,o),
(1196,733,cs),
(1269,1104,o),
(1177,1460,o),
(690,1460,cs),
(263,1460,l),
(248,1383,l),
(417,1316,l),
(404,1370,l),
(155,90,l),
(189,144,l),
(-6,77,l),
(-21,0,l)
);
},
{
closed = 1;
nodes = (
(531,1383,l),
(485,1356,l),
(652,1356,ls),
(1025,1356,o),
(1134,1131,o),
(1056,733,cs),
(979,335,o),
(781,104,o),
(408,104,cs),
(241,104,l),
(277,77,l)
);
}
);
width = 1240;
}
);
unicode = 272;
},
{
glyphname = E;
lastChange = "2024-05-08 18:01:48 +0000";
layers = (
{
layerId = "BEB83068-430F-4F93-8275-D4D4FE2C02C8";
shapes = (
{
closed = 1;
nodes = (
(1085,0,l),
(1150,385,l),
(1053,385,l),
(934,70,l),
(1008,104,l),
(307,104,l),
(359,79,l),
(359,721,l),
(310,701,l),
(755,701,l),
(691,732,l),
(738,500,l),
(815,500,l),
(815,1001,l),
(738,1001,l),
(691,769,l),
(745,792,l),
(310,792,l),
(359,777,l),
(359,1395,l),
(328,1356,l),
(968,1356,l),
(894,1400,l),
(1013,1085,l),
(1110,1085,l),
(1045,1460,l),
(76,1460,l),
(76,1383,l),
(258,1316,l),
(235,1370,l),
(235,90,l),
(258,144,l),
(76,77,l),
(76,0,l)
);
}
);
width = 1240;
},
{
layerId = "3A752AAD-7068-4A08-8CFD-4D7C5CAE8856";
shapes = (
{
closed = 1;
nodes = (
(1016,0,l),
(1154,472,l),
(972,472,l),
(809,157,l),
(871,203,l),
(326,203,l),
(379,132,l),
(492,715,l),
(407,650,l),
(659,650,l),
(609,695,l),
(670,426,l),
(780,426,l),
(903,1061,l),
(793,1061,l),
(628,792,l),
(699,840,l),
(444,840,l),
(506,789,l),
(604,1291,l),
(566,1258,l),
(1050,1258,l),
(1003,1301,l),
(1045,986,l),
(1227,986,l),
(1273,1460,l),
(225,1460,l),
(196,1311,l),
(317,1245,l),
(284,1312,l),
(49,103,l),
(147,227,l),
(-30,149,l),
(-59,0,l)
);
}
);
width = 1240;
},
{
layerId = "5F491846-7617-4B03-8CE4-FAFF8D3DA710";
shapes = (
{
closed = 1;
nodes = (
(1260,0,l),
(1400,385,l),
(1303,385,l),
(1123,70,l),
(1203,104,l),
(307,104,l),
(354,79,l),
(479,721,l),
(426,701,l),
(1023,701,l),
(965,732,l),
(967,500,l),
(1044,500,l),
(1142,1001,l),
(1065,1001,l),
(972,769,l),
(1031,792,l),
(444,792,l),
(490,777,l),
(610,1395,l),
(572,1356,l),
(1407,1356,l),
(1351,1400,l),
(1399,1085,l),
(1496,1085,l),
(1504,1460,l),
(300,1460,l),
(285,1383,l),
(494,1316,l),
(481,1370,l),
(232,90,l),
(266,144,l),
(31,77,l),
(16,0,l)
);
}
);
width = 1555;
},
{
layerId = "FC265EF4-F21D-45B5-9DC3-EEC98E8078A4";
shapes = (
{
closed = 1;
nodes = (
(1357,0,l),
(1422,385,l),
(1325,385,l),
(1206,70,l),
(1280,104,l),
(384,104,l),
(436,79,l),
(436,721,l),
(387,701,l),
(984,701,l),
(920,732,l),
(967,500,l),
(1044,500,l),
(1044,1001,l),
(967,1001,l),
(920,769,l),
(974,792,l),
(387,792,l),
(436,777,l),
(436,1395,l),
(405,1356,l),
(1240,1356,l),
(1166,1400,l),
(1285,1085,l),
(1382,1085,l),
(1317,1460,l),
(113,1460,l),
(113,1383,l),
(335,1316,l),
(312,1370,l),
(312,90,l),
(335,144,l),
(113,77,l),
(113,0,l)
);
}
);
width = 1555;
},
{
layerId = "E1CD64A1-112A-4516-A7DF-4EBEDF7D0C85";
shapes = (
{
closed = 1;
nodes = (
(1387,0,l),
(1433,472,l),
(1251,472,l),
(1149,157,l),
(1203,203,l),
(463,203,l),
(529,132,l),
(529,715,l),
(457,650,l),
(861,650,l),
(802,695,l),
(915,426,l),
(1025,426,l),
(1025,1061,l),
(915,1061,l),
(802,792,l),
(864,840,l),
(457,840,l),
(529,789,l),
(529,1291,l),
(497,1258,l),
(1176,1258,l),
(1121,1301,l),
(1224,986,l),
(1406,986,l),
(1360,1460,l),
(77,1460,l),
(77,1311,l),
(251,1245,l),
(205,1312,l),
(205,103,l),
(279,227,l),
(77,149,l),
(77,0,l)
);
}
);
width = 1555;
},
{
layerId = "6B25F7AD-67F3-407A-A333-8CA62504B4E5";
shapes = (
{
closed = 1;
nodes = (
(1282,0,l),
(1420,472,l),
(1238,472,l),
(1075,157,l),
(1137,203,l),
(397,203,l),
(450,132,l),
(563,715,l),
(478,650,l),
(882,650,l),
(832,695,l),
(893,426,l),
(1003,426,l),
(1126,1061,l),
(1016,1061,l),
(851,792,l),
(922,840,l),
(515,840,l),
(577,789,l),
(675,1291,l),
(637,1258,l),
(1316,1258,l),
(1269,1301,l),
(1311,986,l),
(1493,986,l),
(1539,1460,l),
(256,1460,l),
(227,1311,l),
(388,1245,l),
(355,1312,l),
(120,103,l),
(218,227,l),
(1,149,l),
(-28,0,l)
);
}
);
width = 1555;
},
{
layerId = "2935642B-2075-4830-97B8-D7DDAAAB1EBE";
shapes = (
{
closed = 1;
nodes = (
(988,0,l),
(1128,385,l),
(1031,385,l),
(851,70,l),
(931,104,l),
(230,104,l),
(277,79,l),
(402,721,l),
(349,701,l),
(794,701,l),
(736,732,l),
(738,500,l),
(815,500,l),
(913,1001,l),
(836,1001,l),
(743,769,l),
(802,792,l),
(367,792,l),
(413,777,l),
(533,1395,l),
(495,1356,l),
(1135,1356,l),
(1079,1400,l),
(1127,1085,l),
(1224,1085,l),
(1232,1460,l),
(263,1460,l),
(248,1383,l),
(417,1316,l),
(404,1370,l),
(155,90,l),
(189,144,l),
(-6,77,l),
(-21,0,l)
);
}
);
width = 1240;
},
{
layerId = "C612A24F-6EED-4FC1-9F18-2B0E93FAFD61";
shapes = (
{
closed = 1;
nodes = (
(1121,0,l),
(1167,472,l),
(985,472,l),
(883,157,l),
(937,203,l),
(392,203,l),
(458,132,l),
(458,715,l),
(386,650,l),
(638,650,l),
(579,695,l),
(692,426,l),
(802,426,l),
(802,1061,l),
(692,1061,l),
(579,792,l),
(641,840,l),
(386,840,l),
(458,789,l),
(458,1291,l),
(426,1258,l),
(910,1258,l),
(855,1301,l),
(958,986,l),
(1140,986,l),
(1094,1460,l),
(46,1460,l),
(46,1311,l),
(180,1245,l),
(134,1312,l),
(134,103,l),
(208,227,l),
(46,149,l),
(46,0,l)
);
}
);
width = 1240;
}
);
unicode = 69;
},
{
glyphname = Eacute;
lastChange = "2024-05-08 18:01:49 +0000";
layers = (
{
layerId = "C612A24F-6EED-4FC1-9F18-2B0E93FAFD61";
shapes = (
{
closed = 1;
nodes = (
(1121,0,l),
(1167,472,l),
(985,472,l),
(883,157,l),
(937,203,l),
(392,203,l),
(458,132,l),
(458,715,l),
(386,650,l),
(638,650,l),
(579,695,l),
(692,426,l),
(802,426,l),
(802,1061,l),
(692,1061,l),
(579,792,l),
(641,840,l),
(386,840,l),
(458,789,l),
(458,1291,l),
(426,1258,l),
(910,1258,l),
(855,1301,l),
(958,986,l),
(1140,986,l),
(1094,1460,l),
(46,1460,l),
(46,1311,l),
(180,1245,l),
(134,1312,l),
(134,103,l),
(208,227,l),
(46,149,l),
(46,0,l)
);
},
{
closed = 1;
nodes = (
(505,1619.05,l),
(668,1877.386,l),
(1013,1877.386,l),
(744,1619.05,l)
);
}
);
width = 1240;
},
{
layerId = "FC265EF4-F21D-45B5-9DC3-EEC98E8078A4";
shapes = (
{
closed = 1;
nodes = (
(1357,0,l),
(1422,385,l),
(1325,385,l),
(1206,70,l),
(1280,104,l),
(384,104,l),
(436,79,l),
(436,721,l),
(387,701,l),
(984,701,l),
(920,732,l),
(967,500,l),
(1044,500,l),
(1044,1001,l),
(967,1001,l),
(920,769,l),
(974,792,l),
(387,792,l),
(436,777,l),
(436,1395,l),
(405,1356,l),
(1240,1356,l),
(1166,1400,l),
(1285,1085,l),
(1382,1085,l),
(1317,1460,l),
(113,1460,l),
(113,1383,l),
(335,1316,l),
(312,1370,l),
(312,90,l),
(335,144,l),
(113,77,l),
(113,0,l)
);
},
{
closed = 1;
nodes = (
(694,1652,l),
(946,1884,l),
(1119,1884,l),
(793,1652,l)
);
}
);
width = 1555;
},
{
layerId = "E1CD64A1-112A-4516-A7DF-4EBEDF7D0C85";
shapes = (
{
closed = 1;
nodes = (
(1387,0,l),
(1433,472,l),
(1251,472,l),
(1149,157,l),
(1203,203,l),
(463,203,l),
(529,132,l),
(529,715,l),
(457,650,l),
(861,650,l),
(802,695,l),
(915,426,l),
(1025,426,l),
(1025,1061,l),
(915,1061,l),
(802,792,l),
(864,840,l),
(457,840,l),
(529,789,l),
(529,1291,l),
(497,1258,l),
(1176,1258,l),
(1121,1301,l),
(1224,986,l),
(1406,986,l),
(1360,1460,l),
(77,1460,l),
(77,1311,l),
(251,1245,l),
(205,1312,l),
(205,103,l),
(279,227,l),
(77,149,l),
(77,0,l)
);
},
{
closed = 1;
nodes = (
(616,1619,l),
(813,1918,l),
(1198,1918,l),
(897,1619,l)
);
}
);
width = 1555;
},
{
layerId = "BEB83068-430F-4F93-8275-D4D4FE2C02C8";
shapes = (
{
closed = 1;
nodes = (
(1085,0,l),
(1150,385,l),
(1053,385,l),
(934,70,l),
(1008,104,l),
(307,104,l),
(359,79,l),
(359,721,l),
(310,701,l),
(755,701,l),
(691,732,l),
(738,500,l),
(815,500,l),
(815,1001,l),
(738,1001,l),
(691,769,l),
(745,792,l),
(310,792,l),
(359,777,l),
(359,1395,l),
(328,1356,l),
(968,1356,l),
(894,1400,l),
(1013,1085,l),
(1110,1085,l),
(1045,1460,l),
(76,1460,l),
(76,1383,l),
(258,1316,l),
(235,1370,l),
(235,90,l),
(258,144,l),
(76,77,l),
(76,0,l)
);
},
{
closed = 1;
nodes = (
(566,1650.191,l),
(768,1883.236,l),
(928,1883.236,l),
(655,1650.191,l)
);
}
);
width = 1240;
},
{
layerId = "3A752AAD-7068-4A08-8CFD-4D7C5CAE8856";
shapes = (
{
closed = 1;
nodes = (
(1016,0,l),
(1154,472,l),
(972,472,l),
(809,157,l),
(871,203,l),
(326,203,l),
(379,132,l),
(492,715,l),
(407,650,l),
(659,650,l),
(609,695,l),
(670,426,l),
(780,426,l),
(903,1061,l),
(793,1061,l),
(628,792,l),
(699,840,l),
(444,840,l),
(506,789,l),
(604,1291,l),
(566,1258,l),
(1050,1258,l),
(1003,1301,l),
(1045,986,l),
(1227,986,l),
(1273,1460,l),
(225,1460,l),
(196,1311,l),
(317,1245,l),
(284,1312,l),
(49,103,l),
(147,227,l),
(-30,149,l),
(-59,0,l)
);
},
{
closed = 1;
nodes = (
(715,1619,l),
(928,1877,l),
(1273,1877,l),
(954,1619,l)
);
}
);
width = 1240;
},
{
layerId = "5F491846-7617-4B03-8CE4-FAFF8D3DA710";
shapes = (
{
closed = 1;
nodes = (
(1260,0,l),
(1400,385,l),
(1303,385,l),
(1123,70,l),
(1203,104,l),
(307,104,l),
(354,79,l),
(479,721,l),
(426,701,l),
(1023,701,l),
(965,732,l),
(967,500,l),
(1044,500,l),
(1142,1001,l),
(1065,1001,l),
(972,769,l),
(1031,792,l),
(444,792,l),
(490,777,l),
(610,1395,l),
(572,1356,l),
(1407,1356,l),
(1351,1400,l),
(1399,1085,l),
(1496,1085,l),
(1504,1460,l),
(300,1460,l),
(285,1383,l),
(494,1316,l),
(481,1370,l),
(232,90,l),
(266,144,l),
(31,77,l),
(16,0,l)
);
},
{
closed = 1;
nodes = (
(918,1652,l),
(1215,1884,l),
(1388,1884,l),
(1017,1652,l)
);
}
);
width = 1555;
},
{
layerId = "6B25F7AD-67F3-407A-A333-8CA62504B4E5";
shapes = (
{
closed = 1;
nodes = (
(1282,0,l),
(1420,472,l),
(1238,472,l),
(1075,157,l),
(1137,203,l),
(397,203,l),
(450,132,l),
(563,715,l),
(478,650,l),
(882,650,l),
(832,695,l),
(893,426,l),
(1003,426,l),
(1126,1061,l),
(1016,1061,l),
(851,792,l),
(922,840,l),
(515,840,l),
(577,789,l),
(675,1291,l),
(637,1258,l),
(1316,1258,l),
(1269,1301,l),
(1311,986,l),
(1493,986,l),
(1539,1460,l),
(256,1460,l),
(227,1311,l),
(388,1245,l),
(355,1312,l),
(120,103,l),
(218,227,l),
(1,149,l),
(-28,0,l)
);
},
{
closed = 1;
nodes = (
(826,1619,l),
(1081,1918,l),
(1466,1918,l),
(1107,1619,l)
);
}
);
width = 1555;
},
{
layerId = "2935642B-2075-4830-97B8-D7DDAAAB1EBE";
shapes = (
{
closed = 1;
nodes = (
(988,0,l),
(1128,385,l),
(1031,385,l),
(851,70,l),
(931,104,l),
(230,104,l),
(277,79,l),
(402,721,l),
(349,701,l),
(794,701,l),
(736,732,l),
(738,500,l),
(815,500,l),
(913,1001,l),
(836,1001,l),
(743,769,l),
(802,792,l),
(367,792,l),
(413,777,l),
(533,1395,l),
(495,1356,l),
(1135,1356,l),
(1079,1400,l),
(1127,1085,l),
(1224,1085,l),
(1232,1460,l),
(263,1460,l),
(248,1383,l),
(417,1316,l),
(404,1370,l),
(155,90,l),
(189,144,l),
(-6,77,l),
(-21,0,l)
);
},
{
closed = 1;
nodes = (
(790,1650,l),
(1037,1883,l),
(1197,1883,l),
(879,1650,l)
);
}
);
width = 1240;
}
);
unicode = 201;
},
{
glyphname = Ebreve;
lastChange = "2024-05-08 18:01:49 +0000";
layers = (
{
layerId = "C612A24F-6EED-4FC1-9F18-2B0E93FAFD61";
shapes = (
{
closed = 1;
nodes = (
(1121,0,l),
(1167,472,l),
(985,472,l),
(883,157,l),
(937,203,l),
(392,203,l),
(458,132,l),
(458,715,l),
(386,650,l),
(638,650,l),
(579,695,l),
(692,426,l),
(802,426,l),
(802,1061,l),
(692,1061,l),
(579,792,l),
(641,840,l),
(386,840,l),
(458,789,l),
(458,1291,l),
(426,1258,l),
(910,1258,l),
(855,1301,l),
(958,986,l),
(1140,986,l),
(1094,1460,l),
(46,1460,l),
(46,1311,l),
(180,1245,l),
(134,1312,l),
(134,103,l),
(208,227,l),
(46,149,l),
(46,0,l)
);
},
{
closed = 1;
nodes = (
(866,1600,o),
(968,1696,o),
(960,1878,c),
(812,1878,l),
(812,1812,o),
(734,1765,o),
(620,1765,cs),
(506,1765,o),
(428,1812,o),
(428,1878,c),
(280,1878,l),
(272,1696,o),
(374,1600,o),
(620,1600,cs)
);
}
);
width = 1240;
},
{
layerId = "FC265EF4-F21D-45B5-9DC3-EEC98E8078A4";
shapes = (
{
closed = 1;
nodes = (
(1357,0,l),
(1422,385,l),
(1325,385,l),
(1206,70,l),
(1280,104,l),
(384,104,l),
(436,79,l),
(436,721,l),
(387,701,l),
(984,701,l),
(920,732,l),
(967,500,l),
(1044,500,l),
(1044,1001,l),
(967,1001,l),
(920,769,l),
(974,792,l),
(387,792,l),
(436,777,l),
(436,1395,l),
(405,1356,l),
(1240,1356,l),
(1166,1400,l),
(1285,1085,l),
(1382,1085,l),
(1317,1460,l),
(113,1460,l),
(113,1383,l),
(335,1316,l),
(312,1370,l),
(312,90,l),
(335,144,l),
(113,77,l),
(113,0,l)
);
},
{
closed = 1;
nodes = (
(960,1643,o),
(1072,1722,o),
(1070,1883,c),
(994,1883,l),
(994,1800,o),
(916,1741,o),
(753,1741,cs),
(589,1741,o),
(513,1800,o),
(513,1883,c),
(437,1883,l),
(435,1722,o),
(546,1643,o),
(753,1643,cs)
);
}
);
width = 1555;
},
{
layerId = "E1CD64A1-112A-4516-A7DF-4EBEDF7D0C85";
shapes = (
{
closed = 1;
nodes = (
(1387,0,l),
(1433,472,l),
(1251,472,l),
(1149,157,l),
(1203,203,l),
(463,203,l),
(529,132,l),
(529,715,l),
(457,650,l),
(861,650,l),
(802,695,l),
(915,426,l),
(1025,426,l),
(1025,1061,l),
(915,1061,l),
(802,792,l),
(864,840,l),
(457,840,l),
(529,789,l),
(529,1291,l),
(497,1258,l),
(1176,1258,l),
(1121,1301,l),
(1224,986,l),
(1406,986,l),
(1360,1460,l),
(77,1460,l),
(77,1311,l),
(251,1245,l),
(205,1312,l),
(205,103,l),
(279,227,l),
(77,149,l),
(77,0,l)
);
},
{
closed = 1;
nodes = (
(1021,1598,o),
(1166,1682,o),
(1163,1908,c),
(1015,1908,l),
(1015,1809,o),
(892,1762,o),
(748,1762,cs),
(605,1762,o),
(480,1809,o),
(480,1908,c),
(332,1908,l),
(329,1682,o),
(475,1598,o),
(748,1598,cs)
);
}
);
width = 1555;
},
{
layerId = "BEB83068-430F-4F93-8275-D4D4FE2C02C8";
shapes = (
{
closed = 1;
nodes = (
(1085,0,l),
(1150,385,l),
(1053,385,l),
(934,70,l),
(1008,104,l),
(307,104,l),
(359,79,l),
(359,721,l),
(310,701,l),
(755,701,l),
(691,732,l),
(738,500,l),
(815,500,l),
(815,1001,l),
(738,1001,l),
(691,769,l),
(745,792,l),
(310,792,l),
(359,777,l),
(359,1395,l),
(328,1356,l),
(968,1356,l),
(894,1400,l),
(1013,1085,l),
(1110,1085,l),
(1045,1460,l),
(76,1460,l),
(76,1383,l),
(258,1316,l),
(235,1370,l),
(235,90,l),
(258,144,l),
(76,77,l),
(76,0,l)
);
},
{
closed = 1;
nodes = (
(795,1643,o),
(886,1743,o),
(877,1883,c),
(807,1883,l),
(807,1816,o),
(748,1742,o),
(620,1742,cs),
(492,1742,o),
(433,1816,o),
(433,1883,c),
(363,1883,l),
(354,1743,o),
(445,1643,o),
(620,1643,cs)
);
}
);
width = 1240;
},
{
layerId = "3A752AAD-7068-4A08-8CFD-4D7C5CAE8856";
shapes = (
{
closed = 1;
nodes = (
(1016,0,l),
(1154,472,l),
(972,472,l),
(809,157,l),
(871,203,l),
(326,203,l),
(379,132,l),
(492,715,l),
(407,650,l),
(659,650,l),
(609,695,l),
(670,426,l),
(780,426,l),
(903,1061,l),
(793,1061,l),
(628,792,l),
(699,840,l),
(444,840,l),
(506,789,l),
(604,1291,l),
(566,1258,l),
(1050,1258,l),
(1003,1301,l),
(1045,986,l),
(1227,986,l),
(1273,1460,l),
(225,1460,l),
(196,1311,l),
(317,1245,l),
(284,1312,l),
(49,103,l),
(147,227,l),
(-30,149,l),
(-59,0,l)
);
},
{
closed = 1;
nodes = (
(1072,1600,o),
(1193,1696,o),
(1220,1878,c),
(1072,1878,l),
(1059,1812,o),
(972,1765,o),
(858,1765,cs),
(744,1765,o),
(675,1812,o),
(688,1878,c),
(540,1878,l),
(497,1696,o),
(580,1600,o),
(826,1600,cs)
);
}
);
width = 1240;
},
{
layerId = "5F491846-7617-4B03-8CE4-FAFF8D3DA710";
shapes = (
{
closed = 1;
nodes = (
(1260,0,l),
(1400,385,l),
(1303,385,l),
(1123,70,l),
(1203,104,l),
(307,104,l),
(354,79,l),
(479,721,l),
(426,701,l),
(1023,701,l),
(965,732,l),
(967,500,l),
(1044,500,l),
(1142,1001,l),
(1065,1001,l),
(972,769,l),
(1031,792,l),
(444,792,l),
(490,777,l),
(610,1395,l),
(572,1356,l),
(1407,1356,l),
(1351,1400,l),
(1399,1085,l),
(1496,1085,l),
(1504,1460,l),
(300,1460,l),
(285,1383,l),
(494,1316,l),
(481,1370,l),
(232,90,l),
(266,144,l),
(31,77,l),
(16,0,l)
);
},
{
closed = 1;
nodes = (
(1182,1643,o),
(1310,1722,o),
(1339,1883,c),
(1263,1883,l),
(1247,1800,o),
(1157,1741,o),
(994,1741,cs),
(830,1741,o),
(766,1800,o),
(782,1883,c),
(706,1883,l),
(673,1722,o),
(768,1643,o),
(975,1643,cs)
);
}
);
width = 1555;
},
{
layerId = "6B25F7AD-67F3-407A-A333-8CA62504B4E5";
shapes = (
{
closed = 1;
nodes = (
(1282,0,l),
(1420,472,l),
(1238,472,l),
(1075,157,l),
(1137,203,l),
(397,203,l),
(450,132,l),
(563,715,l),
(478,650,l),
(882,650,l),
(832,695,l),
(893,426,l),
(1003,426,l),
(1126,1061,l),
(1016,1061,l),
(851,792,l),
(922,840,l),
(515,840,l),
(577,789,l),
(675,1291,l),
(637,1258,l),
(1316,1258,l),
(1269,1301,l),
(1311,986,l),
(1493,986,l),
(1539,1460,l),
(256,1460,l),
(227,1311,l),
(388,1245,l),
(355,1312,l),
(120,103,l),
(218,227,l),
(1,149,l),
(-28,0,l)
);
},
{
closed = 1;
nodes = (
(1227,1598,o),
(1388,1682,o),
(1429,1908,c),
(1281,1908,l),
(1262,1809,o),
(1129,1762,o),
(985,1762,cs),
(842,1762,o),
(727,1809,o),
(746,1908,c),
(598,1908,l),
(551,1682,o),
(681,1598,o),
(954,1598,cs)
);
}
);
width = 1555;
},
{
layerId = "2935642B-2075-4830-97B8-D7DDAAAB1EBE";
shapes = (
{
closed = 1;
nodes = (
(988,0,l),
(1128,385,l),
(1031,385,l),
(851,70,l),
(931,104,l),
(230,104,l),
(277,79,l),
(402,721,l),
(349,701,l),
(794,701,l),
(736,732,l),
(738,500,l),
(815,500,l),
(913,1001,l),
(836,1001,l),
(743,769,l),
(802,792,l),
(367,792,l),
(413,777,l),
(533,1395,l),
(495,1356,l),
(1135,1356,l),
(1079,1400,l),
(1127,1085,l),
(1224,1085,l),
(1232,1460,l),
(263,1460,l),
(248,1383,l),
(417,1316,l),
(404,1370,l),
(155,90,l),
(189,144,l),
(-6,77,l),
(-21,0,l)
);
},
{
closed = 1;
nodes = (
(1017,1643,o),
(1128,1743,o),
(1146,1883,c),
(1076,1883,l),
(1063,1816,o),
(990,1742,o),
(862,1742,cs),
(734,1742,o),
(689,1816,o),
(702,1883,c),
(632,1883,l),
(596,1743,o),
(667,1643,o),
(842,1643,cs)
);
}
);
width = 1240;
}
);
unicode = 276;
},
{
glyphname = Ecaron;
lastChange = "2024-05-08 18:01:49 +0000";
layers = (
{
layerId = "C612A24F-6EED-4FC1-9F18-2B0E93FAFD61";
shapes = (
{
closed = 1;
nodes = (
(1121,0,l),
(1167,472,l),
(985,472,l),
(883,157,l),
(937,203,l),
(392,203,l),
(458,132,l),
(458,715,l),
(386,650,l),
(638,650,l),
(579,695,l),
(692,426,l),
(802,426,l),
(802,1061,l),
(692,1061,l),
(579,792,l),
(641,840,l),
(386,840,l),
(458,789,l),
(458,1291,l),
(426,1258,l),
(910,1258,l),
(855,1301,l),
(958,986,l),
(1140,986,l),
(1094,1460,l),
(46,1460,l),
(46,1311,l),
(180,1245,l),
(134,1312,l),
(134,103,l),
(208,227,l),
(46,149,l),
(46,0,l)
);
},
{
closed = 1;
nodes = (
(453,1878,l),
(644,1734,l),
(596,1734,l),
(787,1878,l),
(1001,1878,l),
(813,1620,l),
(427,1620,l),
(239,1878,l)
);
}
);
width = 1240;
},
{
layerId = "FC265EF4-F21D-45B5-9DC3-EEC98E8078A4";
shapes = (
{
closed = 1;
nodes = (
(1357,0,l),
(1422,385,l),
(1325,385,l),
(1206,70,l),
(1280,104,l),
(384,104,l),
(436,79,l),
(436,721,l),
(387,701,l),
(984,701,l),
(920,732,l),
(967,500,l),
(1044,500,l),
(1044,1001,l),
(967,1001,l),
(920,769,l),
(974,792,l),
(387,792,l),
(436,777,l),
(436,1395,l),
(405,1356,l),
(1240,1356,l),
(1166,1400,l),
(1285,1085,l),
(1382,1085,l),
(1317,1460,l),
(113,1460,l),
(113,1383,l),
(335,1316,l),
(312,1370,l),
(312,90,l),
(335,144,l),
(113,77,l),
(113,0,l)
);
},
{
closed = 1;
nodes = (
(489,1883,l),
(784,1724,l),
(722,1724,l),
(1018,1883,l),
(1125,1883,l),
(831,1650,l),
(675,1650,l),
(382,1883,l)
);
}
);
width = 1555;
},
{
layerId = "E1CD64A1-112A-4516-A7DF-4EBEDF7D0C85";
shapes = (
{
closed = 1;
nodes = (
(1387,0,l),
(1433,472,l),
(1251,472,l),
(1149,157,l),
(1203,203,l),
(463,203,l),
(529,132,l),
(529,715,l),
(457,650,l),
(861,650,l),
(802,695,l),
(915,426,l),
(1025,426,l),
(1025,1061,l),
(915,1061,l),
(802,792,l),
(864,840,l),
(457,840,l),
(529,789,l),
(529,1291,l),
(497,1258,l),
(1176,1258,l),
(1121,1301,l),
(1224,986,l),
(1406,986,l),
(1360,1460,l),
(77,1460,l),
(77,1311,l),
(251,1245,l),
(205,1312,l),
(205,103,l),
(279,227,l),
(77,149,l),
(77,0,l)
);
},
{
closed = 1;
nodes = (
(531,1908,l),
(781,1762,l),
(713,1762,l),
(964,1908,l),
(1218,1908,l),
(940,1620,l),
(554,1620,l),
(277,1908,l)
);
}
);
width = 1555;
},
{
layerId = "BEB83068-430F-4F93-8275-D4D4FE2C02C8";
shapes = (
{
closed = 1;
nodes = (
(1085,0,l),
(1150,385,l),
(1053,385,l),
(934,70,l),
(1008,104,l),
(307,104,l),
(359,79,l),
(359,721,l),
(310,701,l),
(755,701,l),
(691,732,l),
(738,500,l),
(815,500,l),
(815,1001,l),
(738,1001,l),
(691,769,l),
(745,792,l),
(310,792,l),
(359,777,l),
(359,1395,l),
(328,1356,l),
(968,1356,l),
(894,1400,l),
(1013,1085,l),
(1110,1085,l),
(1045,1460,l),
(76,1460,l),
(76,1383,l),
(258,1316,l),
(235,1370,l),
(235,90,l),
(258,144,l),
(76,77,l),
(76,0,l)
);
},
{
closed = 1;
nodes = (
(409,1883,l),
(648,1719,l),
(592,1719,l),
(831,1883,l),
(922,1883,l),
(678,1650,l),
(562,1650,l),
(318,1883,l)
);
}
);
width = 1240;
},
{
layerId = "3A752AAD-7068-4A08-8CFD-4D7C5CAE8856";
shapes = (
{
closed = 1;
nodes = (
(1016,0,l),
(1154,472,l),
(972,472,l),
(809,157,l),
(871,203,l),
(326,203,l),
(379,132,l),
(492,715,l),
(407,650,l),
(659,650,l),
(609,695,l),
(670,426,l),
(780,426,l),
(903,1061,l),
(793,1061,l),
(628,792,l),
(699,840,l),
(444,840,l),
(506,789,l),
(604,1291,l),
(566,1258,l),
(1050,1258,l),
(1003,1301,l),
(1045,986,l),
(1227,986,l),
(1273,1460,l),
(225,1460,l),
(196,1311,l),
(317,1245,l),
(284,1312,l),
(49,103,l),
(147,227,l),
(-30,149,l),
(-59,0,l)
);
},
{
closed = 1;
nodes = (
(713,1878,l),
(876,1734,l),
(828,1734,l),
(1047,1878,l),
(1261,1878,l),
(1023,1620,l),
(637,1620,l),
(499,1878,l)
);
}
);
width = 1240;
},
{
layerId = "5F491846-7617-4B03-8CE4-FAFF8D3DA710";
shapes = (
{
closed = 1;
nodes = (
(1260,0,l),
(1400,385,l),
(1303,385,l),
(1123,70,l),
(1203,104,l),
(307,104,l),
(354,79,l),
(479,721,l),
(426,701,l),
(1023,701,l),
(965,732,l),
(967,500,l),
(1044,500,l),
(1142,1001,l),
(1065,1001,l),
(972,769,l),
(1031,792,l),
(444,792,l),
(490,777,l),
(610,1395,l),
(572,1356,l),
(1407,1356,l),
(1351,1400,l),
(1399,1085,l),
(1496,1085,l),
(1504,1460,l),
(300,1460,l),
(285,1383,l),
(494,1316,l),
(481,1370,l),
(232,90,l),
(266,144,l),
(31,77,l),
(16,0,l)
);
},
{
closed = 1;
nodes = (
(758,1883,l),
(1022,1724,l),
(960,1724,l),
(1287,1883,l),
(1394,1883,l),
(1055,1650,l),
(899,1650,l),
(651,1883,l)
);
}
);
width = 1555;
},
{
layerId = "6B25F7AD-67F3-407A-A333-8CA62504B4E5";
shapes = (
{
closed = 1;
nodes = (
(1282,0,l),
(1420,472,l),
(1238,472,l),
(1075,157,l),
(1137,203,l),
(397,203,l),
(450,132,l),
(563,715,l),
(478,650,l),
(882,650,l),
(832,695,l),
(893,426,l),
(1003,426,l),
(1126,1061,l),
(1016,1061,l),
(851,792,l),
(922,840,l),
(515,840,l),
(577,789,l),
(675,1291,l),
(637,1258,l),
(1316,1258,l),
(1269,1301,l),
(1311,986,l),
(1493,986,l),
(1539,1460,l),
(256,1460,l),
(227,1311,l),
(388,1245,l),
(355,1312,l),
(120,103,l),
(218,227,l),
(1,149,l),
(-28,0,l)
);
},
{
closed = 1;
nodes = (
(797,1908,l),
(1018,1762,l),
(950,1762,l),
(1230,1908,l),
(1484,1908,l),
(1150,1620,l),
(764,1620,l),
(543,1908,l)
);
}
);
width = 1555;
},
{
layerId = "2935642B-2075-4830-97B8-D7DDAAAB1EBE";
shapes = (
{
closed = 1;
nodes = (
(988,0,l),
(1128,385,l),
(1031,385,l),
(851,70,l),
(931,104,l),
(230,104,l),
(277,79,l),
(402,721,l),
(349,701,l),
(794,701,l),
(736,732,l),
(738,500,l),
(815,500,l),
(913,1001,l),
(836,1001,l),
(743,769,l),
(802,792,l),
(367,792,l),
(413,777,l),
(533,1395,l),
(495,1356,l),
(1135,1356,l),
(1079,1400,l),
(1127,1085,l),
(1224,1085,l),
(1232,1460,l),
(263,1460,l),
(248,1383,l),
(417,1316,l),
(404,1370,l),
(155,90,l),
(189,144,l),
(-6,77,l),
(-21,0,l)
);
},
{
closed = 1;
nodes = (
(678,1883,l),
(885,1719,l),
(829,1719,l),
(1100,1883,l),
(1191,1883,l),
(902,1650,l),
(786,1650,l),
(587,1883,l)
);
}
);
width = 1240;
}
);
unicode = 282;
},
{
glyphname = Ecircumflex;
lastChange = "2024-05-08 18:01:49 +0000";
layers = (
{
layerId = "C612A24F-6EED-4FC1-9F18-2B0E93FAFD61";
shapes = (
{
closed = 1;
nodes = (
(1121,0,l),
(1167,472,l),
(985,472,l),
(883,157,l),
(937,203,l),
(392,203,l),
(458,132,l),
(458,715,l),
(386,650,l),
(638,650,l),
(579,695,l),
(692,426,l),
(802,426,l),
(802,1061,l),
(692,1061,l),
(579,792,l),
(641,840,l),
(386,840,l),
(458,789,l),
(458,1291,l),
(426,1258,l),
(910,1258,l),
(855,1301,l),
(958,986,l),
(1140,986,l),
(1094,1460,l),
(46,1460,l),
(46,1311,l),
(180,1245,l),
(134,1312,l),
(134,103,l),
(208,227,l),
(46,149,l),
(46,0,l)
);
},
{
closed = 1;
nodes = (
(453,1620,l),
(644,1764,l),
(596,1764,l),
(787,1620,l),
(1001,1620,l),
(813,1878,l),
(427,1878,l),
(239,1620,l)
);
}
);
width = 1240;
},
{
layerId = "FC265EF4-F21D-45B5-9DC3-EEC98E8078A4";
shapes = (
{
closed = 1;
nodes = (
(1357,0,l),
(1422,385,l),
(1325,385,l),
(1206,70,l),
(1280,104,l),
(384,104,l),
(436,79,l),
(436,721,l),
(387,701,l),
(984,701,l),
(920,732,l),
(967,500,l),
(1044,500,l),
(1044,1001,l),
(967,1001,l),
(920,769,l),
(974,792,l),
(387,792,l),
(436,777,l),
(436,1395,l),
(405,1356,l),
(1240,1356,l),
(1166,1400,l),
(1285,1085,l),
(1382,1085,l),
(1317,1460,l),
(113,1460,l),
(113,1383,l),
(335,1316,l),
(312,1370,l),
(312,90,l),
(335,144,l),
(113,77,l),
(113,0,l)
);
},
{
closed = 1;
nodes = (
(489,1650,l),
(784,1809,l),
(722,1809,l),
(1018,1650,l),
(1125,1650,l),
(831,1883,l),
(675,1883,l),
(382,1650,l)
);
}
);
width = 1555;
},
{
layerId = "E1CD64A1-112A-4516-A7DF-4EBEDF7D0C85";
shapes = (
{
closed = 1;
nodes = (
(1387,0,l),
(1433,472,l),
(1251,472,l),
(1149,157,l),
(1203,203,l),
(463,203,l),
(529,132,l),
(529,715,l),
(457,650,l),
(861,650,l),
(802,695,l),
(915,426,l),
(1025,426,l),
(1025,1061,l),
(915,1061,l),
(802,792,l),
(864,840,l),
(457,840,l),
(529,789,l),
(529,1291,l),
(497,1258,l),
(1176,1258,l),
(1121,1301,l),
(1224,986,l),
(1406,986,l),
(1360,1460,l),
(77,1460,l),
(77,1311,l),
(251,1245,l),
(205,1312,l),
(205,103,l),
(279,227,l),
(77,149,l),
(77,0,l)
);
},
{
closed = 1;
nodes = (
(531,1620,l),
(781,1766,l),
(713,1766,l),
(964,1620,l),
(1218,1620,l),
(940,1908,l),
(554,1908,l),
(277,1620,l)
);
}
);
width = 1555;
},
{
layerId = "BEB83068-430F-4F93-8275-D4D4FE2C02C8";
shapes = (
{
closed = 1;
nodes = (
(1085,0,l),
(1150,385,l),
(1053,385,l),
(934,70,l),
(1008,104,l),
(307,104,l),
(359,79,l),
(359,721,l),
(310,701,l),
(755,701,l),
(691,732,l),
(738,500,l),
(815,500,l),
(815,1001,l),
(738,1001,l),
(691,769,l),
(745,792,l),
(310,792,l),
(359,777,l),
(359,1395,l),
(328,1356,l),
(968,1356,l),
(894,1400,l),
(1013,1085,l),
(1110,1085,l),
(1045,1460,l),
(76,1460,l),
(76,1383,l),
(258,1316,l),
(235,1370,l),
(235,90,l),
(258,144,l),
(76,77,l),
(76,0,l)
);
},
{
closed = 1;
nodes = (
(409,1650,l),
(648,1814,l),
(592,1814,l),
(831,1650,l),
(922,1650,l),
(678,1883,l),
(562,1883,l),
(318,1650,l)
);
}
);
width = 1240;
},
{
layerId = "3A752AAD-7068-4A08-8CFD-4D7C5CAE8856";
shapes = (
{
closed = 1;
nodes = (
(1016,0,l),
(1154,472,l),
(972,472,l),
(809,157,l),
(871,203,l),
(326,203,l),
(379,132,l),
(492,715,l),
(407,650,l),
(659,650,l),
(609,695,l),
(670,426,l),
(780,426,l),
(903,1061,l),
(793,1061,l),
(628,792,l),
(699,840,l),
(444,840,l),
(506,789,l),
(604,1291,l),
(566,1258,l),
(1050,1258,l),
(1003,1301,l),
(1045,986,l),
(1227,986,l),
(1273,1460,l),
(225,1460,l),
(196,1311,l),
(317,1245,l),
(284,1312,l),
(49,103,l),
(147,227,l),
(-30,149,l),
(-59,0,l)
);
},
{
closed = 1;
nodes = (
(663,1620,l),
(882,1764,l),
(834,1764,l),
(997,1620,l),
(1211,1620,l),
(1073,1878,l),
(687,1878,l),
(449,1620,l)
);
}
);
width = 1240;
},
{
layerId = "5F491846-7617-4B03-8CE4-FAFF8D3DA710";
shapes = (
{
closed = 1;
nodes = (
(1260,0,l),
(1400,385,l),
(1303,385,l),
(1123,70,l),
(1203,104,l),
(307,104,l),
(354,79,l),
(479,721,l),
(426,701,l),
(1023,701,l),
(965,732,l),
(967,500,l),
(1044,500,l),
(1142,1001,l),
(1065,1001,l),
(972,769,l),
(1031,792,l),
(444,792,l),
(490,777,l),
(610,1395,l),
(572,1356,l),
(1407,1356,l),
(1351,1400,l),
(1399,1085,l),
(1496,1085,l),
(1504,1460,l),
(300,1460,l),
(285,1383,l),
(494,1316,l),
(481,1370,l),
(232,90,l),
(266,144,l),
(31,77,l),
(16,0,l)
);
},
{
closed = 1;
nodes = (
(713,1650,l),
(1039,1809,l),
(977,1809,l),
(1242,1650,l),
(1349,1650,l),
(1100,1883,l),
(944,1883,l),
(606,1650,l)
);
}
);
width = 1555;
},
{
layerId = "6B25F7AD-67F3-407A-A333-8CA62504B4E5";
shapes = (
{
closed = 1;
nodes = (
(1282,0,l),
(1420,472,l),
(1238,472,l),
(1075,157,l),
(1137,203,l),
(397,203,l),
(450,132,l),
(563,715,l),
(478,650,l),
(882,650,l),
(832,695,l),
(893,426,l),
(1003,426,l),
(1126,1061,l),
(1016,1061,l),
(851,792,l),
(922,840,l),
(515,840,l),
(577,789,l),
(675,1291,l),
(637,1258,l),
(1316,1258,l),
(1269,1301,l),
(1311,986,l),
(1493,986,l),
(1539,1460,l),
(256,1460,l),
(227,1311,l),
(388,1245,l),
(355,1312,l),
(120,103,l),
(218,227,l),
(1,149,l),
(-28,0,l)
);
},
{
closed = 1;
nodes = (
(741,1620,l),
(1019,1766,l),
(951,1766,l),
(1174,1620,l),
(1428,1620,l),
(1206,1908,l),
(820,1908,l),
(487,1620,l)
);
}
);
width = 1555;
},
{
layerId = "2935642B-2075-4830-97B8-D7DDAAAB1EBE";
shapes = (
{
closed = 1;
nodes = (
(988,0,l),
(1128,385,l),
(1031,385,l),
(851,70,l),
(931,104,l),
(230,104,l),
(277,79,l),
(402,721,l),
(349,701,l),
(794,701,l),
(736,732,l),
(738,500,l),
(815,500,l),
(913,1001,l),
(836,1001,l),
(743,769,l),
(802,792,l),
(367,792,l),
(413,777,l),
(533,1395,l),
(495,1356,l),
(1135,1356,l),
(1079,1400,l),
(1127,1085,l),
(1224,1085,l),
(1232,1460,l),
(263,1460,l),
(248,1383,l),
(417,1316,l),
(404,1370,l),
(155,90,l),
(189,144,l),
(-6,77,l),
(-21,0,l)
);
},
{
closed = 1;
nodes = (
(633,1650,l),
(904,1814,l),
(848,1814,l),
(1055,1650,l),
(1146,1650,l),
(947,1883,l),
(831,1883,l),
(542,1650,l)
);
}
);
width = 1240;
}
);
unicode = 202;
},
{
glyphname = Edieresis;
lastChange = "2024-05-08 18:01:49 +0000";
layers = (
{
layerId = "C612A24F-6EED-4FC1-9F18-2B0E93FAFD61";
shapes = (
{
closed = 1;
nodes = (
(1121,0,l),
(1167,472,l),
(985,472,l),
(883,157,l),
(937,203,l),
(392,203,l),
(458,132,l),
(458,715,l),
(386,650,l),
(638,650,l),
(579,695,l),
(692,426,l),
(802,426,l),
(802,1061,l),
(692,1061,l),
(579,792,l),
(641,840,l),
(386,840,l),
(458,789,l),
(458,1291,l),
(426,1258,l),
(910,1258,l),
(855,1301,l),
(958,986,l),
(1140,986,l),
(1094,1460,l),
(46,1460,l),
(46,1311,l),
(180,1245,l),
(134,1312,l),
(134,103,l),
(208,227,l),
(46,149,l),
(46,0,l)
);
},
{
closed = 1;
nodes = (
(436.112,1618.8,o),
(501.184,1678.8,o),
(501.184,1771.6,cs),
(501.184,1864.4,o),
(436.112,1922,o),
(339.68,1922,cs),
(243.248,1922,o),
(178.176,1864.4,o),
(178.176,1771.6,cs),
(178.176,1678.8,o),
(243.248,1618.8,o),
(339.68,1618.8,cs)
);
},
{
closed = 1;
nodes = (
(997.112,1618.8,o),
(1062.184,1678.8,o),
(1062.184,1771.6,cs),
(1062.184,1864.4,o),
(997.112,1922,o),
(900.68,1922,cs),
(804.248,1922,o),
(739.176,1864.4,o),
(739.176,1771.6,cs),
(739.176,1678.8,o),
(804.248,1618.8,o),
(900.68,1618.8,cs)
);
}
);
width = 1240;
},
{
layerId = "FC265EF4-F21D-45B5-9DC3-EEC98E8078A4";
shapes = (
{
closed = 1;
nodes = (
(1357,0,l),
(1422,385,l),
(1325,385,l),
(1206,70,l),
(1280,104,l),
(384,104,l),
(436,79,l),
(436,721,l),
(387,701,l),
(984,701,l),
(920,732,l),
(967,500,l),
(1044,500,l),
(1044,1001,l),
(967,1001,l),
(920,769,l),
(974,792,l),
(387,792,l),
(436,777,l),
(436,1395,l),
(405,1356,l),
(1240,1356,l),
(1166,1400,l),
(1285,1085,l),
(1382,1085,l),
(1317,1460,l),
(113,1460,l),
(113,1383,l),
(335,1316,l),
(312,1370,l),
(312,90,l),
(335,144,l),
(113,77,l),
(113,0,l)
);
},
{
closed = 1;
nodes = (
(510,1663,o),
(554,1699,o),
(554,1761,cs),
(554,1823,o),
(510,1859,o),
(448,1859,cs),
(386,1859,o),
(342,1823,o),
(342,1761,cs),
(342,1699,o),
(386,1663,o),
(448,1663,cs)
);
},
{
closed = 1;
nodes = (
(1122,1663,o),
(1166,1699,o),
(1166,1761,cs),
(1166,1823,o),
(1122,1859,o),
(1060,1859,cs),
(998,1859,o),
(954,1823,o),
(954,1761,cs),
(954,1699,o),
(998,1663,o),
(1060,1663,cs)
);
}
);
width = 1555;
},
{
layerId = "E1CD64A1-112A-4516-A7DF-4EBEDF7D0C85";
shapes = (
{
closed = 1;
nodes = (
(1387,0,l),
(1433,472,l),
(1251,472,l),
(1149,157,l),
(1203,203,l),
(463,203,l),
(529,132,l),
(529,715,l),
(457,650,l),
(861,650,l),
(802,695,l),
(915,426,l),
(1025,426,l),
(1025,1061,l),
(915,1061,l),
(802,792,l),
(864,840,l),
(457,840,l),
(529,789,l),
(529,1291,l),
(497,1258,l),
(1176,1258,l),
(1121,1301,l),
(1224,986,l),
(1406,986,l),
(1360,1460,l),
(77,1460,l),
(77,1311,l),
(251,1245,l),
(205,1312,l),
(205,103,l),
(279,227,l),
(77,149,l),
(77,0,l)
);
},
{
closed = 1;
nodes = (
(512,1645,o),
(577,1705,o),
(577,1798,cs),
(577,1890,o),
(512,1948,o),
(416,1948,cs),
(319,1948,o),
(254,1890,o),
(254,1798,cs),
(254,1705,o),
(319,1645,o),
(416,1645,cs)
);
},
{
closed = 1;
nodes = (
(1185,1645,o),
(1250,1705,o),
(1250,1798,cs),
(1250,1890,o),
(1185,1948,o),
(1089,1948,cs),
(992,1948,o),
(927,1890,o),
(927,1798,cs),
(927,1705,o),
(992,1645,o),
(1089,1645,cs)
);
}
);
width = 1555;
},
{
layerId = "BEB83068-430F-4F93-8275-D4D4FE2C02C8";
shapes = (
{
closed = 1;
nodes = (
(1085,0,l),
(1150,385,l),
(1053,385,l),
(934,70,l),
(1008,104,l),
(307,104,l),
(359,79,l),
(359,721,l),
(310,701,l),
(755,701,l),
(691,732,l),
(738,500,l),
(815,500,l),
(815,1001,l),
(738,1001,l),
(691,769,l),
(745,792,l),
(310,792,l),
(359,777,l),
(359,1395,l),
(328,1356,l),
(968,1356,l),
(894,1400,l),
(1013,1085,l),
(1110,1085,l),
(1045,1460,l),
(76,1460,l),
(76,1383,l),
(258,1316,l),
(235,1370,l),
(235,90,l),
(258,144,l),
(76,77,l),
(76,0,l)
);
},
{
closed = 1;
nodes = (
(434.36,1663,o),
(477.48,1699,o),
(477.48,1761,cs),
(477.48,1823,o),
(434.36,1859,o),
(373.6,1859,cs),
(312.84,1859,o),
(269.72,1823,o),
(269.72,1761,cs),
(269.72,1699,o),
(312.84,1663,o),
(373.6,1663,cs)
);
},
{
closed = 1;
nodes = (
(927.36,1663,o),
(970.48,1699,o),
(970.48,1761,cs),
(970.48,1823,o),
(927.36,1859,o),
(866.6,1859,cs),
(805.84,1859,o),
(762.72,1823,o),
(762.72,1761,cs),
(762.72,1699,o),
(805.84,1663,o),
(866.6,1663,cs)
);
}
);
width = 1240;
},
{
layerId = "3A752AAD-7068-4A08-8CFD-4D7C5CAE8856";
shapes = (
{
closed = 1;
nodes = (
(1016,0,l),
(1154,472,l),
(972,472,l),
(809,157,l),
(871,203,l),
(326,203,l),
(379,132,l),
(492,715,l),
(407,650,l),
(659,650,l),
(609,695,l),
(670,426,l),
(780,426,l),
(903,1061,l),
(793,1061,l),
(628,792,l),
(699,840,l),
(444,840,l),
(506,789,l),
(604,1291,l),
(566,1258,l),
(1050,1258,l),
(1003,1301,l),
(1045,986,l),
(1227,986,l),
(1273,1460,l),
(225,1460,l),
(196,1311,l),
(317,1245,l),
(284,1312,l),
(49,103,l),
(147,227,l),
(-30,149,l),
(-59,0,l)
);
},
{
closed = 1;
nodes = (
(646,1619,o),
(723,1679,o),
(741,1772,cs),
(759,1864,o),
(705,1922,o),
(608,1922,cs),
(512,1922,o),
(436,1864,o),
(418,1772,cs),
(400,1679,o),
(453,1619,o),
(549,1619,cs)
);
},
{
closed = 1;
nodes = (
(1207,1619,o),
(1284,1679,o),
(1302,1772,cs),
(1320,1864,o),
(1266,1922,o),
(1169,1922,cs),
(1073,1922,o),
(997,1864,o),
(979,1772,cs),
(961,1679,o),
(1014,1619,o),
(1110,1619,cs)
);
}
);
width = 1240;
},
{
layerId = "5F491846-7617-4B03-8CE4-FAFF8D3DA710";
shapes = (
{
closed = 1;
nodes = (
(1260,0,l),
(1400,385,l),
(1303,385,l),
(1123,70,l),
(1203,104,l),
(307,104,l),
(354,79,l),
(479,721,l),
(426,701,l),
(1023,701,l),
(965,732,l),
(967,500,l),
(1044,500,l),
(1142,1001,l),
(1065,1001,l),
(972,769,l),
(1031,792,l),
(444,792,l),
(490,777,l),
(610,1395,l),
(572,1356,l),
(1407,1356,l),
(1351,1400,l),
(1399,1085,l),
(1496,1085,l),
(1504,1460,l),
(300,1460,l),
(285,1383,l),
(494,1316,l),
(481,1370,l),
(232,90,l),
(266,144,l),
(31,77,l),
(16,0,l)
);
},
{
closed = 1;
nodes = (
(736,1663,o),
(787,1699,o),
(799,1761,cs),
(811,1823,o),
(774,1859,o),
(712,1859,cs),
(650,1859,o),
(599,1823,o),
(587,1761,cs),
(575,1699,o),
(612,1663,o),
(674,1663,cs)
);
},
{
closed = 1;
nodes = (
(1348,1663,o),
(1399,1699,o),
(1411,1761,cs),
(1423,1823,o),
(1386,1859,o),
(1324,1859,cs),
(1262,1859,o),
(1211,1823,o),
(1199,1761,cs),
(1187,1699,o),
(1224,1663,o),
(1286,1663,cs)
);
}
);
width = 1555;
},
{
layerId = "6B25F7AD-67F3-407A-A333-8CA62504B4E5";
shapes = (
{
closed = 1;
nodes = (
(1282,0,l),
(1420,472,l),
(1238,472,l),
(1075,157,l),
(1137,203,l),
(397,203,l),
(450,132,l),
(563,715,l),
(478,650,l),
(882,650,l),
(832,695,l),
(893,426,l),
(1003,426,l),
(1126,1061,l),
(1016,1061,l),
(851,792,l),
(922,840,l),
(515,840,l),
(577,789,l),
(675,1291,l),
(637,1258,l),
(1316,1258,l),
(1269,1301,l),
(1311,986,l),
(1493,986,l),
(1539,1460,l),
(256,1460,l),
(227,1311,l),
(388,1245,l),
(355,1312,l),
(120,103,l),
(218,227,l),
(1,149,l),
(-28,0,l)
);
},
{
closed = 1;
nodes = (
(727,1645,o),
(804,1705,o),
(822,1798,cs),
(840,1890,o),
(786,1948,o),
(690,1948,cs),
(593,1948,o),
(517,1890,o),
(499,1798,cs),
(481,1705,o),
(534,1645,o),
(631,1645,cs)
);
},
{
closed = 1;
nodes = (
(1400,1645,o),
(1477,1705,o),
(1495,1798,cs),
(1513,1890,o),
(1459,1948,o),
(1363,1948,cs),
(1266,1948,o),
(1190,1890,o),
(1172,1798,cs),
(1154,1705,o),
(1207,1645,o),
(1304,1645,cs)
);
}
);
width = 1555;
},
{
layerId = "2935642B-2075-4830-97B8-D7DDAAAB1EBE";
shapes = (
{
closed = 1;
nodes = (
(988,0,l),
(1128,385,l),
(1031,385,l),
(851,70,l),
(931,104,l),
(230,104,l),
(277,79,l),
(402,721,l),
(349,701,l),
(794,701,l),
(736,732,l),
(738,500,l),
(815,500,l),
(913,1001,l),
(836,1001,l),
(743,769,l),
(802,792,l),
(367,792,l),
(413,777,l),
(533,1395,l),
(495,1356,l),
(1135,1356,l),
(1079,1400,l),
(1127,1085,l),
(1224,1085,l),
(1232,1460,l),
(263,1460,l),
(248,1383,l),
(417,1316,l),
(404,1370,l),
(155,90,l),
(189,144,l),
(-6,77,l),
(-21,0,l)
);
},
{
closed = 1;
nodes = (
(661,1663,o),
(711,1699,o),
(723,1761,cs),
(735,1823,o),
(699,1859,o),
(638,1859,cs),
(577,1859,o),
(527,1823,o),
(515,1761,cs),
(503,1699,o),
(539,1663,o),
(600,1663,cs)
);
},
{
closed = 1;
nodes = (
(1154,1663,o),
(1204,1699,o),
(1216,1761,cs),
(1228,1823,o),
(1192,1859,o),
(1131,1859,cs),
(1070,1859,o),
(1020,1823,o),
(1008,1761,cs),
(996,1699,o),
(1032,1663,o),
(1093,1663,cs)
);
}
);
width = 1240;
}
);
unicode = 203;
},
{
glyphname = Edotaccent;
lastChange = "2024-05-08 18:01:49 +0000";
layers = (
{
layerId = "C612A24F-6EED-4FC1-9F18-2B0E93FAFD61";
shapes = (
{
closed = 1;
nodes = (
(1121,0,l),
(1167,472,l),
(985,472,l),
(883,157,l),
(937,203,l),
(392,203,l),
(458,132,l),
(458,715,l),
(386,650,l),
(638,650,l),
(579,695,l),
(692,426,l),
(802,426,l),
(802,1061,l),
(692,1061,l),
(579,792,l),
(641,840,l),
(386,840,l),
(458,789,l),
(458,1291,l),
(426,1258,l),
(910,1258,l),
(855,1301,l),
(958,986,l),
(1140,986,l),
(1094,1460,l),
(46,1460,l),
(46,1311,l),
(180,1245,l),
(134,1312,l),
(134,103,l),
(208,227,l),
(46,149,l),
(46,0,l)
);
},
{
closed = 1;
nodes = (
(714.4,1618.8,o),
(780.8,1678.8,o),
(780.8,1771.6,cs),
(780.8,1864.4,o),
(714.4,1922,o),
(616,1922,cs),
(517.6,1922,o),
(451.2,1864.4,o),
(451.2,1771.6,cs),
(451.2,1678.8,o),
(517.6,1618.8,o),
(616,1618.8,cs)
);
}
);
width = 1240;
},
{
layerId = "FC265EF4-F21D-45B5-9DC3-EEC98E8078A4";
shapes = (
{
closed = 1;
nodes = (
(1357,0,l),
(1422,385,l),
(1325,385,l),
(1206,70,l),
(1280,104,l),
(384,104,l),
(436,79,l),
(436,721,l),
(387,701,l),
(984,701,l),
(920,732,l),
(967,500,l),
(1044,500,l),
(1044,1001,l),
(967,1001,l),
(920,769,l),
(974,792,l),
(387,792,l),
(436,777,l),
(436,1395,l),
(405,1356,l),
(1240,1356,l),
(1166,1400,l),
(1285,1085,l),
(1382,1085,l),
(1317,1460,l),
(113,1460,l),
(113,1383,l),
(335,1316,l),
(312,1370,l),
(312,90,l),
(335,144,l),
(113,77,l),
(113,0,l)
);
},
{
closed = 1;
nodes = (
(816,1663,o),
(860,1699,o),
(860,1761,cs),
(860,1823,o),
(816,1859,o),
(754,1859,cs),
(692,1859,o),
(648,1823,o),
(648,1761,cs),
(648,1699,o),
(692,1663,o),
(754,1663,cs)
);
}
);
width = 1555;
},
{
layerId = "E1CD64A1-112A-4516-A7DF-4EBEDF7D0C85";
shapes = (
{
closed = 1;
nodes = (
(1387,0,l),
(1433,472,l),
(1251,472,l),
(1149,157,l),
(1203,203,l),
(463,203,l),
(529,132,l),
(529,715,l),
(457,650,l),
(861,650,l),
(802,695,l),
(915,426,l),
(1025,426,l),
(1025,1061,l),
(915,1061,l),
(802,792,l),
(864,840,l),
(457,840,l),
(529,789,l),
(529,1291,l),
(497,1258,l),
(1176,1258,l),
(1121,1301,l),
(1224,986,l),
(1406,986,l),
(1360,1460,l),
(77,1460,l),
(77,1311,l),
(251,1245,l),
(205,1312,l),
(205,103,l),
(279,227,l),
(77,149,l),
(77,0,l)
);
},
{
closed = 1;
nodes = (
(846,1645,o),
(912,1705,o),
(912,1798,cs),
(912,1890,o),
(846,1948,o),
(747,1948,cs),
(649,1948,o),
(583,1890,o),
(583,1798,cs),
(583,1705,o),
(649,1645,o),
(747,1645,cs)
);
}
);
width = 1555;
},
{
layerId = "BEB83068-430F-4F93-8275-D4D4FE2C02C8";
shapes = (
{
closed = 1;
nodes = (
(1085,0,l),
(1150,385,l),
(1053,385,l),
(934,70,l),
(1008,104,l),
(307,104,l),
(359,79,l),
(359,721,l),
(310,701,l),
(755,701,l),
(691,732,l),
(738,500,l),
(815,500,l),
(815,1001,l),
(738,1001,l),
(691,769,l),
(745,792,l),
(310,792,l),
(359,777,l),
(359,1395,l),
(328,1356,l),
(968,1356,l),
(894,1400,l),
(1013,1085,l),
(1110,1085,l),
(1045,1460,l),
(76,1460,l),
(76,1383,l),
(258,1316,l),
(235,1370,l),
(235,90,l),
(258,144,l),
(76,77,l),
(76,0,l)
);
},
{
closed = 1;
nodes = (
(682,1663,o),
(726,1699,o),
(726,1761,cs),
(726,1823,o),
(682,1859,o),
(620,1859,cs),
(558,1859,o),
(514,1823,o),
(514,1761,cs),
(514,1699,o),
(558,1663,o),
(620,1663,cs)
);
}
);
width = 1240;
},
{
layerId = "3A752AAD-7068-4A08-8CFD-4D7C5CAE8856";
shapes = (
{
closed = 1;
nodes = (
(1016,0,l),
(1154,472,l),
(972,472,l),
(809,157,l),
(871,203,l),
(326,203,l),
(379,132,l),
(492,715,l),
(407,650,l),
(659,650,l),
(609,695,l),
(670,426,l),
(780,426,l),
(903,1061,l),
(793,1061,l),
(628,792,l),
(699,840,l),
(444,840,l),
(506,789,l),
(604,1291,l),
(566,1258,l),
(1050,1258,l),
(1003,1301,l),
(1045,986,l),
(1227,986,l),
(1273,1460,l),
(225,1460,l),
(196,1311,l),
(317,1245,l),
(284,1312,l),
(49,103,l),
(147,227,l),
(-30,149,l),
(-59,0,l)
);
},
{
closed = 1;
nodes = (
(924,1619,o),
(1002,1679,o),
(1020,1772,cs),
(1038,1864,o),
(983,1922,o),
(885,1922,cs),
(786,1922,o),
(709,1864,o),
(691,1772,cs),
(673,1679,o),
(727,1619,o),
(826,1619,cs)
);
}
);
width = 1240;
},
{
layerId = "5F491846-7617-4B03-8CE4-FAFF8D3DA710";
shapes = (
{
closed = 1;
nodes = (
(1260,0,l),
(1400,385,l),
(1303,385,l),
(1123,70,l),
(1203,104,l),
(307,104,l),
(354,79,l),
(479,721,l),
(426,701,l),
(1023,701,l),
(965,732,l),
(967,500,l),
(1044,500,l),
(1142,1001,l),
(1065,1001,l),
(972,769,l),
(1031,792,l),
(444,792,l),
(490,777,l),
(610,1395,l),
(572,1356,l),
(1407,1356,l),
(1351,1400,l),
(1399,1085,l),
(1496,1085,l),
(1504,1460,l),
(300,1460,l),
(285,1383,l),
(494,1316,l),
(481,1370,l),
(232,90,l),
(266,144,l),
(31,77,l),
(16,0,l)
);
},
{
closed = 1;
nodes = (
(1042,1663,o),
(1093,1699,o),
(1105,1761,cs),
(1117,1823,o),
(1080,1859,o),
(1018,1859,cs),
(956,1859,o),
(905,1823,o),
(893,1761,cs),
(881,1699,o),
(918,1663,o),
(980,1663,cs)
);
}
);
width = 1555;
},
{
layerId = "6B25F7AD-67F3-407A-A333-8CA62504B4E5";
shapes = (
{
closed = 1;
nodes = (
(1282,0,l),
(1420,472,l),
(1238,472,l),
(1075,157,l),
(1137,203,l),
(397,203,l),
(450,132,l),
(563,715,l),
(478,650,l),
(882,650,l),
(832,695,l),
(893,426,l),
(1003,426,l),
(1126,1061,l),
(1016,1061,l),
(851,792,l),
(922,840,l),
(515,840,l),
(577,789,l),
(675,1291,l),
(637,1258,l),
(1316,1258,l),
(1269,1301,l),
(1311,986,l),
(1493,986,l),
(1539,1460,l),
(256,1460,l),
(227,1311,l),
(388,1245,l),
(355,1312,l),
(120,103,l),
(218,227,l),
(1,149,l),
(-28,0,l)
);
},
{
closed = 1;
nodes = (
(1061,1645,o),
(1139,1705,o),
(1157,1798,cs),
(1175,1890,o),
(1119,1948,o),
(1021,1948,cs),
(923,1948,o),
(845,1890,o),
(827,1798,cs),
(809,1705,o),
(864,1645,o),
(962,1645,cs)
);
}
);
width = 1555;
},
{
layerId = "2935642B-2075-4830-97B8-D7DDAAAB1EBE";
shapes = (
{
closed = 1;
nodes = (
(988,0,l),
(1128,385,l),
(1031,385,l),
(851,70,l),
(931,104,l),
(230,104,l),
(277,79,l),
(402,721,l),
(349,701,l),
(794,701,l),
(736,732,l),
(738,500,l),
(815,500,l),
(913,1001,l),
(836,1001,l),
(743,769,l),
(802,792,l),
(367,792,l),
(413,777,l),
(533,1395,l),
(495,1356,l),
(1135,1356,l),
(1079,1400,l),
(1127,1085,l),
(1224,1085,l),
(1232,1460,l),
(263,1460,l),
(248,1383,l),
(417,1316,l),
(404,1370,l),
(155,90,l),
(189,144,l),
(-6,77,l),
(-21,0,l)
);
},
{
closed = 1;
nodes = (
(908,1663,o),
(959,1699,o),
(971,1761,cs),
(983,1823,o),
(946,1859,o),
(884,1859,cs),
(822,1859,o),
(771,1823,o),
(759,1761,cs),
(747,1699,o),
(784,1663,o),
(846,1663,cs)
);
}
);
width = 1240;
}
);
unicode = 278;
},
{
glyphname = Edotbelow;
lastChange = "2024-05-08 18:01:49 +0000";
layers = (
{
layerId = "C612A24F-6EED-4FC1-9F18-2B0E93FAFD61";
shapes = (
{
closed = 1;
nodes = (
(1121,0,l),
(1167,472,l),
(985,472,l),
(883,157,l),
(937,203,l),
(392,203,l),
(458,132,l),
(458,715,l),
(386,650,l),
(638,650,l),
(579,695,l),
(692,426,l),
(802,426,l),
(802,1061,l),
(692,1061,l),
(579,792,l),
(641,840,l),
(386,840,l),
(458,789,l),
(458,1291,l),
(426,1258,l),
(910,1258,l),
(855,1301,l),
(958,986,l),
(1140,986,l),
(1094,1460,l),
(46,1460,l),
(46,1311,l),
(180,1245,l),
(134,1312,l),
(134,103,l),
(208,227,l),
(46,149,l),
(46,0,l)
);
},
{
closed = 1;
nodes = (
(743,-528,o),
(826,-453,o),
(826,-337,cs),
(826,-221,o),
(743,-149,o),
(620,-149,cs),
(497,-149,o),
(414,-221,o),
(414,-337,cs),
(414,-453,o),
(497,-528,o),
(620,-528,cs)
);
}
);
width = 1240;
},
{
layerId = "FC265EF4-F21D-45B5-9DC3-EEC98E8078A4";
shapes = (
{
closed = 1;
nodes = (
(1357,0,l),
(1422,385,l),
(1325,385,l),
(1206,70,l),
(1280,104,l),
(384,104,l),
(436,79,l),
(436,721,l),
(387,701,l),
(984,701,l),
(920,732,l),
(967,500,l),
(1044,500,l),
(1044,1001,l),
(967,1001,l),
(920,769,l),
(974,792,l),
(387,792,l),
(436,777,l),
(436,1395,l),
(405,1356,l),
(1240,1356,l),
(1166,1400,l),
(1285,1085,l),
(1382,1085,l),
(1317,1460,l),
(113,1460,l),
(113,1383,l),
(335,1316,l),
(312,1370,l),
(312,90,l),
(335,144,l),
(113,77,l),
(113,0,l)
);
},
{
closed = 1;
nodes = (
(816,-509,o),
(860,-473,o),
(860,-411,cs),
(860,-349,o),
(816,-313,o),
(754,-313,cs),
(692,-313,o),
(648,-349,o),
(648,-411,cs),
(648,-473,o),
(692,-509,o),
(754,-509,cs)
);
}
);
width = 1555;
},
{
layerId = "E1CD64A1-112A-4516-A7DF-4EBEDF7D0C85";
shapes = (
{
closed = 1;
nodes = (
(1387,0,l),
(1433,472,l),
(1251,472,l),
(1149,157,l),
(1203,203,l),
(463,203,l),
(529,132,l),
(529,715,l),
(457,650,l),
(861,650,l),
(802,695,l),
(915,426,l),
(1025,426,l),
(1025,1061,l),
(915,1061,l),
(802,792,l),
(864,840,l),
(457,840,l),
(529,789,l),
(529,1291,l),
(497,1258,l),
(1176,1258,l),
(1121,1301,l),
(1224,986,l),
(1406,986,l),
(1360,1460,l),
(77,1460,l),
(77,1311,l),
(251,1245,l),
(205,1312,l),
(205,103,l),
(279,227,l),
(77,149,l),
(77,0,l)
);
},
{
closed = 1;
nodes = (
(871,-508,o),
(954,-433,o),
(954,-317,cs),
(954,-201,o),
(871,-129,o),
(748,-129,cs),
(625,-129,o),
(542,-201,o),
(542,-317,cs),
(542,-433,o),
(625,-508,o),
(748,-508,cs)
);
}
);
width = 1555;
},
{
layerId = "BEB83068-430F-4F93-8275-D4D4FE2C02C8";
shapes = (
{
closed = 1;
nodes = (
(1085,0,l),
(1150,385,l),
(1053,385,l),
(934,70,l),
(1008,104,l),
(307,104,l),
(359,79,l),
(359,721,l),
(310,701,l),
(755,701,l),
(691,732,l),
(738,500,l),
(815,500,l),
(815,1001,l),
(738,1001,l),
(691,769,l),
(745,792,l),
(310,792,l),
(359,777,l),
(359,1395,l),
(328,1356,l),
(968,1356,l),
(894,1400,l),
(1013,1085,l),
(1110,1085,l),
(1045,1460,l),
(76,1460,l),
(76,1383,l),
(258,1316,l),
(235,1370,l),
(235,90,l),
(258,144,l),
(76,77,l),
(76,0,l)
);
},
{
closed = 1;
nodes = (
(682,-509,o),
(726,-473,o),
(726,-411,cs),
(726,-349,o),
(682,-313,o),
(620,-313,cs),
(558,-313,o),
(514,-349,o),
(514,-411,cs),
(514,-473,o),
(558,-509,o),
(620,-509,cs)
);
}
);
width = 1240;
},
{
layerId = "3A752AAD-7068-4A08-8CFD-4D7C5CAE8856";
shapes = (
{
closed = 1;
nodes = (
(1016,0,l),
(1154,472,l),
(972,472,l),
(809,157,l),
(871,203,l),
(326,203,l),
(379,132,l),
(492,715,l),
(407,650,l),
(659,650,l),
(609,695,l),
(670,426,l),
(780,426,l),
(903,1061,l),
(793,1061,l),
(628,792,l),
(699,840,l),
(444,840,l),
(506,789,l),
(604,1291,l),
(566,1258,l),
(1050,1258,l),
(1003,1301,l),
(1045,986,l),
(1227,986,l),
(1273,1460,l),
(225,1460,l),
(196,1311,l),
(317,1245,l),
(284,1312,l),
(49,103,l),
(147,227,l),
(-30,149,l),
(-59,0,l)
);
},
{
closed = 1;
nodes = (
(535,-528,o),
(633,-453,o),
(655,-337,cs),
(678,-221,o),
(609,-149,o),
(486,-149,cs),
(363,-149,o),
(266,-221,o),
(243,-337,cs),
(221,-453,o),
(289,-528,o),
(412,-528,cs)
);
}
);
width = 1240;
},
{
layerId = "5F491846-7617-4B03-8CE4-FAFF8D3DA710";
shapes = (
{
closed = 1;
nodes = (
(1260,0,l),
(1400,385,l),
(1303,385,l),
(1123,70,l),
(1203,104,l),
(307,104,l),
(354,79,l),
(479,721,l),
(426,701,l),
(1023,701,l),
(965,732,l),
(967,500,l),
(1044,500,l),
(1142,1001,l),
(1065,1001,l),
(972,769,l),
(1031,792,l),
(444,792,l),
(490,777,l),
(610,1395,l),
(572,1356,l),
(1407,1356,l),
(1351,1400,l),
(1399,1085,l),
(1496,1085,l),
(1504,1460,l),
(300,1460,l),
(285,1383,l),
(494,1316,l),
(481,1370,l),
(232,90,l),
(266,144,l),
(31,77,l),
(16,0,l)
);
},
{
closed = 1;
nodes = (
(620,-509,o),
(671,-473,o),
(683,-411,cs),
(695,-349,o),
(658,-313,o),
(596,-313,cs),
(534,-313,o),
(483,-349,o),
(471,-411,cs),
(459,-473,o),
(496,-509,o),
(558,-509,cs)
);
}
);
width = 1555;
},
{
layerId = "6B25F7AD-67F3-407A-A333-8CA62504B4E5";
shapes = (
{
closed = 1;
nodes = (
(1282,0,l),
(1420,472,l),
(1238,472,l),
(1075,157,l),
(1137,203,l),
(397,203,l),
(450,132,l),
(563,715,l),
(478,650,l),
(882,650,l),
(832,695,l),
(893,426,l),
(1003,426,l),
(1126,1061,l),
(1016,1061,l),
(851,792,l),
(922,840,l),
(515,840,l),
(577,789,l),
(675,1291,l),
(637,1258,l),
(1316,1258,l),
(1269,1301,l),
(1311,986,l),
(1493,986,l),
(1539,1460,l),
(256,1460,l),
(227,1311,l),
(388,1245,l),
(355,1312,l),
(120,103,l),
(218,227,l),
(1,149,l),
(-28,0,l)
);
},
{
closed = 1;
nodes = (
(667,-508,o),
(765,-433,o),
(787,-317,cs),
(810,-201,o),
(741,-129,o),
(618,-129,cs),
(495,-129,o),
(398,-201,o),
(375,-317,cs),
(353,-433,o),
(421,-508,o),
(544,-508,cs)
);
}
);
width = 1555;
},
{
layerId = "2935642B-2075-4830-97B8-D7DDAAAB1EBE";
shapes = (
{
closed = 1;
nodes = (
(988,0,l),
(1128,385,l),
(1031,385,l),
(851,70,l),
(931,104,l),
(230,104,l),
(277,79,l),
(402,721,l),
(349,701,l),
(794,701,l),
(736,732,l),
(738,500,l),
(815,500,l),
(913,1001,l),
(836,1001,l),
(743,769,l),
(802,792,l),
(367,792,l),
(413,777,l),
(533,1395,l),
(495,1356,l),
(1135,1356,l),
(1079,1400,l),
(1127,1085,l),
(1224,1085,l),
(1232,1460,l),
(263,1460,l),
(248,1383,l),
(417,1316,l),
(404,1370,l),
(155,90,l),
(189,144,l),
(-6,77,l),
(-21,0,l)
);
},
{
closed = 1;
nodes = (
(486,-509,o),
(537,-473,o),
(549,-411,cs),
(561,-349,o),
(524,-313,o),
(462,-313,cs),
(400,-313,o),
(349,-349,o),
(337,-411,cs),
(325,-473,o),
(362,-509,o),
(424,-509,cs)
);
}
);
width = 1240;
}
);
unicode = 7864;
},
{
glyphname = Egrave;
lastChange = "2024-05-08 18:01:49 +0000";
layers = (
{
layerId = "C612A24F-6EED-4FC1-9F18-2B0E93FAFD61";
shapes = (
{
closed = 1;
nodes = (
(1121,0,l),
(1167,472,l),
(985,472,l),
(883,157,l),
(937,203,l),
(392,203,l),
(458,132,l),
(458,715,l),
(386,650,l),
(638,650,l),
(579,695,l),
(692,426,l),
(802,426,l),
(802,1061,l),
(692,1061,l),
(579,792,l),
(641,840,l),
(386,840,l),
(458,789,l),
(458,1291,l),
(426,1258,l),
(910,1258,l),
(855,1301,l),
(958,986,l),
(1140,986,l),
(1094,1460,l),
(46,1460,l),
(46,1311,l),
(180,1245,l),
(134,1312,l),
(134,103,l),
(208,227,l),
(46,149,l),
(46,0,l)
);
},
{
closed = 1;
nodes = (
(735,1619.05,l),
(572,1877.386,l),
(227,1877.386,l),
(496,1619.05,l)
);
}
);
width = 1240;
},
{
layerId = "FC265EF4-F21D-45B5-9DC3-EEC98E8078A4";
shapes = (
{
closed = 1;
nodes = (
(1357,0,l),
(1422,385,l),
(1325,385,l),
(1206,70,l),
(1280,104,l),
(384,104,l),
(436,79,l),
(436,721,l),
(387,701,l),
(984,701,l),
(920,732,l),
(967,500,l),
(1044,500,l),
(1044,1001,l),
(967,1001,l),
(920,769,l),
(974,792,l),
(387,792,l),
(436,777,l),
(436,1395,l),
(405,1356,l),
(1240,1356,l),
(1166,1400,l),
(1285,1085,l),
(1382,1085,l),
(1317,1460,l),
(113,1460,l),
(113,1383,l),
(335,1316,l),
(312,1370,l),
(312,90,l),
(335,144,l),
(113,77,l),
(113,0,l)
);
},
{
closed = 1;
nodes = (
(813,1652,l),
(561,1884,l),
(388,1884,l),
(714,1652,l)
);
}
);
width = 1555;
},
{
layerId = "E1CD64A1-112A-4516-A7DF-4EBEDF7D0C85";
shapes = (
{
closed = 1;
nodes = (
(1387,0,l),
(1433,472,l),
(1251,472,l),
(1149,157,l),
(1203,203,l),
(463,203,l),
(529,132,l),
(529,715,l),
(457,650,l),
(861,650,l),
(802,695,l),
(915,426,l),
(1025,426,l),
(1025,1061,l),
(915,1061,l),
(802,792,l),
(864,840,l),
(457,840,l),
(529,789,l),
(529,1291,l),
(497,1258,l),
(1176,1258,l),
(1121,1301,l),
(1224,986,l),
(1406,986,l),
(1360,1460,l),
(77,1460,l),
(77,1311,l),
(251,1245,l),
(205,1312,l),
(205,103,l),
(279,227,l),
(77,149,l),
(77,0,l)
);
},
{
closed = 1;
nodes = (
(879,1619,l),
(682,1918,l),
(297,1918,l),
(598,1619,l)
);
}
);
width = 1555;
},
{
layerId = "BEB83068-430F-4F93-8275-D4D4FE2C02C8";
shapes = (
{
closed = 1;
nodes = (
(1085,0,l),
(1150,385,l),
(1053,385,l),
(934,70,l),
(1008,104,l),
(307,104,l),
(359,79,l),
(359,721,l),
(310,701,l),
(755,701,l),
(691,732,l),
(738,500,l),
(815,500,l),
(815,1001,l),
(738,1001,l),
(691,769,l),
(745,792,l),
(310,792,l),
(359,777,l),
(359,1395,l),
(328,1356,l),
(968,1356,l),
(894,1400,l),
(1013,1085,l),
(1110,1085,l),
(1045,1460,l),
(76,1460,l),
(76,1383,l),
(258,1316,l),
(235,1370,l),
(235,90,l),
(258,144,l),
(76,77,l),
(76,0,l)
);
},
{
closed = 1;
nodes = (
(674,1650.191,l),
(472,1883.236,l),
(312,1883.236,l),
(585,1650.191,l)
);
}
);
width = 1240;
},
{
layerId = "3A752AAD-7068-4A08-8CFD-4D7C5CAE8856";
shapes = (
{
closed = 1;
nodes = (
(1016,0,l),
(1154,472,l),
(972,472,l),
(809,157,l),
(871,203,l),
(326,203,l),
(379,132,l),
(492,715,l),
(407,650,l),
(659,650,l),
(609,695,l),
(670,426,l),
(780,426,l),
(903,1061,l),
(793,1061,l),
(628,792,l),
(699,840,l),
(444,840,l),
(506,789,l),
(604,1291,l),
(566,1258,l),
(1050,1258,l),
(1003,1301,l),
(1045,986,l),
(1227,986,l),
(1273,1460,l),
(225,1460,l),
(196,1311,l),
(317,1245,l),
(284,1312,l),
(49,103,l),
(147,227,l),
(-30,149,l),
(-59,0,l)
);
},
{
closed = 1;
nodes = (
(945,1619,l),
(832,1877,l),
(487,1877,l),
(706,1619,l)
);
}
);
width = 1240;
},
{
layerId = "5F491846-7617-4B03-8CE4-FAFF8D3DA710";
shapes = (
{
closed = 1;
nodes = (
(1260,0,l),
(1400,385,l),
(1303,385,l),
(1123,70,l),
(1203,104,l),
(307,104,l),
(354,79,l),
(479,721,l),
(426,701,l),
(1023,701,l),
(965,732,l),
(967,500,l),
(1044,500,l),
(1142,1001,l),
(1065,1001,l),
(972,769,l),
(1031,792,l),
(444,792,l),
(490,777,l),
(610,1395,l),
(572,1356,l),
(1407,1356,l),
(1351,1400,l),
(1399,1085,l),
(1496,1085,l),
(1504,1460,l),
(300,1460,l),
(285,1383,l),
(494,1316,l),
(481,1370,l),
(232,90,l),
(266,144,l),
(31,77,l),
(16,0,l)
);
},
{
closed = 1;
nodes = (
(1037,1652,l),
(830,1884,l),
(657,1884,l),
(938,1652,l)
);
}
);
width = 1555;
},
{
layerId = "6B25F7AD-67F3-407A-A333-8CA62504B4E5";
shapes = (
{
closed = 1;
nodes = (
(1282,0,l),
(1420,472,l),
(1238,472,l),
(1075,157,l),
(1137,203,l),
(397,203,l),
(450,132,l),
(563,715,l),
(478,650,l),
(882,650,l),
(832,695,l),
(893,426,l),
(1003,426,l),
(1126,1061,l),
(1016,1061,l),
(851,792,l),
(922,840,l),
(515,840,l),
(577,789,l),
(675,1291,l),
(637,1258,l),
(1316,1258,l),
(1269,1301,l),
(1311,986,l),
(1493,986,l),
(1539,1460,l),
(256,1460,l),
(227,1311,l),
(388,1245,l),
(355,1312,l),
(120,103,l),
(218,227,l),
(1,149,l),
(-28,0,l)
);
},
{
closed = 1;
nodes = (
(1089,1619,l),
(950,1918,l),
(565,1918,l),
(808,1619,l)
);
}
);
width = 1555;
},
{
layerId = "2935642B-2075-4830-97B8-D7DDAAAB1EBE";
shapes = (
{
closed = 1;
nodes = (
(988,0,l),
(1128,385,l),
(1031,385,l),
(851,70,l),
(931,104,l),
(230,104,l),
(277,79,l),
(402,721,l),
(349,701,l),
(794,701,l),
(736,732,l),
(738,500,l),
(815,500,l),
(913,1001,l),
(836,1001,l),
(743,769,l),
(802,792,l),
(367,792,l),
(413,777,l),
(533,1395,l),
(495,1356,l),
(1135,1356,l),
(1079,1400,l),
(1127,1085,l),
(1224,1085,l),
(1232,1460,l),
(263,1460,l),
(248,1383,l),
(417,1316,l),
(404,1370,l),
(155,90,l),
(189,144,l),
(-6,77,l),
(-21,0,l)
);
},
{
closed = 1;
nodes = (
(898,1650,l),
(741,1883,l),
(581,1883,l),
(809,1650,l)
);
}
);
width = 1240;
}
);
unicode = 200;
},
{
glyphname = Emacron;
lastChange = "2024-05-08 18:01:49 +0000";
layers = (
{
layerId = "C612A24F-6EED-4FC1-9F18-2B0E93FAFD61";
shapes = (
{
closed = 1;
nodes = (
(1121,0,l),
(1167,472,l),
(985,472,l),
(883,157,l),
(937,203,l),
(392,203,l),
(458,132,l),
(458,715,l),
(386,650,l),
(638,650,l),
(579,695,l),
(692,426,l),
(802,426,l),
(802,1061,l),
(692,1061,l),
(579,792,l),
(641,840,l),
(386,840,l),
(458,789,l),
(458,1291,l),
(426,1258,l),
(910,1258,l),
(855,1301,l),
(958,986,l),
(1140,986,l),
(1094,1460,l),
(46,1460,l),
(46,1311,l),
(180,1245,l),
(134,1312,l),
(134,103,l),
(208,227,l),
(46,149,l),
(46,0,l)
);
},
{
closed = 1;
nodes = (
(969,1691,l),
(969,1884,l),
(271,1884,l),
(271,1691,l)
);
}
);
width = 1240;
},
{
layerId = "FC265EF4-F21D-45B5-9DC3-EEC98E8078A4";
shapes = (
{
closed = 1;
nodes = (
(1357,0,l),
(1422,385,l),
(1325,385,l),
(1206,70,l),
(1280,104,l),
(384,104,l),
(436,79,l),
(436,721,l),
(387,701,l),
(984,701,l),
(920,732,l),
(967,500,l),
(1044,500,l),
(1044,1001,l),
(967,1001,l),
(920,769,l),
(974,792,l),
(387,792,l),
(436,777,l),
(436,1395,l),
(405,1356,l),
(1240,1356,l),
(1166,1400,l),
(1285,1085,l),
(1382,1085,l),
(1317,1460,l),
(113,1460,l),
(113,1383,l),
(335,1316,l),
(312,1370,l),
(312,90,l),
(335,144,l),
(113,77,l),
(113,0,l)
);
},
{
closed = 1;
nodes = (
(1168,1731,l),
(1168,1831,l),
(339,1831,l),
(339,1731,l)
);
}
);
width = 1555;
},
{
layerId = "E1CD64A1-112A-4516-A7DF-4EBEDF7D0C85";
shapes = (
{
closed = 1;
nodes = (
(1387,0,l),
(1433,472,l),
(1251,472,l),
(1149,157,l),
(1203,203,l),
(463,203,l),
(529,132,l),
(529,715,l),
(457,650,l),
(861,650,l),
(802,695,l),
(915,426,l),
(1025,426,l),
(1025,1061,l),
(915,1061,l),
(802,792,l),
(864,840,l),
(457,840,l),
(529,789,l),
(529,1291,l),
(497,1258,l),
(1176,1258,l),
(1121,1301,l),
(1224,986,l),
(1406,986,l),
(1360,1460,l),
(77,1460,l),
(77,1311,l),
(251,1245,l),
(205,1312,l),
(205,103,l),
(279,227,l),
(77,149,l),
(77,0,l)
);
},
{
closed = 1;
nodes = (
(1178,1691,l),
(1178,1884,l),
(317,1884,l),
(317,1691,l)
);
}
);
width = 1555;
},
{
layerId = "BEB83068-430F-4F93-8275-D4D4FE2C02C8";
shapes = (
{
closed = 1;
nodes = (
(1085,0,l),
(1150,385,l),
(1053,385,l),
(934,70,l),
(1008,104,l),
(307,104,l),
(359,79,l),
(359,721,l),
(310,701,l),
(755,701,l),
(691,732,l),
(738,500,l),
(815,500,l),
(815,1001,l),
(738,1001,l),
(691,769,l),
(745,792,l),
(310,792,l),
(359,777,l),
(359,1395,l),
(328,1356,l),
(968,1356,l),
(894,1400,l),
(1013,1085,l),
(1110,1085,l),
(1045,1460,l),
(76,1460,l),
(76,1383,l),
(258,1316,l),
(235,1370,l),
(235,90,l),
(258,144,l),
(76,77,l),
(76,0,l)
);
},
{
closed = 1;
nodes = (
(927,1731,l),
(927,1831,l),
(313,1831,l),
(313,1731,l)
);
}
);
width = 1240;
},
{
layerId = "3A752AAD-7068-4A08-8CFD-4D7C5CAE8856";
shapes = (
{
closed = 1;
nodes = (
(1016,0,l),
(1154,472,l),
(972,472,l),
(809,157,l),
(871,203,l),
(326,203,l),
(379,132,l),
(492,715,l),
(407,650,l),
(659,650,l),
(609,695,l),
(670,426,l),
(780,426,l),
(903,1061,l),
(793,1061,l),
(628,792,l),
(699,840,l),
(444,840,l),
(506,789,l),
(604,1291,l),
(566,1258,l),
(1050,1258,l),
(1003,1301,l),
(1045,986,l),
(1227,986,l),
(1273,1460,l),
(225,1460,l),
(196,1311,l),
(317,1245,l),
(284,1312,l),
(49,103,l),
(147,227,l),
(-30,149,l),
(-59,0,l)
);
},
{
closed = 1;
nodes = (
(1193,1691,l),
(1230,1884,l),
(532,1884,l),
(495,1691,l)
);
}
);
width = 1240;
},
{
layerId = "5F491846-7617-4B03-8CE4-FAFF8D3DA710";
shapes = (
{
closed = 1;
nodes = (
(1260,0,l),
(1400,385,l),
(1303,385,l),
(1123,70,l),
(1203,104,l),
(307,104,l),
(354,79,l),
(479,721,l),
(426,701,l),
(1023,701,l),
(965,732,l),
(967,500,l),
(1044,500,l),
(1142,1001,l),
(1065,1001,l),
(972,769,l),
(1031,792,l),
(444,792,l),
(490,777,l),
(610,1395,l),
(572,1356,l),
(1407,1356,l),
(1351,1400,l),
(1399,1085,l),
(1496,1085,l),
(1504,1460,l),
(300,1460,l),
(285,1383,l),
(494,1316,l),
(481,1370,l),
(232,90,l),
(266,144,l),
(31,77,l),
(16,0,l)
);
},
{
closed = 1;
nodes = (
(1407,1731,l),
(1427,1831,l),
(598,1831,l),
(578,1731,l)
);
}
);
width = 1555;
},
{
layerId = "6B25F7AD-67F3-407A-A333-8CA62504B4E5";
shapes = (
{
closed = 1;
nodes = (
(1282,0,l),
(1420,472,l),
(1238,472,l),
(1075,157,l),
(1137,203,l),
(397,203,l),
(450,132,l),
(563,715,l),
(478,650,l),
(882,650,l),
(832,695,l),
(893,426,l),
(1003,426,l),
(1126,1061,l),
(1016,1061,l),
(851,792,l),
(922,840,l),
(515,840,l),
(577,789,l),
(675,1291,l),
(637,1258,l),
(1316,1258,l),
(1269,1301,l),
(1311,986,l),
(1493,986,l),
(1539,1460,l),
(256,1460,l),
(227,1311,l),
(388,1245,l),
(355,1312,l),
(120,103,l),
(218,227,l),
(1,149,l),
(-28,0,l)
);
},
{
closed = 1;
nodes = (
(1402,1691,l),
(1439,1884,l),
(578,1884,l),
(541,1691,l)
);
}
);
width = 1555;
},
{
layerId = "2935642B-2075-4830-97B8-D7DDAAAB1EBE";
shapes = (
{
closed = 1;
nodes = (
(988,0,l),
(1128,385,l),
(1031,385,l),
(851,70,l),
(931,104,l),
(230,104,l),
(277,79,l),
(402,721,l),
(349,701,l),
(794,701,l),
(736,732,l),
(738,500,l),
(815,500,l),
(913,1001,l),
(836,1001,l),
(743,769,l),
(802,792,l),
(367,792,l),
(413,777,l),
(533,1395,l),
(495,1356,l),
(1135,1356,l),
(1079,1400,l),
(1127,1085,l),
(1224,1085,l),
(1232,1460,l),
(263,1460,l),
(248,1383,l),
(417,1316,l),
(404,1370,l),
(155,90,l),
(189,144,l),
(-6,77,l),
(-21,0,l)
);
},
{
closed = 1;
nodes = (
(1166,1731,l),
(1186,1831,l),
(572,1831,l),
(552,1731,l)
);
}
);
width = 1240;
}
);
unicode = 274;
},
{
glyphname = Eogonek;
lastChange = "2024-05-08 18:01:49 +0000";
layers = (
{
layerId = "C612A24F-6EED-4FC1-9F18-2B0E93FAFD61";
shapes = (
{
closed = 1;
nodes = (
(1121,0,l),
(1167,472,l),
(985,472,l),
(883,157,l),
(937,203,l),
(392,203,l),
(458,132,l),
(458,715,l),
(386,650,l),
(638,650,l),
(579,695,l),
(692,426,l),
(802,426,l),
(802,1061,l),
(692,1061,l),
(579,792,l),
(641,840,l),
(386,840,l),
(458,789,l),
(458,1291,l),
(426,1258,l),
(910,1258,l),
(855,1301,l),
(958,986,l),
(1140,986,l),
(1094,1460,l),
(46,1460,l),
(46,1311,l),
(180,1245,l),
(134,1312,l),
(134,103,l),
(208,227,l),
(46,149,l),
(46,0,l)
);
},
{
closed = 1;
nodes = (
(1121,-443,l),
(1121,-310,l),
(1092,-310,ls),
(1033,-310,o),
(986,-267,o),
(986,-199,cs),
(986,-149,o),
(1011,-75,o),
(1121,0,c),
(1006,37,l),
(831,-31,o),
(710,-145,o),
(710,-262,cs),
(710,-345,o),
(771,-443,o),
(1011,-443,cs)
);
}
);
width = 1240;
},
{
layerId = "FC265EF4-F21D-45B5-9DC3-EEC98E8078A4";
shapes = (
{
closed = 1;
nodes = (
(1357,0,l),
(1422,385,l),
(1325,385,l),
(1206,70,l),
(1280,104,l),
(384,104,l),
(436,79,l),
(436,721,l),
(387,701,l),
(984,701,l),
(920,732,l),
(967,500,l),
(1044,500,l),
(1044,1001,l),
(967,1001,l),
(920,769,l),
(974,792,l),
(387,792,l),
(436,777,l),
(436,1395,l),
(405,1356,l),
(1240,1356,l),
(1166,1400,l),
(1285,1085,l),
(1382,1085,l),
(1317,1460,l),
(113,1460,l),
(113,1383,l),
(335,1316,l),
(312,1370,l),
(312,90,l),
(335,144,l),
(113,77,l),
(113,0,l)
);
},
{
closed = 1;
nodes = (
(1357,-400,l),
(1357,-333,l),
(1328,-333,ls),
(1236,-333,o),
(1199,-290,o),
(1199,-228,cs),
(1199,-159,o),
(1236,-85,o),
(1357,0,c),
(1299,37,l),
(1145,-70,o),
(1073,-146,o),
(1073,-248,cs),
(1073,-328,o),
(1118,-400,o),
(1303,-400,cs)
);
}
);
width = 1555;
},
{
layerId = "E1CD64A1-112A-4516-A7DF-4EBEDF7D0C85";
shapes = (
{
closed = 1;
nodes = (
(1387,0,l),
(1433,472,l),
(1251,472,l),
(1149,157,l),
(1203,203,l),
(463,203,l),
(529,132,l),
(529,715,l),
(457,650,l),
(861,650,l),
(802,695,l),
(915,426,l),
(1025,426,l),
(1025,1061,l),
(915,1061,l),
(802,792,l),
(864,840,l),
(457,840,l),
(529,789,l),
(529,1291,l),
(497,1258,l),
(1176,1258,l),
(1121,1301,l),
(1224,986,l),
(1406,986,l),
(1360,1460,l),
(77,1460,l),
(77,1311,l),
(251,1245,l),
(205,1312,l),
(205,103,l),
(279,227,l),
(77,149,l),
(77,0,l)
);
},
{
closed = 1;
nodes = (
(1387,-455,l),
(1387,-312,l),
(1361,-312,ls),
(1258,-312,o),
(1217,-269,o),
(1217,-208,cs),
(1217,-142,o),
(1267,-77,o),
(1387,0,c),
(1241,49,l),
(998,-59,o),
(915,-161,o),
(915,-267,cs),
(915,-354,o),
(964,-455,o),
(1219,-455,cs)
);
}
);
width = 1555;
},
{
layerId = "BEB83068-430F-4F93-8275-D4D4FE2C02C8";
shapes = (
{
closed = 1;
nodes = (
(1085,0,l),
(1150,385,l),
(1053,385,l),
(934,70,l),
(1008,104,l),
(307,104,l),
(359,79,l),
(359,721,l),
(310,701,l),
(755,701,l),
(691,732,l),
(738,500,l),
(815,500,l),
(815,1001,l),
(738,1001,l),
(691,769,l),
(745,792,l),
(310,792,l),
(359,777,l),
(359,1395,l),
(328,1356,l),
(968,1356,l),
(894,1400,l),
(1013,1085,l),
(1110,1085,l),
(1045,1460,l),
(76,1460,l),
(76,1383,l),
(258,1316,l),
(235,1370,l),
(235,90,l),
(258,144,l),
(76,77,l),
(76,0,l)
);
},
{
closed = 1;
nodes = (
(1068,-400,l),
(1068,-333,l),
(1039,-333,ls),
(969,-333,o),
(940,-285,o),
(940,-228,cs),
(940,-165,o),
(967,-95,o),
(1068,0,c),
(1010,37,l),
(886,-70,o),
(814,-152,o),
(814,-248,cs),
(814,-324,o),
(853,-400,o),
(1014,-400,cs)
);
}
);
width = 1240;
},
{
layerId = "3A752AAD-7068-4A08-8CFD-4D7C5CAE8856";
shapes = (
{
closed = 1;
nodes = (
(1016,0,l),
(1154,472,l),
(972,472,l),
(809,157,l),
(871,203,l),
(326,203,l),
(379,132,l),
(492,715,l),
(407,650,l),
(659,650,l),
(609,695,l),
(670,426,l),
(780,426,l),
(903,1061,l),
(793,1061,l),
(628,792,l),
(699,840,l),
(444,840,l),
(506,789,l),
(604,1291,l),
(566,1258,l),
(1050,1258,l),
(1003,1301,l),
(1045,986,l),
(1227,986,l),
(1273,1460,l),
(225,1460,l),
(196,1311,l),
(317,1245,l),
(284,1312,l),
(49,103,l),
(147,227,l),
(-30,149,l),
(-59,0,l)
);
},
{
closed = 1;
nodes = (
(930,-443,l),
(956,-310,l),
(927,-310,ls),
(868,-310,o),
(829,-267,o),
(842,-199,cs),
(852,-149,o),
(891,-75,o),
(1016,0,c),
(908,37,l),
(720,-31,o),
(577,-145,o),
(554,-262,cs),
(538,-345,o),
(580,-443,o),
(820,-443,cs)
);
}
);
width = 1240;
},
{
layerId = "5F491846-7617-4B03-8CE4-FAFF8D3DA710";
shapes = (
{
closed = 1;
nodes = (
(1260,0,l),
(1400,385,l),
(1303,385,l),
(1123,70,l),
(1203,104,l),
(307,104,l),
(354,79,l),
(479,721,l),
(426,701,l),
(1023,701,l),
(965,732,l),
(967,500,l),
(1044,500,l),
(1142,1001,l),
(1065,1001,l),
(972,769,l),
(1031,792,l),
(444,792,l),
(490,777,l),
(610,1395,l),
(572,1356,l),
(1407,1356,l),
(1351,1400,l),
(1399,1085,l),
(1496,1085,l),
(1504,1460,l),
(300,1460,l),
(285,1383,l),
(494,1316,l),
(481,1370,l),
(232,90,l),
(266,144,l),
(31,77,l),
(16,0,l)
);
},
{
closed = 1;
nodes = (
(1182,-400,l),
(1195,-333,l),
(1166,-333,ls),
(1074,-333,o),
(1046,-290,o),
(1058,-228,cs),
(1071,-159,o),
(1122,-85,o),
(1260,0,c),
(1209,37,l),
(1034,-70,o),
(948,-146,o),
(928,-248,cs),
(912,-328,o),
(943,-400,o),
(1128,-400,cs)
);
}
);
width = 1555;
},
{
layerId = "6B25F7AD-67F3-407A-A333-8CA62504B4E5";
shapes = (
{
closed = 1;
nodes = (
(1282,0,l),
(1420,472,l),
(1238,472,l),
(1075,157,l),
(1137,203,l),
(397,203,l),
(450,132,l),
(563,715,l),
(478,650,l),
(882,650,l),
(832,695,l),
(893,426,l),
(1003,426,l),
(1126,1061,l),
(1016,1061,l),
(851,792,l),
(922,840,l),
(515,840,l),
(577,789,l),
(675,1291,l),
(637,1258,l),
(1316,1258,l),
(1269,1301,l),
(1311,986,l),
(1493,986,l),
(1539,1460,l),
(256,1460,l),
(227,1311,l),
(388,1245,l),
(355,1312,l),
(120,103,l),
(218,227,l),
(1,149,l),
(-28,0,l)
);
},
{
closed = 1;
nodes = (
(1194,-455,l),
(1221,-312,l),
(1195,-312,ls),
(1092,-312,o),
(1060,-269,o),
(1072,-208,cs),
(1084,-142,o),
(1147,-77,o),
(1282,0,c),
(1146,49,l),
(882,-59,o),
(779,-161,o),
(758,-267,cs),
(741,-354,o),
(771,-455,o),
(1026,-455,cs)
);
}
);
width = 1555;
},
{
layerId = "2935642B-2075-4830-97B8-D7DDAAAB1EBE";
shapes = (
{
closed = 1;
nodes = (
(988,0,l),
(1128,385,l),
(1031,385,l),
(851,70,l),
(931,104,l),
(230,104,l),
(277,79,l),
(402,721,l),
(349,701,l),
(794,701,l),
(736,732,l),
(738,500,l),
(815,500,l),
(913,1001,l),
(836,1001,l),
(743,769,l),
(802,792,l),
(367,792,l),
(413,777,l),
(533,1395,l),
(495,1356,l),
(1135,1356,l),
(1079,1400,l),
(1127,1085,l),
(1224,1085,l),
(1232,1460,l),
(263,1460,l),
(248,1383,l),
(417,1316,l),
(404,1370,l),
(155,90,l),
(189,144,l),
(-6,77,l),
(-21,0,l)
);
},
{
closed = 1;
nodes = (
(893,-400,l),
(906,-333,l),
(877,-333,ls),
(807,-333,o),
(788,-285,o),
(799,-228,cs),
(811,-165,o),
(852,-95,o),
(971,0,c),
(920,37,l),
(775,-70,o),
(687,-152,o),
(669,-248,cs),
(654,-324,o),
(678,-400,o),
(839,-400,cs)
);
}
);
width = 1240;
}
);
unicode = 280;
},
